/* XPM */
static char *_c3b2171435449f78835761210e0361dSK1qBmHHT7vlmuzU[] = {
/* columns rows colors chars-per-pixel */
"64 64 225 2 ",
"   c #030100",
".  c #0B0100",
"X  c #080901",
"o  c #140301",
"O  c #1C0301",
"+  c #150802",
"@  c #1C0903",
"#  c #230401",
"$  c #2C0501",
"%  c #240A03",
"&  c #2C0903",
"*  c #330501",
"=  c #3B0502",
"-  c #340902",
";  c #3C0A03",
":  c #330D08",
">  c #3E0F0B",
",  c #2A1003",
"<  c #321103",
"1  c #430502",
"2  c #4C0501",
"3  c #440B03",
"4  c #4B0C03",
"5  c #4E0D09",
"6  c #540602",
"7  c #5B0602",
"8  c #530C03",
"9  c #5B0D04",
"0  c #530F0A",
"q  c #451205",
"w  c #4D1205",
"e  c #461108",
"r  c #4E1209",
"t  c #4E1C04",
"y  c #541106",
"u  c #5C1105",
"i  c #541309",
"p  c #5B1309",
"a  c #5F1B08",
"s  c #630502",
"d  c #6A0502",
"f  c #630D03",
"g  c #6B0D04",
"h  c #7A0603",
"j  c #730D04",
"k  c #7A0D04",
"l  c #750D08",
"z  c #641205",
"x  c #6B1205",
"c  c #631A07",
"v  c #6C1807",
"b  c #641409",
"n  c #6B1409",
"m  c #66190D",
"M  c #6D190B",
"N  c #741305",
"B  c #7B1406",
"V  c #751907",
"C  c #7E1906",
"Z  c #741509",
"A  c #7B1609",
"S  c #74190A",
"D  c #7C1A0B",
"F  c #681310",
"G  c #671B13",
"H  c #761D14",
"J  c #7F1E11",
"K  c #722006",
"L  c #7A2206",
"P  c #702009",
"I  c #792218",
"U  c #8A0501",
"Y  c #820E06",
"T  c #940B03",
"R  c #960F09",
"E  c #841505",
"W  c #8C1605",
"Q  c #851907",
"!  c #8C1907",
"~  c #831508",
"^  c #8C140A",
"/  c #831B0B",
"(  c #8B1B0B",
")  c #931405",
"_  c #9C1504",
"`  c #961A06",
"'  c #9B1906",
"]  c #93170A",
"[  c #981709",
"{  c #931C0B",
"}  c #9B1D0A",
"|  c #821911",
" . c #881F11",
".. c #981C12",
"X. c #AB0C04",
"o. c #A00F0A",
"O. c #B10A06",
"+. c #AD1204",
"@. c #A51A06",
"#. c #A81109",
"$. c #A31D0B",
"%. c #AA1D0A",
"&. c #A51905",
"*. c #B71407",
"=. c #B3170A",
"-. c #B41D0B",
";. c #BA1B08",
":. c #A01A18",
">. c #A31C14",
",. c #85230C",
"<. c #8B230D",
"1. c #8C2A06",
"2. c #94210C",
"3. c #9B220D",
"4. c #962C08",
"5. c #95330C",
"6. c #872113",
"7. c #8D2313",
"8. c #81241B",
"9. c #932313",
"0. c #9C2512",
"q. c #9B2A16",
"w. c #9C2818",
"e. c #97251B",
"r. c #963313",
"t. c #A3220D",
"y. c #AA230D",
"u. c #A0280F",
"i. c #AE290E",
"p. c #B3240D",
"a. c #BB230C",
"s. c #B4290F",
"d. c #BB2A0E",
"f. c #AB310B",
"g. c #BE340F",
"h. c #A32511",
"j. c #AC2511",
"k. c #A42A14",
"l. c #AC2A13",
"z. c #A7271B",
"x. c #A12C19",
"c. c #AC2D19",
"v. c #B32612",
"b. c #BA2612",
"n. c #B32A14",
"m. c #BC2C13",
"M. c #B42B19",
"N. c #BD2F1A",
"B. c #B6331C",
"V. c #BD341C",
"C. c #B63817",
"Z. c #972D21",
"A. c #9E2B24",
"S. c #A12C20",
"D. c #B53424",
"F. c #C60E01",
"G. c #C71208",
"H. c #CC1D0C",
"J. c #C91804",
"K. c #D31A0A",
"L. c #FF1B08",
"P. c #F61A0B",
"I. c #CB260E",
"U. c #C32A0E",
"Y. c #CC2B0E",
"T. c #C3250B",
"R. c #D5280E",
"E. c #D72A0C",
"W. c #CA330D",
"Q. c #C32B12",
"!. c #CB2D13",
"~. c #C32D19",
"^. c #C32612",
"/. c #D42D13",
"(. c #DC2F14",
"). c #D32511",
"_. c #C23215",
"`. c #CC3214",
"'. c #C43319",
"]. c #CC3419",
"[. c #CD3B1B",
"{. c #D53414",
"}. c #DB3414",
"|. c #DF3B17",
" X c #D2341A",
".X c #DA331B",
"XX c #D33A1B",
"oX c #DD3D1D",
"OX c #F02B0B",
"+X c #E52D14",
"@X c #E13512",
"#X c #ED3C16",
"$X c #E2371E",
"%X c #E33B1C",
"&X c #EB381B",
"*X c #E43917",
"=X c #F03018",
"-X c #FB3D1C",
";X c #C23320",
":X c #C83620",
">X c #CD3A20",
",X c #C53B24",
"<X c #DC3E21",
"1X c #D4382A",
"2X c #C93D31",
"3X c #D13D30",
"4X c #E33C25",
"5X c #E53D30",
"6X c #EE421B",
"7X c #F54118",
"8X c #FC461B",
"9X c #C4422D",
"0X c #D94720",
"qX c #DB4F22",
"wX c #D44737",
"eX c #ED4321",
"rX c #E14628",
"tX c #E84528",
"yX c #E94A26",
"uX c #F34924",
"iX c #FF4D20",
"pX c #F54E2B",
"aX c #EB532F",
"sX c #FF5C23",
"dX c #FE5C32",
/* pixels */
"# o   O # * 6 6 d 6 = * o   . # # * # $ = d o.l R 0 o o 3 $ # *   $ - 1 9 1 @ 0 1 = e 1 : * # # $ O O .   O #   o   o o .       ",
"O . o # # O 1 = = - # $ * O # 1 $ $ O . * 9 f 5 b l = 9 u = 1 $ o = 5 $ 5 > @ $ : J ..n 5 o . 1 $ > -     O # o # # $ $     . o ",
". O $ $ o $ 7 - 2 1 o $ * = o = 2 . # # 5 #.s o 5 4 0 l 2 4 o   1 F # % p ; ; > H i b N $ . : @ . 9 6     .     O = # # . o O . ",
"o # # o   $ 0 - 4 O   - = = $ - 1 $ # : R P.G.$ 1 ; 3 7 % 9 o   = f $ 6 n 3 8 p i . $ % # # . # % 1 *     . o # . o = # # . o o ",
". . # $   O - $ - . # 4 5 6 3 - $ $ # = +.K.R = * * = N A 6 # o = ; 8 z p 9 4 > e : 4 p 8 %   & 4 - o O * o # O . o 6 7 = o . # ",
". o = 2   $ f O 4 6 3 4 5 9 = $ O = 3 6 f ; o $ O 9 >.^.h.# * 4 * 2 b A 8 5 : 4 f 8 S z : e M u * $ # O * O o .     9 h 6 = $ = ",
"  . = * # 1 g 1 s 3 = ; 2 j - # O 8 = 8 9 %   - S $X.Xa.^.= ; 3 = j A { 3 9 x 8 = x y # . z 3.b # = O O # # o # o O 5 l l l 1 o ",
"o = * $ O = =.Y 6 $ 3 ; 6 g - $ 3 z 3 * g b H M.M.0.$ N +Xb O * $ 7 A y b A V B 4 3 u j 8 6./ ; O # O o #   O = O . # e l Y * $ ",
"6 l 1 * . # =.] * * 3 = 2 2 ; 3 4 7 - 8 W D.3X~.{ } z 9 !.A o = * f u - } v./ ) 7 $ ^ =.} t.E = 1 3 - $ . O * 6 o . : ; $ l 7 - ",
"1 1 = = .   Y ^ $ # # = 2 3 9 8 - * 3 k ! A.1X0.[ (.+Xk } !.; # 7 9 8 A Q.^.A 9 ) N r $.;.H._ 1 7 9 s = . = * 6 - + O 2 Z ^ l 1 ",
"5 o - -   . ^ ] 6 2 O o 8 7 j 8 & % 9 9 | 3X| O ( {.I.E 1  X$.# 2 B B ( n. .g A x > 5 E %.E B T 8 9 6 = =   = 8 $ O . 9 >.b 3 8 ",
"2 . - - # $ { $.; # o . s 8 ; % 3 u 2 * e.5XH O p Q.j.E O x.pXg Q } A l.m.{ 9 B V 3 3 3 Q y 2 s f k * 1 7 * 3 - # O + p / u * 3 ",
"6 O . $ 4 * A a.8   $ 1 * 9 y 8 N 4 * ;  .V.m.i.u p ( ~ $ C.pX}.l.8 0.&X~ b z p { b - z $.B % ; x j 1 O f 9 $ # O O # z z z $ 0 ",
": f 8 o . o h./ f 4 3 $ . B ! N E 3 ; 2 } z.h.{.& $ { A s p.m.y.! _ {.].{ 2 A J { $.u 3 A z 4 f z 8 1 9 j 6 # * 4 4 O 9 u 4 3 2 ",
"4 K.*.O # ; { z V g O   1 %.^ 9 9 3 8 ; B 0.n.{./ C c ; E E ` y./ } m.].{.{ 9 A 5 V / n M   3 &.E - - 4 6 1 1 4 3 $ # c n n % ; ",
"6 #.Y . o f %.N { z   ; ~ %.B - 4 W 3 # g } n...( t.z D ` 3 d.a.f N ( '. XD z v.3 r ( 3.C > x ! N y 4 O 1 $ o u 3 O O y { { u V ",
"3 9 #     ] } f N 8 ; ) [ E 4 o f %.x & N ! i.C p.Y.a.i.> + p.*.B V q.h.3.N B N.N.3.! 3.` y.` z ` ! 3 O . 2 g x - $ p ( s.a.$.3.",
"3 3 o   3 $.@ $ 9 f ] ^ N N * # _ %.E 4 8 ! y.x t.@XsXC.  $ ' x = v 6X_.E @._.[.f.{ '.l.{ { V x Q B & $ # j E Q 2 I e.y._.d.a./ ",
"N #   # {.y.. # x $.t.! } x # * E -.! ; # ' t.p.%.` qX0XE w E ` $ x N._.z z *XoX6.9.'.m.t.Q y N ! x $ . 3 z % 2 u wXZ.{ y.i.=.a.",
"x O 0 eX=Xg 9 n $.Q.] s.).j # 2 ) } ) ; N W s.8XT.6 6 %.C . % a.E 3 v U.6 f W.oXD.x.C ` W.6XY._ ! z $   3 z y s S 2X8.V B t.E ' ",
"n._.8X8Xx o x @Xt.t.t.a.&.4 # 6 @.a.} # f &.p.{.7Xd.{ ! -   # ! = v n.s.8 E `.yXyXV.E N t.{.Y.W Q E = O 9 W X.U w.9XS E x s.C A ",
"! |.{.W 2 ; N } x |.s.&.9 % 3 % ` Y.y.# g E ! Q.#X%Xp.B $ O Q ` 4 U.*X3.x E k.dXpX~.; * t.2.` z 3.V   # W J.F.1 r.C.z y.V ` } / ",
"- 4 6 8 3 ; 6 `.0.s.U.x # 8 4 9 ` U.p.= 9 j ! !.t.! f ; 3 ; 4 W T.Q.4X3.9 ' `.aXrXm.= O { y.` N W.x . w _ _ 2 $ 4.P ; } } r b D ",
"$ # ; z 4 3 ; i.i.t.!.4 o x x f W a.a.8 * B _ } # ; 8 * 4 # 4 ! $.a.`./ z Q ]._.9X}.4 ; ) @X3.N U.N z ` 8 * # $ 5.r.O 2.p . 3 3 ",
"f 7 # 4 y ; 3 3.3.t.n.; 3 N t.8 E Y.$.3 3 E k B 3 % = ; ; # u ` [ p.C ; z A ~.'.[.m.N }.U.d.x 8 V ! B 4 $ o * 8 1.L o { i o C v ",
"; = ; 3 4 - * t.l.l.3.f X.k ! B 9 s.U.2 # 8 N a.I.4 ; 4 4 # 8 } B { V ; 4 } h.q.'.,.8 #X6X! y B u u 8 O O O # D 0X,.y a.Q.- N / ",
"% & - u 4 - f i.[.4Xi.f T } 3.E x y.s.j 7 8 E %.x 4 4 4 3 & ; V Q ( y . * t.B.w.n.V u }._.3.N B x - 3 *   # 2 y ,X,Xr / t.: 3 n ",
"= % 8 N N u 8 3.uXuX`.* % i.i.E W p.U.u 2 x N ) f 8 - ; 4 8 O z { 3.S # * u c.V.C.2.2 3.B.i.E z ! w o $ = # 3 ,.M : w 8 # i y u ",
"; 3 4 ; N x O 8 %XuX_.- 3 { / ( B ` y.8 - 9 N N x = & % 2 8 & 8 E t.Q.z 4 0.'.w.l.,.1 2.0X_.3.% C u # . * 9 3 v q   ; n p / 3 i ",
"9 1 - f B u - 2 0.XXQ.z o 4 '.3.4 t.E.; O 8 9   o 3 3 ; ; O % 8 ( m.h.3 3 n.B.w.t.8 & ( 0.u.B ; x 3 # o & u 6 2.g.C ,.! t.A y z ",
"9 3 ; ) 4 O 4 V <.].m.z 1 V XXn.3 E OXB # 8 x ; ; 4 - 4 4 O - B z S 0.- 3 q.7.c._.f 4 n.h.b y.@.9 O   = 3 & o q 4.s.,.B y.b p 8 ",
"8 j 3 4 o   w i.h.V.].c = 2._.m.x 3 W x - y 3.B u z $ & ; & ; ! 3.0.l.# 3 B.x.9.4.4 u 3.c.h.y.' V #   3 4 ; . ; `.1.: N ( n A 6 ",
"= f 4 N z x 5 q V V.6XD . S h.t.! 3 x W # B y.# ; N ; # * % 3 ` W.`.} # p :X9.9.V & V i.h.n.<.x u o o 9 9 4 O w f.t & z ( { ~ A ",
"- ; 9 8 N Q u y m k.XXD # ( ].v.t.; 4 B o B t.O # 3 3 - - - 8 t.Q.C % O 6.;Xm Z z x t.y.l.l.! C ; o $ 9 x 4 O ; < @ q v h.h. .z ",
"; 9 N N f 9 3 2.c.k.].M . E b.Q.R.4 = B O z a.u ; - 9 3 O ; x } 2.0.i $ 0.x.J ( x C C ( ( ( V b # O # 4 9 3 = y w + + ! +Xv.z $ ",
"- ; 8 8 x B # 8 2.n.$Xx # V b.y.z & 3 x 3 8 C f 3 z B # & $ 8 V 3.-Xa.1 J e.9.7.E v b v M / ! ^ O   o 3 4 % * 9 ; + + E b...e : ",
"3 3 8 x u z 3 <.d.i.h.3 4 O C ~ o - 8 z 1 = ` z $ E ' f 8 $ 1 E h.}.} #  .z.& p x y w D ( / ( V * o % 6 8 & O & <   q x Z | D b ",
"3 ; N ! u 4 4 s.oXq.V 8 o y i.n } B 7 x % # ` B - 9 E f = = f B p D p   y M.z.b ; w ; ! ( 5 u 8 * O 3 N 4 & O - q @ . % ( / b 8 ",
"- # y u u u 3 b c.9.t.B   9 a.V %.B 8 f ; o 8 B 4 8 z * % $ 3 A s.2.# # S ~.l.p 3 ; ; q V S } x O O j 9 3 - O $ S c     u m p e ",
"- @ & z y B 8 4 n.~./.8 . 3 ~ B ( z 4 u & . 8 x 8 u ; 8 *   - s.3.i # : !.k.y v x y 3   > ( V 8 O ; g 3 ; % % 1 q , + o 4 D p n ",
"& O & - ; N 8 z _.w.p.z O = ^ B ` 8 ; N - . * ; B x 6 ; .   x y.o 4 3 + D M.( M w z u % . w c 8 ; $ 3 3 # - ; - o . ; : 8 / i i ",
"& . 4 z q V 4 f ~.D.j.6 . $ $.v ( ~ 9 ) ; . % 2 8 1 3 # # = B / q C :   ; >.9./ p 4 r 4 ; u z v 3 o % - $ f & O O   # 3 3 A A 3 ",
"% . 3 u u ! N z D .Xy.- . 3 E 9 { { 7 u # o ; * % ; - $ 8 8 u 3.V b o # - 0. X .& ; 4 ; x C b v ; O - % o - & O 3 ; 1 d 8 b Z 3 ",
"% o 3 3 w ` ` N / M.D & O # o 2 E { 4 8 % . o $ 9 ; . = 6 # 8 v / V . # u  .4X9.% # 4 N x x x b 3 O O # O O O % % 1 7 * 4 i p # ",
"O # - 3 v ' z N z G m # # O o f j %.B x - . o 3 k ; O - = % 9 c A z   9 (.y.N.z.- O 9 ) &.9 u n q % o o @ % % . . $ = # 7 p 3 o ",
"o & ; 2 N z 4 p $ m m.9 o o 3 $.8 % 9 x & . O - % 3 6 o O = z b S 3   !.{.<... .x x f - 3 8 8 c w O O %   O # O O # * $ d n %   ",
"O & 3 ; 3 x x z 9 n.=XB . # b A 9 # 4 g %   % *   * 2 o . * 4 r A & > $XM m M.v.( x 9 . & u 4 y ; # O - o % # % 3 x G n X.N $   ",
"& % * % $ N z u p A { z O ; 6 u u u ; 2 * O % # 1 $ % # . # 0 N ^ & x j.n } m.~.3.g 8 ; 3 ; u y ; O o # o # # o w a i c u 5 - - ",
"O $ # * 3 3 & 1 8 ( A - $ : 4 k y u ; 2 4 # O o 3 O o O o O 8 A A   p ..n -.j..XI.= o z %   ; 2 ; o . @ 4 3 . % % , i X @ 3 & 6 ",
"O O o * = = = > 5 ~ | 3 O @ : 8 8 8 B g 3 O . . $ # . o o & p % n * S  .n n F !.$.= & y 8 3 > 0 - @ . % 9 7 . o + + & F ^ 5 % = ",
"$ # # $ # & - - ; $ ( =   @ # 3 & 8 4 4 +.%   o 3 - o .   * e + 3 * n V : 5 A D / 3 4 u n N u 5 3 ; # O o & O o e r :...5 7 # o ",
"# 1 - O # $ $ $ O - ( u # O & - O # o : L.U   . * * ; & . % ; 3 N O : M 4 g -.S N 4 4 4 ; > : & & & o o % . O O + > | r # 0 % . ",
"$ $ = o $ $ # #   f ).>.. @ & 8 8   O 4 X.6   # # O % $   $ p N 4 o 5 / u n ( >.! - & 8 9 - & # @ & o . % .   . . 5 e : > = # o ",
"O = 1 . o # # - @ 4 H.A   ; 3 N 3 o % B 4   o # O o O # $ 3 y 9 o O ; x N 5 b ..A o # % 0 b $ @ % O . . + .   O % l F   $ $ @ O ",
". = 1 O . # # O * O f u o ; 9 * # & - 6 g s #   o   . o $ 3 3 0 %   4 % 4 n ( S 3 # $ % % & o o % %   . % . 1 * .   @ @ o . # 1 ",
"# o # o   # O . 2 6 e 4 O 7 6 O ; 4 4   g X.$     $ O   . = f $ o   ; 1   u n w 3 @ o O o % @ @ . o . o * o h 2     . o .   * 5 ",
".   . . o . o o * 7 1 > O O o O $ 1 = % $ = o . O = .   O 1 0 = o O u 5 O g Z b 5 O . % & @ o o .   O $ o o # # . . . o .   o   ",
". O   o o . o # # $ $ 4 # # o o 1 = $ O       O $ o . O o . & = O $ 7 # % 9 n n e o o & @ o o & + o o   . o   . @ o . # $   .   ",
"o o $ 1 .   . # = O * 1 . $ 5 o # 1 #   # O   o . # 1 # . o 5 7 o O 1 = 1 5 g g % . . # & = O 1 > #     .   . o # o   o O   . . ",
"    # $ . . . . = O = s o 2 2   o = 1 # * # o O o O O .   * 6 6 # O 6 = 2 R h 1 # o   # # 0 2 # 7 6 o     . # # * .       . .   ",
"# o     . O . . O o . = # O = # $ $ O .   O O o O     o o * 1 1 o # : . 1 O.U # # O = @ . 5 5 . # o o o o 1 $   .             . ",
"$ #     .     . O O # $ .   O . O .       O .     . . . o 1 : o o .     1 O.d 1 O # * o $ 1 . . o   . . o 2 *       .       o o ",
"  .           . o . O O .   .   . .   O O O .             & 5 o   . O . # 1 > * . o   o O .   o     . o   $ O   .   .       . . ",
".     .   .     . .   . .   o o o $ o . o o .     . .   . # * .   o # .     * $ . . . # O   .     .                           . "
};
