/* XPM */
static char * wall3_xpm[] = {
"128 128 21 1",
" 	c #C6B294",
".	c #AC9E84",
"+	c #FFFFFF",
"@	c #9D896B",
"#	c #54483A",
"$	c #BCA589",
"%	c #A99574",
"&	c #D1B485",
"*	c #443228",
"=	c #645442",
"-	c #89735B",
";	c #917D66",
">	c #DFC19C",
",	c #36281E",
"'	c #251B16",
")	c #1D0C01",
"!	c #231C18",
"~	c #080000",
"{	c #E7D2B2",
"]	c #94908E",
"^	c #B7A88F",
"     .+@#$$$#$$$$$$$$$$$$$+                         ............................%+$$                         .+&&&&&&&&         ",
"   .**.$$$$$$$$$$$$$$$$$$#                          #...........................%.$.                         #=&&&&&&&=         ",
"   .**.$$$$$$$$$#.$$$#####.                         #%........#.................#=.#            =           ##=.&&&&&&=         ",
"   .*.$.$$$$$$$#####.#####.###########.##.#######.#.#%.......%##........###%%####--##########.###.##===== =.##..&&&&&&=   ###===",
" ...*=%#########====@-#-.$$$$$$$.#@..@@@=@@@@#=====.==##########%###########;%##---------#=----======#########@========$$$######",
"+==%=====%$%@.......=@@-$$$$$$$$$#..........@.          =;@@@@@@@@@@@@@;%%%%%%%#>>>>>>>>>=$$$$$$$$$$$@..........#=====;;;;;;    ",
"$$$$$$$$$$$$........=@@-$$$$$$$$$#........=.==          =@@@@@@@@@@@@@@;%%%%%%%#>>>>>>>>>=$$$$$$$$$$$...........===@@@@@@===####",
"$$$$-----$--..=======#############@========.==          =@@@@@@@@@=@@@@##%%%%### --------=.==---=====@.........==@=@@@@@@@@==-@@",
"%$%%%%--=========##@##;,@%%%%@%%%%%%%%%%%%%%#@============@@@@@=@@@@@@@#****###**@@;;;-;;;@;;@@@@;@@@@,#......=#@@@@@@@@@@@@;@@@",
"======#=#=%$$$$$=@@@@;#@%%%%%@%%%%%%%%%%%%%%%%#===----###########===@=;#*@@@@@@@@@@@@;;@@@@@@@@@@@@@@;,#########=;@@@@@==@@@=@@@",
"##@%######%$$$$$=@@@@##@%%%%%@%%%%######%%%%%%#..%@@@@@@@@@@@-@@-##;@@@;;@@@@@@@@@@@@*;@@@@@;@@@;;;;;;,;,#@@%%%@#######==;;;=@@@",
"##%%%%%%##$$$$$$=@@@@#;@%%%%%,%%%%%%@###%%%%%%#..==@@@@=@@@@====@#*@@@@@@@@@@###@@@@;*@@@@@@@@@@@@@@@@@@,*@%%%%@-;;;;;;-;;;;--@@",
"#@%%%%%%##$$$$$$=@@@@##@%%%%%,%%%%%%%##%%%%%%%#..==@@@@@@@@@=@@@@#*@@@@@@@@@@####@@@**@@@@@*@@@@@@@@@@@@,*@%%%%@;;;;;;=-;;;;;'@@",
"%@%%%%%%##=======######,,,,*,,#################===##==@=========##*******************#,*****,@**,*****,,,***##**#=====#*-;;;-*',",
"+#########=======#####===$======.$$$=#...--## $  ##$##############))#;*@....!'#      $##.$$$$...#.....$.##*...##########--####-'",
"=$$$$$$$$.#$        ##=        $$$$$$$    -          $#......#@@@#))#$'......!@       ##$$$$$$$$$$$$$$$$.#.$$$$$###%$$$$$$$$$#$$",
"$$$$$$$$$$#         $#=        $$$$$$$    -          $#......#@@@#===='......'@       #.$$$$$$$$$$$$$$$$$$$$$$$$###$$$$$$$$$$$  ",
"$$$$$$$$$$#         $#=        =#.##.#-   -           ############$  =''''''''$      $##$$$$$$$$$$$$$$$$$$$$$$$$#**$$$$$$####%$$",
"$$$$$$==$$############=$========###%$$.. .-######===$#####==---==#==##===#=-$==#**#############$$.##.....$$$$####~~#$$$$$##==***",
"##########.$$$$$.#%%%%%..%====%%%=%%%%%%%$$$%-$$$$$$$%--%$      =$$.$$$$$$ -  $...@*#%$%%%%$$$$%%%.$$==#=..==.##=**######=.==;%%",
"$...#$$$$$$$$$$$$#.......%;@,%$$$$$$$$$$$$$$$$$$$$$$$$$$$-$       $=$$$$$#====.....*%$$$$$$$$$$$$%$            $       $.   ==**",
"$$$$$$$$$$$$$$$$=#.......#@@,;$$$$$$$$$$$$$$$$$$$$$$$$$$$$         =#$$$###...%....*#$$$$$$$$$$$$$                              ",
"$$$$$$$$$$$$$$$$##...#...#;@,;$$$$$$$$$$%####$$$$$--------        $=#####=#...#*##**#$$$$$$$#$$$$#=                    ==       ",
"$$$.@%#####====###########,,,#########-----%%$$$$%---==--$        $==..   =...#%.%**#######%######=$$$==============$==###==..==",
"$$$#%%%@=----==#$$.#$#.$$.=;=%......=-$$$$$$$$$$$%               $$.$$$   =.......@;=   .   =         =$$$%.     .%$$$$$$$$$$###",
"$$=#%%%==>>>>>-=$$#$$#$$$$=;=...=...=$$$----$$---- -    -  -------==$$=   =##....###        - - ----- =$$$#-      $$$$$$$$$$$$##",
"###@%%%#->>>>>-=$$#$$#.$$$===...=...=--------$----=----===------=====.=====#########.-  ----- --- ----=%$$#----- =#$$$$$$$$$$$$$",
"$#######=>----==##########===========----------------@@@--=@@%%%%@@=@%@@.=,;,,;%%%,,@@%@#=======--=====####=======############%%",
"$.@%%%%%%%=@@###= #,-,#  #$$#@........@@#@@;;;;;-@@@@@@@@@%%%%%%%%%#%%%@;@@@@;%%%%%,%%%%%%%%%%%%#==..........#@%%%%%%%%%%%#=    ",
"$#@%%%%%%%%%%%=$  $@@,   #$$#.........@@#@@;;;;;;@@@@@###@%%%%%%%%%#%%%#@@@@@,%%%%*,%%%%%%%%%%%%##@@.........##%%%%%%%%%%%#=    ",
"$#@%%%%%%%%%=%%=  $@@,   #$=#.........@##@##;;;;;@@@@@###@%%%%%%%%=#%%@#@@@@@,;%%%,#%%%%%%%%%##%####========.##%%%%%%%%%%%#=====",
"###@#====##########,,,#####=#.........###@##;;;;#@@@@-###@%========####,,,,,,,,,,,,##%%%%%%%###%##@==========############@#=====",
"$$$$$$$%.$$$$=====*  *######################-#########---@=========@@*****%**%##=###################@############- --)####======",
"$$$$$$$==$$$$$=$$.*  *..@...@#$$$$$$$%$$$$$$#%-##-###===@@=@@@@=@==@@-@@*$$$*%%$$$##%$$$$$$$%@%%%%%$$###;##@==%=#  $$==%%....==%",
"$$$$$$$==$$$$==$=.*  *.......%$$$$$$$$$$$$$$#%@@@@@@@%%%@@@@%%%%%%%%@@@@*$$$%%%$$$##$$$$$$$$##$$$$$$$%#;%%;;....%%$..%%%.....%=%",
"======$========###*  *..@...@%$$$$$$$$$$$$$$#=@%%%%==%%%%%%%%%%%%%%%@-@-******#$$$##$$$$$$$$#%$$$$$$$%##%%%#.................==-",
"===@@@%%@=%%%@*%%%#***########$$$$$$$$$$$$$$#=%%%%%%%%%%%%%%%%%%%%%%=#####..##====###$$$$$$$##$$$=#=##%%%%%%;-.............--=-@",
"%%%%%%%%%%%%%%*==#*%%**##$$$############%####@%%%%%%%%%%%%%%%%%%%%%%=$$$#.$$#=@...==#@%%%%@@@@@%%#####%%%%%%%.................%{",
"%%%%%%%%%%%%%%*#=;;%%*=-$$$$$#=..........#$$#@%%%%%%%%%%%%%%%%%%%%%%=$$$#.$.#==....=@%%%%%%%%%%%%%--,%%%%%%%%................-=@",
"%%%%%%%%%%%%%%*=.@*%%*=;$$$$$#..........==$$#%%%%%%%%%%%%%%%%%%%%%%%=$$$#*****=....@#%%%%%%%%%%%%#--,%%%%%%%;.................=.",
"%%%%%%%%=@%%%%*=..*%%*=-#==$##...=..=====#$$#@%%%%%%%%%%%%%%%%%%%%%%=$$$#*;***======##############,-,########=--------------.-=.",
"===%======*****####**###=%=====$##%%%=###=%%%==-$>>>>$@============@=####******- -------#%%%######;@@;##;@@@@@;;@@@@@@@@@@@@@#;#",
">>>>>>>>>>>>>>>>>  =#  #$$$$$$$$$%$$$$$$$$$$$%->>>>>>>>--                =---$=         %$$$$$$$$%>>>>;@>>>>>>>>>>>>>>>>>>>>>>>>",
">>>>>>>>>>>>>>>>>>==#  #$$$$$$$$$$$$$$$$$$$$$$->>>>>>>>-                 ====$.         #$$$$$$$$%>@@@=@>>>>>>>>>>>>>>>>>>>>>>>>",
">>>>>>>>>>>>>>>>>>-====#$$$$$$$$$$$$$$$$$$$$$$$>>>>>>>>$                  =----         $$$$$$$$$%>@>>;>@>>>>>>>>>>>>>>>>>>>>>>>",
" =====>>>>>>>>>>>---=$$=$$-$$$$$$$$$$$$$$%$$$$->>>>>>$$                   ==;;--       .%%%%%$$$%%@@@@>>;;;;@@;;>>>>>>>>>>>>>>>>",
"====== >>>>>>>>>> @==.=*====-====--============-------= -                 .=;;-*---#%%%%%%%%##=@=@@===========##@@====#==#####==",
"===@== ---------==@@@@@*#%%%%%%%%%%%%#%%%%;@@@@@######=----------------==##-;;**-@@%%%%%%%%%%#@@@@@@@@@@@@@@@@=#@===============",
"===@==>----------@@@@@@*%%%%%%%%%%%%%#%%%%@@@@@@@#@@@#--------=-------=#----;;-*@@@%%%%%%%%%%#@@@@@@@@@@@=@@@@=#@==============@",
";@@%@=----------=@@@@@@*=%%%%%%%%%%%%#%%%%@@@@@@@#@@@#-----------------#----;;**@@@%%%%%%%%%%#@@@@@@@@@@@#@@@@=#@=@@@@========@@",
"=======-----=--==*#*****#%%%%%%%%%%%%#%%%%#@@@@@@#@@@#-------==--------#----;;**@@@%%%%%%%%%%#@@@@=@@@@@@#==@==#================",
"-==.==;;;;---;;;=@@@#@@##%========%%%#===###############=====@=#=-----=#####****@@@#%%%%%%%%@#===========#@@==##=----------%-=;#",
"@;=.=;;;;;;;;;;;=@@@#@@##;;;;;;#;;;;-#%%%%#=##;;#;;;;#;@@@@@@@@@@@@@@==;%%-----*-@-'****####@##@======@@=#@>@@==%%%%%%%%%%%%%%%;",
"@;=.=;;;;;;;;;;;=@@@#@@##;;;;;;;;;;;;-%%%%=%=#;;;;;;;#;@@@@@@@@@@@@@@@@;%%%;---*;@@;@@@;--------------@@@@@@@@==%%%%%%%%%%%%%%%=",
"===%=-;;;;;;;;;;=#@##@@##;;;;;;;;;;;;-=======#;;;;;;;#;@@@@@@@@@@@@@@@@@-%%-#--*@@@@@@@@--------------=@@@@@@===%%%%%%%%%%%%%%%=",
";*====----------==-=#@###;;;;;;;;;;;;;=======#;;;;;;;##@@@@@@@@@@@@@@@@@-%%-#--*#@@@@@@@--------------=@@@=@=@=#%%%%%%%%%%%%%%%=",
"=*=======---=-;==-@@=####;;;;;;;;;;;;;==%%%%=#;;;##-###=@@@@@@=@@@@@@@@;-%%----*#@@@@@@@--------------====@@===#%%%%%%%%%%%%%%%-",
"=****=%$$$$$$$$$=@@@;@###;;;;;;;;;;;;-=%===%%#;;;;;#####;@@@@@=         --;----##@@@@@@@--------*-----#=======##%%%%%%%%%%%%%%%;",
"=*=-*=$$$$$$$$$$=--==-###;;;;;;#####;#======%##;;;;;;##       @         @#-@@%%@#@@@@@@@--------------#======###=;=;-------&&&&&",
"=**===$$$$$$$$$$===$$$===#############====%%%##;;;;;;#-                  ;$@%%%@####*;;**********,,,,,,==###-----&-&&&&&&&&&&&&&",
"]==$$$$$$$$$$$$$$$$$$$$==####===.##====########--######                 $@;$@@@@#########=.$.=*=======   ==&&&&&&&&&&&&&&&&&&&&&",
" $$$$$$$$$$$$$$$$$$$$$$==.     =.=,####%$%%#.....##    @@@@@@@@@@@@@@@@@===@@@;##%......#=$$$==          =-&&&&&&&&&&&&&&&&&&&&&",
"-$$$$$$$$$$$$$$$$$$$$=$==.    == =%$$$%$$$%#.$$$$.#@@@@@@@@@@@@@@@@@ @@@@@@@@@;###......#=$$$==    =     =-&&&&&&-&&&&&&&&&-----",
"-=$$$$$===================  ======$$$$$$$$$.$$$$$$$$;#;@@@@@@@@ @@@@  @@@@ @@@@@##%%%%$##=$$$==.  .===== =------------------@%%%",
"+===$$%$-$==@..@%....*====       .%$$$$$$$%$$$$$$$$$$#@@@@@@@@@@@@@@@@@@#;;; @@ @#$      #..     ..         =-#$#.----%$$$#%%%%%",
"$$$$$$$$$$$*..........            %$$$$$$$.$$$$$$$$$$#@@@@@@@@#;#@@@@@@@#;;@@@@@@#       $       #           .$$$$$$$#$$$$$@%%%%",
"$$=$$$$$$$$*..........             $$$$$$%$$$$$$$$$$$#@ @@@@@;#%@;@@@@@@#;#@@@@@@#       $#      #           #$$$$$$$#$$$$$@%%%%",
"$.=$$$$$$$=*...@.....%            .$$$$$$#$$$$$$$$$$$#       ;=%%=@@@@@@#;@@@@@@@#$      $#      #           #$$$$$$$#$$$$%*%%%%",
"$===#=;%%%;#@..@%....%=============###################;=@#==;#=%%@#;#==###@@====##$#######=#######===========#$$$$$$$#%$$$%#*###",
"@==#%%%%%%%#**********===    ==.==  ==   -= ==$ =$$$$ $##======@===*#*****####-------#.==-  ==.=.==.=%%=========#############*##",
"@=##%%#;;;;##=$$=----*        =     =        #          #$$$$$$$=%%@.........*>>>>>>>. .=    .........=        =#%%%%%%%%%%%%%%%",
"+###%@%%%%%%@-$$-----*       ==     ==---== =#          =$$$$$$$$$=..........*>>>>>>>   .   ==.......%=--      -#%%%%%%%%%%%%%%%",
"%%%%%%%%%%%%%=--=--***=;;--==*****====-------,######===#====$$$$=$=.....#....*-------======;###==;;@;;#=-------=;%%%%%%%%%%%%#%%",
"%%%%%##%#%%%%%%%@#----;;;;;;;;;;;;;;----------*@@=-----,,###=======**@@@@*****;@@@@@;;@@@@@@@@@@@@@@@@###=----############%%;%%%",
"###########%%%%%%#----;;;;;;-;;;;;;;;---------*@@=------#@@@#*=====#;;;;;-;;;-@@@@@@@;@@@@@@@@@##@@@@@;;##;;;;;-*---*####%#%##%%",
"==%;#%%%%@#%%%%%%#---*;;;;;;-#;;;;;;;---------*@@,------#@@@#----=#-;;;;;;;;;;@@@@@@@;@@#@@@@@@##@@@@@#;##;;;;;-*---*####%%%%###",
"%%%%;%%%%##%%%%%%#--**;;;;;;-#;;;;;;;,--------*@@,------#@@@#---#*=#;;;;;#;;;;@@@@@@;*@@@@@@@@@##@@@@@####;;;;;-*---*####%%%%###",
"%%%%#%%%%#########***,*****,,*##*****,,,,,,,,,*@**,,,,,,#@####-#**##;##########*******@######################--#*---*#####%#%###",
"=%%%######=##===##****======-==*$  ;;--=  =%$$$$$*$$%*#######***##,##-##==###-  *=====### >====##===#=========#******###########",
"==##$  -$ - =  ^    ##         =      -=  =$$$$$$$$$$%#.....@#%%%###--=   =$$$  .     =#>>>>>>>>#       ..    ;%;==$$$=      =  ",
";;=         =  =     #         =      $   =$$$$$$$$$$%#.....##%%%#;--==   =  =..       =>>>>>>>>#             =*=    $=         ",
">$=      $ =====     #=        =-------$  =*$$$$$$$$$$########;%##;;$=    =            =##   >>>    .         =*      =  ===;;;;",
"- ==--=-$=$     $=#$$$$   =;;       .$$$$$$$$$$$$$$$$$$$$$$>>>$$$$$$$$$$.=#.@@    ==$$=     .                           ==,*,,**",
"         ==      =#$$$.   ====$.----.....-$$=...$.....==.. >>@..=====..======    ========= ;;;;;=.  ==.=.      ==========.=,,%%%",
"         === $  $#####=        =)))-$-$$ $=**$$$$$$$$%##@#@.>@#;#;#===$  $$            ==~;{{{{    .=====     ===    == .==;%%%%",
">$=      $ =====     #=        =-------$  =*$$$$$$$$$$########;%##;;$=    =            =##   >>>    .         =*      =  ===;;;;",
";;=         =  =     #         =      $   =$$$$$$$$$$%#.....##%%%#;--==   =  =..       =>>>>>>>>#             =*=    $=         ",
"==##$  -$ - =  ^    ##         =      -=  =$$$$$$$$$$%#.....@#%%%###--=   =$$$  .     =#>>>>>>>>#       ..    ;%;==$$$=      =  ",
"=%%%######=##===##****======-==*$  ;;--=  =%$$$$$*$$%*#######***##,##-##==###-  *=====### >====##===#=========#******###########",
"%%%%#%%%%#########***,*****,,*##*****,,,,,,,,,*@**,,,,,,#@####-#**##;##########*******@######################--#*---*#####%#%###",
"%%%%;%%%%##%%%%%%#--**;;;;;;-#;;;;;;;,--------*@@,------#@@@#---#*=#;;;;;#;;;;@@@@@@;*@@@@@@@@@##@@@@@####;;;;;-*---*####%%%%###",
"==%;#%%%%@#%%%%%%#---*;;;;;;-#;;;;;;;---------*@@,------#@@@#----=#-;;;;;;;;;;@@@@@@@;@@#@@@@@@##@@@@@#;##;;;;;-*---*####%%%%###",
"###########%%%%%%#----;;;;;;-;;;;;;;;---------*@@=------#@@@#*=====#;;;;;-;;;-@@@@@@@;@@@@@@@@@##@@@@@;;##;;;;;-*---*####%#%##%%",
"%%%%%##%#%%%%%%%@#----;;;;;;;;;;;;;;----------*@@=-----,,###=======**@@@@*****;@@@@@;;@@@@@@@@@@@@@@@@###=----############%%;%%%",
"%%%%%%%%%%%%%=--=--***=;;--==*****====-------,######===#====$$$$=$=.....#....*-------======;###==;;@;;#=-------=;%%%%%%%%%%%%#%%",
"+###%@%%%%%%@-$$-----*       ==     ==---== =#          =$$$$$$$$$=..........*>>>>>>>   .   ==.......%=--      -#%%%%%%%%%%%%%%%",
"@=##%%#;;;;##=$$=----*        =     =        #          #$$$$$$$=%%@.........*>>>>>>>. .=    .........=        =#%%%%%%%%%%%%%%%",
"@==#%%%%%%%#**********===    ==.==  ==   -= ==$ =$$$$ $##======@===*#*****####-------#.==-  ==.=.==.=%%=========#############*##",
"$===#=;%%%;#@..@%....%=============###################;=@#==;#=%%@#;#==###@@====##$#######=#######===========#$$$$$$$#%$$$%#*###",
"$.=$$$$$$$=*...@.....%            .$$$$$$#$$$$$$$$$$$#       ;=%%=@@@@@@#;@@@@@@@#$      $#      #           #$$$$$$$#$$$$%*%%%%",
"$$=$$$$$$$$*..........             $$$$$$%$$$$$$$$$$$#@ @@@@@;#%@;@@@@@@#;#@@@@@@#       $#      #           #$$$$$$$#$$$$$@%%%%",
"$$$$$$$$$$$*..........            %$$$$$$$.$$$$$$$$$$#@@@@@@@@#;#@@@@@@@#;;@@@@@@#       $       #           .$$$$$$$#$$$$$@%%%%",
"+===$$%$-$==@..@%....*====       .%$$$$$$$%$$$$$$$$$$#@@@@@@@@@@@@@@@@@@#;;; @@ @#$      #..     ..         =-#$#.----%$$$#%%%%%",
"-=$$$$$===================  ======$$$$$$$$$.$$$$$$$$;#;@@@@@@@@ @@@@  @@@@ @@@@@##%%%%$##=$$$==.  .===== =------------------@%%%",
"-$$$$$$$$$$$$$$$$$$$$=$==.    == =%$$$%$$$%#.$$$$.#@@@@@@@@@@@@@@@@@ @@@@@@@@@;###......#=$$$==    =     =-&&&&&&-&&&&&&&&&-----",
" $$$$$$$$$$$$$$$$$$$$$$==.     =.=,####%$%%#.....##    @@@@@@@@@@@@@@@@@===@@@;##%......#=$$$==          =-&&&&&&&&&&&&&&&&&&&&&",
"+==$$$$$$$$$$$$$$$$$$$$==####===.##====########--######                 $@;$@@@@#########=.$.=*=======   ==&&&&&&&&&&&&&&&&&&&&&",
"=**===$$$$$$$$$$===$$$===#############====%%%##;;;;;;#-                  ;$@%%%@####*;;**********,,,,,,==###-----&-&&&&&&&&&&&&&",
"=*=-*=$$$$$$$$$$=--==-###;;;;;;#####;#======%##;;;;;;##       @         @#-@@%%@#@@@@@@@--------------#======###=;=;-------&&&&&",
"=****=%$$$$$$$$$=@@@;@###;;;;;;;;;;;;-=%===%%#;;;;;#####;@@@@@=         --;----##@@@@@@@--------*-----#=======##%%%%%%%%%%%%%%%;",
"=*=======---=-;==-@@=####;;;;;;;;;;;;;==%%%%=#;;;##-###=@@@@@@=@@@@@@@@;-%%----*#@@@@@@@--------------====@@===#%%%%%%%%%%%%%%%-",
";*====----------==-=#@###;;;;;;;;;;;;;=======#;;;;;;;##@@@@@@@@@@@@@@@@@-%%-#--*#@@@@@@@--------------=@@@=@=@=#%%%%%%%%%%%%%%%=",
"===%=-;;;;;;;;;;=#@##@@##;;;;;;;;;;;;-=======#;;;;;;;#;@@@@@@@@@@@@@@@@@-%%-#--*@@@@@@@@--------------=@@@@@@===%%%%%%%%%%%%%%%=",
"@;=.=;;;;;;;;;;;=@@@#@@##;;;;;;;;;;;;-%%%%=%=#;;;;;;;#;@@@@@@@@@@@@@@@@;%%%;---*;@@;@@@;--------------@@@@@@@@==%%%%%%%%%%%%%%%=",
"@;=.=;;;;;;;;;;;=@@@#@@##;;;;;;#;;;;-#%%%%#=##;;#;;;;#;@@@@@@@@@@@@@@==;%%-----*-@-'****####@##@======@@=#@>@@==%%%%%%%%%%%%%%%;",
"-==.==;;;;---;;;=@@@#@@##%========%%%#===###############=====@=#=-----=#####****@@@#%%%%%%%%@#===========#@@==##=----------%-=;#",
"=======-----=--==*#*****#%%%%%%%%%%%%#%%%%#@@@@@@#@@@#-------==--------#----;;**@@@%%%%%%%%%%#@@@@=@@@@@@#==@==#================",
";@@%@=----------=@@@@@@*=%%%%%%%%%%%%#%%%%@@@@@@@#@@@#-----------------#----;;**@@@%%%%%%%%%%#@@@@@@@@@@@#@@@@=#@=@@@@========@@",
"===@==>----------@@@@@@*%%%%%%%%%%%%%#%%%%@@@@@@@#@@@#--------=-------=#----;;-*@@@%%%%%%%%%%#@@@@@@@@@@@=@@@@=#@==============@",
"===@== ---------==@@@@@*#%%%%%%%%%%%%#%%%%;@@@@@######=----------------==##-;;**-@@%%%%%%%%%%#@@@@@@@@@@@@@@@@=#@===============",
"====== >>>>>>>>>> @==.=*====-====--============-------= -                 .=;;-*---#%%%%%%%%##=@=@@===========##@@====#==#####==",
" =====>>>>>>>>>>>---=$$=$$-$$$$$$$$$$$$$$%$$$$->>>>>>$$                   ==;;--       .%%%%%$$$%%@@@@>>;;;;@@;;>>>>>>>>>>>>>>>>",
">>>>>>>>>>>>>>>>>>-====#$$$$$$$$$$$$$$$$$$$$$$$>>>>>>>>$                  =----         $$$$$$$$$%>@>>;>@>>>>>>>>>>>>>>>>>>>>>>>",
">>>>>>>>>>>>>>>>>>==#  #$$$$$$$$$$$$$$$$$$$$$$->>>>>>>>-                 ====$.         #$$$$$$$$%>@@@=@>>>>>>>>>>>>>>>>>>>>>>>>",
">>>>>>>>>>>>>>>>>  =#  #$$$$$$$$$%$$$$$$$$$$$%->>>>>>>>--                =---$=         %$$$$$$$$%>>>>;@>>>>>>>>>>>>>>>>>>>>>>>>",
"===%======*****####**###=%=====$##%%%=###=%%%==-$>>>>$@============@=####******- -------#%%%######;@@;##;@@@@@;;@@@@@@@@@@@@@#;#",
"%%%%%%%%=@%%%%*=..*%%*=-#==$##...=..=====#$$#@%%%%%%%%%%%%%%%%%%%%%%=$$$#*;***======##############,-,########=--------------.-=.",
"%%%%%%%%%%%%%%*=.@*%%*=;$$$$$#..........==$$#%%%%%%%%%%%%%%%%%%%%%%%=$$$#*****=....@#%%%%%%%%%%%%#--,%%%%%%%;.................=."};