/* XPM */
static char * wall4_xpm[] = {
"128 128 19 1",
" 	c #BDAA9A",
".	c #433524",
"+	c #FFFFFF",
"@	c #9D8E7F",
"#	c #B4A48D",
"$	c #514330",
"%	c #2B1F15",
"&	c #60533D",
"*	c #504233",
"=	c #C5B7A8",
"-	c #73644A",
";	c #60533E",
">	c #EBDDC9",
",	c #D8CEBA",
"'	c #1B0A04",
")	c #180803",
"!	c #403410",
"~	c #DCD7CC",
"{	c #AB9D8A",
"   .+@@@.@@@.@##@@########.##########$$$#############$@@.@@@@@@@@@$@+@#+@@@@@@+####################.+@@######%$$  $$     $$  +@@",
"   ..@@@####@###@@@@######.##########$###########$###.@@.@@@@@@@@@$..@@@@@@@@@..#################...@@@@#####%$          $$&&***",
"   ..#######@###..&........#####$$$$$$$#########@$###@@@.@@$...$@@..###..@@@@@..########@###.###.....$%%%%%%%%$    $     $$@&***",
"   ..#######@###..  &......$$$$$$$$$$$.$$$$$$$$$$$$$$.....@..$.@@@.@@##..@@@@@.@#######...........$$@@@@$&@@ @&$$$$$$$$$$$$@&&&&",
"# ##.@@@####.@##.@##&$**   =====*     @.***********%@@@@@@##@$%@@@%%%%%%..&&&&.....$$$@@@###@$@#########@      &$$$$$$$$$$$$&&&&",
"...%%%%%....@@.$$@$@@$*==========      . ==========@@@@@@@###@@##@@####@#      #@########################      &$=========  ====",
"#######@@@%@#########@ ==========     @. ==========@@@@@@@##$$###@@#####        ##############$########$$&-----& ========= $;;;;",
"##########%########$$$***********#@@@@..* =**&&&&= %%%%%%$$$$%##########&      &$$$$$$$$$$$$$$$$$.......$#####.&$$$$$$$$$$$&&&&&",
"##########@######$$$#$#     # ##      .....->>>>>>--#   #,,,=#####.#####&&    &&#####@@#@$##@$#========#      #.$$$->>>>>>-,,--,",
"##@@###@@@%$@########$                .#  #>>>>>>>-=#   #,,,,@####%######    #&##############$=========#       # ==,>>>>>>-,,--,",
"%%%%...%%..$$$$$$$$$$$#               ..###---------$$$$$$$$$$%%%%%%%%%%&&&&&&$$$$$$$$$$$$$$$$#====#===#      .#   --------&&&&&",
"==*@  @.@##@..@@......@@...............&@ &.@@@@@@.$$$$$$.....@@@@$####@$@@@@@@$@@@@$$@@@$$$$$................$.@##.$&###$$$&&  ",
"==     @################.@@@@@@@@.&&&&&&  &@@@@@@@$@@@@@$@@@@@@@@@@#####$@@@@@@@@@@@@@@@@@@@@@##@.######@.@@@@$$###.######$     ",
"==*    .#####.##########.@@@@@@@@.    &&  &@@@@@@@$@@@@@$@@@@@@@@@@#####$$@@@@@@@@@@@@@@@@@@@$###########.@@@@$$###.######$     ",
"= *@   @@###..######.@##.@@@@@@@@@&  &&   &.@@@@@..$@@@$$@@@@@.@@@@$$$@@$$@@@@$$$@@@$$@@@@@@@$@@@########@@@@@$@###.@####$$$$$$$",
"***..............................&&&&&&&&&&.......$$$$$$$..........&$$$$$$@@@@$''''')&@@$$$$$$$$........!.$$$$$$....$$$$$$$$$$$$",
"****&&@&&&&@&&@#&&@#@&&#####&&$##$$####$$########@##@$@ &&  @$&&&&&##$$#$$$$$@$&&&&&)@@$$$$$@@$$@$@@$$&&&&&----&&############$##",
"   #@########################&##########&############$       $&=====#$#########@#####################$         -&############$##",
"    #########################&####&&&&#&&###########&$       $&======$###############################$  ---------#######$####$##",
"    #############&&&&&&&&&&&&&$&&&$&&&&&$&&#########$&       $&=====#$##########################$$$$$$ ---&&---&&#######$$###$##",
"&&&**&&&&&&&&&&&&&&&&&@  &-----$$$----$$@@$$$$$$$$$$$$$&&&&&$$&&&&&&&$$$###$$$$$$$$$$$$$$$$$$$$$$$$$$$ &&&== &&---$$$$$$$$$$$$$$",
"+#&&&&&##$$$$#  $$#####==$-->>>>>>>>>--=~=---#         ..$$$$$$&&&&$$$$$@@@$&@&$@@@@@@$@&&&@@@@@@@@#@ , @ == ;-  -%#############",
"===#&-@            &&&&&$$-------------------           .######@@######@######@@######@{{{&@#######&&&&&&&&&&&$  -@#############",
"====&&              &&&&&&  &&&&&&&&&$-------           .##############@######@#######@{{{&&&&&&&#&&&&&&&&&&&&$ --##############",
"====#&#            &&&      &&&& &&  $------.           .######&#######$##############&{{{&&####&##&&&##&&&&&&$---@#############",
"&&&&&&$$$$$$$$$$$$$$$$$$$$$$$&&&&&&&&$-------........$...$$&&&$$$$$&&$$$&&&&#@&&&&&&&&&&&&&$&&&&&&$$&&&&&&&&&&$---%%%%%%%%%%%%%%",
"&&&&&#&&&@@@@@@@$@@@@@@@$&&&&&&&&&$&&&&###&--&&    ##@#@@$$$$@$@$$$$$$$$&&&#&&&&&&&&  &&@&&&@&&&@@  &&###@&&====#--=------@@@  @",
" #      &@@@@@@@$&@@@  &&#   &    #  ##===#&        @####@#######$####@@%#       &&                  &####@======&-======       ",
"        &@@@@@@@$@@@$---&    -    #   ====-&       ####################@-        &&                  &####&======&=======       ",
"        @@@@@@@@@@@@$-  -    --  -&  &#===&&       ###################@@@@       &&                  &&###&======&=======-      ",
"&&&&&&&&@@@@@@@@@@@@$-    ---&&---&---&--&&&&      &$&###&&#&&&&&$####$@@@&&&&&&&&&&&&&&&&&&&&&&&&&&&&####&======& ======-      ",
"+&&&&&&&$$$$@&&&&&&&$&-&&&&&&&&&&&#  -&&&&&&@@@$$$$$$$$$$#@$$$$$$$$$$$$%%%&&&&&&&&&@&&&&&&@&&&&&@&&&&&&#&&&&----&&--------......",
"==&&       &#@&&@@@@@&$$@   $$@@@&&&-&&---&$#########    #@@@@@@@@###@&.@#####.-=====---=====-##    #$$$$$$*********@@@$$$@@$@@@",
"==&          &&&@@@@@@@      &####&##@#    $########$    @@@@@@@@@####&########---------------$$$    $    @&#######@$@@@@@@@@@@@",
"==&          &&@@@@@@&@     &&#######&&    &########&   $@@@@@@@@@####&########---------------$      $    $#########$@@@@@@@$@@@",
"&&&&&&&&&&&&&&&&@@@@&&@     &&#######&@    &$$#######   #@@@@@@@$.&&#&&@######@---------------$      $    $########*@@@@@@@@$@@@",
"&$$$$&&&&&&&&$&&&&&&&&&&&&&&$&&&&&&&&&&----&$$$$$$$$$&&$$.........$$$$$@.......---------------$$$$$$$$$$$$$*&&##&&&*$$$$$$@@$$$$",
"        $      $&$@@$$$$$$$$$&&&&&&&&&&&$$$$$&&$$@@@$$###@${{{{{{@######$$$@  @      @-----=---$$$$$$$$$$$$$****$$$$$$$$$$$$$$$$",
"        $      $$####&$      #&========&        $#########${{{{{{@######&$@           $      @#      #$    $        $,,&$   #   ",
" &&     $      &#####&$       &=======;&        $########&${{{{{{$#####&&&@           $      @$       $       &      ,,&&   &   ",
"&&&&  &&$&&&&&&$#####$$       $=======;&        $#########${{{{{{$####&&&&@   $      $$       $       $    &  &&     ,-&&   &&&&",
"$$$$$&$$$$$$$$$$$$&&$$$$$$$$$$$&&&&&& &&@  &&& $$$&&$$$&&$$$$$$$$$$$$$$$$$$$$$$$$$$$$$$$$$$$$$$$$$$$$$$$$$$$$#$$$$$$$&&&$$&$$$$$",
",,=. ===== $ == $$@@@@@@@.@@@@@$$$$$$@$@$$$$$$$$$$$$$$&&##&&&-- ####  &@#@@###$$#     ##$***###@**####@*$$$$###$$$$$$$$$$$$$$.@.",
",,,.=======$====$@#######.#########@######$@#########$    &       -    @#######$        $##############@$#######@######$$###$@##",
",,,.=======$====$########@&######&&#######$##########$   &&       -    @######$$        $##############@########@######&@###@###",
",,.$ =====$$====$@#######@&######&&#######$##########$   &&----- -&-  #$$#####$$        $##&###########*@#######$######$$@#@$@##",
"...........$$$$$$.........$&&&&&&&&&&&&&&&$#&&&&&&&&&$&&&&&&&&&&&*******$$$$$$$$$&&&&&&$$***&&&&&##&&&**$#$$$$$$$@$&&&&$$$$$$...",
"################@@@@@..$@@$$$$$$$$$$$&$$$$$&$$$$$$$$$$$@@$&===== ######@##########@@@$&&&&&#************$&&&&$$$$@@$$$$$$$$@@@@@",
"#################@@@@@@############@&###@#####&&@    @####@=====&####################&     #====*&=====  ===&&@@@@@@@$@@@@$@,>>>",
"#################.@@@@.#############&###&###&##&@    $####$=====&######&#############&     &====*-======-===&& &&&& &$###@$..@@@",
"########.########.@@@@$######&######&###&######&@    $####$-==--&#####&&###&#&#######&     #====*-=====--===&&      &#####$@@@@@",
"...................$$$.$&&&&&&&&&&&$&&&&&&&&&&&&$$$$$$$$$$$&&&&&&*&&*&&&&&&&&&&&&&&&*&&&&&&*&&&=*&------&&&&&       &$####@@@@@@",
"--------.---,-...---.---,-$&&&$&&@&$&&&@&&&&&@@&@@#@..$&&$@     $*#  #*$@@@$@$$$$@@#&@$&&&&******&&&&&&&&&&&&&&&&&&&&$$$$$$.....",
"~~~~~~~=->>>>---,>>,,>>>>-&@@@@    &     &@####&#####.          @*    *{{{{{{{@########&= ======    &&# #&& &&$@@@@@@@$$$$......",
"--~----------------------&&&@&&   &&     &&##&&&#####.          $*    *{{{{{{{{########&==-=========&&  ##   &           $      ",
"--------------------------&&@@&   &&   &&&&##&&&####..   &&     $*    *{{{{{{{&########-=-----------&&       $           $      ",
"-------------------------&&@@&&&& &&&&&&&&@#&&&&......&&&$$$$$$$$*    *&&&&&&&&$&&&&&##------=-=--==-&       $           $      ",
"-------------------------&&&&&&&&&&&&&&&&&$&&&$$.....$$$$$$$$$$$$$*****$$$$$$$$$$$&&$$$&&&&&&--------&&&&&&&&&$$$$$$$$$$$$......",
"&&&&.###@.$$$$$@@@@$$$$$$$$@@@$$###@$###$######$@        $$====== #   #  $&   $&====&#======.&;;;;&&&&&&&$#  $$#   $$    #$$$$  ",
"====#####.$########$######$#########@###########@        $$======$            $&====&=======.;,,,-&>>>>>&     $     #       $   ",
"====#####.#########$######$#########@####$######@        $$======$            $ ====&=======#-,,,-&>>>>>&     &             &   ",
"=== .####@########$$######$$$######$$$$#$$$$$$$$$$$$&&&$$$$$$$$$$$$$$$$$$$$$$$$&&--&&#=====#.;,,,;&>>>>>&#   $#     $           ",
"&&&&......$$$$$$$$$$$$$$$$$$$$$$$$$$$$$$$$$.@##.@###@.@#####..##...##@..$...$$.$$$$$$$$$......;;;;&&&&&&&$$$$$$$$$$$$$$$$$$$$$&&",
"....$@ @$$$@@ @@$&&&&@@@@@$@@@@@@@@@$     $@#########.################@        $       #.#####@###@..#####@&@@@    &$$$$$$$@$$@@",
"   .            @@###@@@@@@@@@@@@@@@@     $##########.#################        $       $@##########.#######&@@@    #@####@      ",
"   .      $$    $&###&$@@@@@@@@@@@@@@     $@####@###@.@###############.@       $       $@##########$######@&@@@    -#####$      ",
"   .     $$$    $&&&&&$@@$$@@$@@$$$$$$$$$$$........&&&&........................$$#$$$& $.@###@@###$.*#####@&&@&----&#####$&  &&&",
"....$$$$$$$$$$$$$&&&&&$$$$$$$$...$$$$$@@$$$   $$$               &&&&&   &&$$&&$$$$$$$......................&&&&&&&&&$$&&$$$$$$$$",
"$$$#$$ #$$@    @$$    $@@@$#####.@       @#   $ $                         @    $@###$###@@@@@@.#         $#     &$###&&&@$$@ @  ",
"        $@      $     $@@@.######@        @   $ $       &       &   &    &$    $####$###@@@@@@$          $      &$#######@@  $  ",
"        $@      $     $@@@.######@  &&&  &@     $      &&       &   &    &$    $####$###$@@@@@$          $&     &$#######@@  $$ ",
"   $    $$   &&$$$   $$$@$.$$$$$..@&&&&&&$$$$$$$$&&&&&&&&&&&&&&&&& &&&&&&&$$$$$$$&&$$@#@.@@@@.$# $$$$$$$$$&&&&&&&$&&&#&&&$$ $$$$",
"$$$$$$$$$&$$$$$&&&$$$&&&&&&....$$$$$$$$$$$$$$$$$$$$$$$&&@@&&&&&&&&&&&&&&&&&&&&&......#..$.....$$$$$$$&&&&&&&&&&&&&&&$$$$$$$$$$$$",
"@@@.&###&##&###&###########&@@$######$#     #$       @&              &        &.      .$###########$$======&        &$##########",
"@@@$#####################&&#@&$######$$      $       $&  &      &&&& & &&     &       .@############$======&-       -$##########",
"@@@$###########&&#&#&##&&&&#@&$######$#     &$       $&   &     & &&   &      &       $#############$======&        -$##########",
"@@@@&###&&&&&&&&&&&&&&&&&&&&&&$$$$$$$$$$&$&$$$$$$$$$$$&&&&&&&&&&&&&&&&&&     &&.      .$###$$######$$&&&&&&&&------ &$$$$$$$$$$$",
"....&&&&&&&&&&&&&&&&&&&&&&&&#&&$&&@#$#$#$$&&#&&&$@@@$@@$&&@&&@####&&&&&&&&&&...........$$$$$*@@*$@@@**&*@*&&#&&&&&&&&&&#&&$$$$$$",
",=&&============&&-====@-     #  @      #&     #           @      &-,,,,,        @####@.@      @######@####               &#    ",
",,&=============&&-====@@        &       &     &            &     &-,,,,,,       ######@       @##########&      &        &     ",
",,&=======&=====&&-====@@     &  &       &     &           $&     &-,,,,,-       ######*       *######&###&      & &      &.    ",
"&&&&&&&&&&&&&&&&&&--@@@-&&&&&&&&&&$$$$$$$&&&&&&&$$&$$$$$@$&$&&&&&&&-------.     #@#####*       **###@*****&&&&&&&&&&&&&&&&&.....",
"#&&&&&##$$$$#  $$#####==$-->>>>>>>>>--=~=---#         ..$$$$$$&&&&$$$$$@@@$&@&$@@@@@@$@&&&@@@@@@@@#@ , @ == ;-  -%##############",
"==#&-@            &&&&&$$-------------------           .######@@######@######@@######@{{{&@#######&&&&&&&&&&&$  -@##############",
"===&&              &&&&&&  &&&&&&&&&$-------           .##############@######@#######@{{{&&&&&&&#&&&&&&&&&&&&$ --###############",
"===#&#            &&&      &&&& &&  $------.           .######&#######$##############&{{{&&####&##&&&##&&&&&&$---@##############",
"&&&&&$$$$$$$$$$$$$$$$$$$$$$$&&&&&&&&$-------........$...$$&&&$$$$$&&$$$&&&&#@&&&&&&&&&&&&&$&&&&&&$$&&&&&&&&&&$---%%%%%%%%%%%%%%%",
"&&&&#&&&@@@@@@@$@@@@@@@$&&&&&&&&&$&&&&###&--&&    ##@#@@$$$$@$@$$$$$$$$&&&#&&&&&&&&  &&@&&&@&&&@@  &&###@&&====#--=------@@@   @",
"#      &@@@@@@@$&@@@  &&#   &    #  ##===#&        @####@#######$####@@%#       &&                  &####@======&-======        ",
"       &@@@@@@@$@@@$---&    -    #   ====-&       ####################@-        &&                  &####&======&=======        ",
"       @@@@@@@@@@@@$-  -    --  -&  &#===&&       ###################@@@@       &&                  &&###&======&=======-       ",
"&&&&&&&@@@@@@@@@@@@$-    ---&&---&---&--&&&&      &$&###&&#&&&&&$####$@@@&&&&&&&&&&&&&&&&&&&&&&&&&&&&####&======& ======-       ",
"&&&&&&&$$$$@&&&&&&&$&-&&&&&&&&&&&#  -&&&&&&@@@$$$$$$$$$$#@$$$$$$$$$$$$%%%&&&&&&&&&@&&&&&&@&&&&&@&&&&&&#&&&&----&&--------.......",
"=&&       &#@&&@@@@@&$$@   $$@@@&&&-&&---&$#########    #@@@@@@@@###@&.@#####.-=====---=====-##    #$$$$$$*********@@@$$$@@$@@@@",
"=&          &&&@@@@@@@      &####&##@#    $########$    @@@@@@@@@####&########---------------$$$    $    @&#######@$@@@@@@@@@@@@",
"=&          &&@@@@@@&@     &&#######&&    &########&   $@@@@@@@@@####&########---------------$      $    $#########$@@@@@@@$@@@@",
"&&&&&&&&&&&&&&&@@@@&&@     &&#######&@    &$$#######   #@@@@@@@$.&&#&&@######@---------------$      $    $########*@@@@@@@@$@@@@",
"$$$$&&&&&&&&$&&&&&&&&&&&&&&$&&&&&&&&&&----&$$$$$$$$$&&$$.........$$$$$@.......---------------$$$$$$$$$$$$$*&&##&&&*$$$$$$@@$$$$$",
"       $      $&$@@$$$$$$$$$&&&&&&&&&&&$$$$$&&$$@@@$$###@${{{{{{@######$$$@  @      @-----=---$$$$$$$$$$$$$****$$$$$$$$$$$$$$$$$",
"       $      $$####&$      #&========&        $#########${{{{{{@######&$@           $      @#      #$    $        $,,&$   #    ",
"&&     $      &#####&$       &=======;&        $########&${{{{{{$#####&&&@           $      @$       $       &      ,,&&   &    ",
"&&&  &&$&&&&&&$#####$$       $=======;&        $#########${{{{{{$####&&&&@   $      $$       $       $    &  &&     ,-&&   &&&&&",
"$$$$&$$$$$$$$$$$$&&$$$$$$$$$$$&&&&&& &&@  &&& $$$&&$$$&&$$$$$$$$$$$$$$$$$$$$$$$$$$$$$$$$$$$$$$$$$$$$$$$$$$$$#$$$$$$$&&&$$&$$$$$$",
",=. ===== $ == $$@@@@@@@.@@@@@$$$$$$@$@$$$$$$$$$$$$$$&&##&&&-- ####  &@#@@###$$#     ##$***###@**####@*$$$$###$$$$$$$$$$$$$$.@@.",
",,.=======$====$@#######.#########@######$@#########$    &       -    @#######$        $##############@$#######@######$$###$@###",
",,.=======$====$########@&######&&#######$##########$   &&       -    @######$$        $##############@########@######&@###@####",
",.$ =====$$====$@#######@&######&&#######$##########$   &&----- -&-  #$$#####$$        $##&###########*@#######$######$$@#@$@###",
"..........$$$$$$.........$&&&&&&&&&&&&&&&$#&&&&&&&&&$&&&&&&&&&&&*******$$$$$$$$$&&&&&&$$***&&&&&##&&&**$#$$$$$$$@$&&&&$$$$$$....",
"###############@@@@@..$@@$$$$$$$$$$$&$$$$$&$$$$$$$$$$$@@$&===== ######@##########@@@$&&&&&#************$&&&&$$$$@@$$$$$$$$@@@@@@",
"################@@@@@@############@&###@#####&&@    @####@=====&####################&     #====*&=====  ===&&@@@@@@@$@@@@$@,>>>>",
"################.@@@@.#############&###&###&##&@    $####$=====&######&#############&     &====*-======-===&& &&&& &$###@$..@@@@",
"#######.########.@@@@$######&######&###&######&@    $####$-==--&#####&&###&#&#######&     #====*-=====--===&&      &#####$@@@@@@",
"..................$$$.$&&&&&&&&&&&$&&&&&&&&&&&&$$$$$$$$$$$&&&&&&*&&*&&&&&&&&&&&&&&&*&&&&&&*&&&=*&------&&&&&       &$####@@@@@@@",
"-------.---,-...---.---,-$&&&$&&@&$&&&@&&&&&@@&@@#@..$&&$@     $*#  #*$@@@$@$$$$@@#&@$&&&&******&&&&&&&&&&&&&&&&&&&&$$$$$$......",
"~~~~~~=->>>>---,>>,,>>>>-&@@@@    &     &@####&#####.          @*    *{{{{{{{@########&= ======    &&# #&& &&$@@@@@@@$$$$.......",
"-~----------------------&&&@&&   &&     &&##&&&#####.          $*    *{{{{{{{{########&==-=========&&  ##   &           $       ",
"-------------------------&&@@&   &&   &&&&##&&&####..   &&     $*    *{{{{{{{&########-=-----------&&       $           $       ",
"------------------------&&@@&&&& &&&&&&&&@#&&&&......&&&$$$$$$$$*    *&&&&&&&&$&&&&&##------=-=--==-&       $           $       ",
"------------------------&&&&&&&&&&&&&&&&&$&&&$$.....$$$$$$$$$$$$$*****$$$$$$$$$$$&&$$$&&&&&&--------&&&&&&&&&$$$$$$$$$$$$.......",
"&&&.###@.$$$$$@@@@$$$$$$$$@@@$$###@$###$######$@        $$====== #   #  $&   $&====&#======.&;;;;&&&&&&&$#  $$#   $$    #$$$$   ",
"===#####.$########$######$#########@###########@        $$======$            $&====&=======.;,,,-&>>>>>&     $     #       $    ",
"===#####.#########$######$#########@####$######@        $$======$            $ ====&=======#-,,,-&>>>>>&     &             &    ",
"== .####@########$$######$$$######$$$$#$$$$$$$$$$$$&&&$$$$$$$$$$$$$$$$$$$$$$$$&&--&&#=====#.;,,,;&>>>>>&#   $#     $            ",
"&&&......$$$$$$$$$$$$$$$$$$$$$$$$$$$$$$$$$.@##.@###@.@#####..##...##@..$...$$.$$$$$$$$$......;;;;&&&&&&&$$$$$$$$$$$$$$$$$$$$$&&&",
"...$@ @$$$@@ @@$&&&&@@@@@$@@@@@@@@@$     $@#########.################@        $       #.#####@###@..#####@&@@@    &$$$$$$$@$$@@@",
"  .            @@###@@@@@@@@@@@@@@@@     $##########.#################        $       $@##########.#######&@@@    #@####@       ",
"  .      $$    $&###&$@@@@@@@@@@@@@@     $@####@###@.@###############.@       $       $@##########$######@&@@@    -#####$       ",
"  .     $$$    $&&&&&$@@$$@@$@@$$$$$$$$$$$........&&&&........................$$#$$$& $.@###@@###$.*#####@&&@&----&#####$&  &&&&"};