/* XPM */
static char *c57da75923ee433fa95c7a1448948daejX5priInfQTeAogu[] = {
/* columns rows colors chars-per-pixel */
"64 64 208 2 ",
"   c #020608",
".  c #050A0B",
"X  c #0A0C0D",
"o  c #020405",
"O  c #0B0E11",
"+  c #0D1214",
"@  c #0D1419",
"#  c #121515",
"$  c #121619",
"%  c #141A1B",
"&  c #1B1D1C",
"*  c #141814",
"=  c #1D201D",
"-  c #22241F",
";  c #1B1E21",
":  c #141D22",
">  c #1C2324",
",  c #1D252A",
"<  c #1C282A",
"1  c #162124",
"2  c #1E2A33",
"3  c #222423",
"4  c #2A2C27",
"5  c #22262A",
"6  c #242B2C",
"7  c #2A2D2C",
"8  c #242925",
"9  c #2E312D",
"0  c #23302E",
"q  c #31322E",
"w  c #252D32",
"e  c #2B2F33",
"r  c #253235",
"t  c #2C3334",
"y  c #2E3936",
"u  c #24353B",
"i  c #2C353A",
"p  c #2D3A3B",
"a  c #323434",
"s  c #353A36",
"d  c #3A3936",
"f  c #323539",
"g  c #333B3C",
"h  c #3B3D3C",
"j  c #3B3637",
"k  c #30282C",
"l  c #36403E",
"z  c #3C413E",
"x  c #2C3B42",
"c  c #283544",
"v  c #343D42",
"b  c #3B3D42",
"n  c #473F42",
"m  c #2F4045",
"M  c #354243",
"N  c #3C4344",
"B  c #3E4945",
"V  c #35434B",
"C  c #3C454A",
"Z  c #3D4A4B",
"A  c #374C4C",
"S  c #3C4B51",
"D  c #3E5152",
"F  c #3D514C",
"G  c #424444",
"H  c #4A4544",
"J  c #434A46",
"K  c #484B45",
"L  c #42464A",
"P  c #4C4748",
"I  c #444B4B",
"U  c #4A4D4C",
"Y  c #524E4D",
"T  c #45514D",
"R  c #4B524D",
"E  c #52524D",
"W  c #5A554E",
"Q  c #444D52",
"!  c #4A4E52",
"~  c #455253",
"^  c #4B5453",
"/  c #4D5955",
"(  c #47555A",
")  c #4C5659",
"_  c #455859",
"`  c #4D5B5B",
"'  c #535554",
"]  c #5B5554",
"[  c #535A56",
"{  c #5C5A56",
"}  c #52565A",
"|  c #5B5659",
" . c #535C5B",
".. c #5B5D5B",
"X. c #635C5B",
"o. c #4C605D",
"O. c #596057",
"+. c #54615D",
"@. c #5B625E",
"#. c #5C695E",
"$. c #64625D",
"%. c #6A645E",
"&. c #62685E",
"*. c #4D5C61",
"=. c #545E61",
"-. c #5A5E61",
";. c #645E61",
":. c #4F6262",
">. c #556263",
",. c #5B6463",
"<. c #5D6965",
"1. c #566469",
"2. c #5B656A",
"3. c #5D6B6B",
"4. c #566A68",
"5. c #5B726B",
"6. c #5D6C71",
"7. c #5E7274",
"8. c #626563",
"9. c #6A6663",
"0. c #636B65",
"q. c #6B6A65",
"w. c #626669",
"e. c #636C6B",
"r. c #6B6D6B",
"t. c #6D6769",
"y. c #716A65",
"u. c #736D6A",
"i. c #796E67",
"p. c #637166",
"a. c #64726D",
"s. c #6B726C",
"d. c #6C756B",
"f. c #74736E",
"g. c #7A736E",
"h. c #7D786F",
"j. c #646E71",
"k. c #6B6F72",
"l. c #647373",
"z. c #6B7473",
"x. c #6C7974",
"c. c #647579",
"v. c #69767A",
"b. c #6D7B7B",
"n. c #657875",
"m. c #747473",
"M. c #7B7672",
"N. c #727A74",
"B. c #7D7A75",
"V. c #727678",
"C. c #737C7C",
"Z. c #7E7A79",
"A. c #78777A",
"S. c #766F73",
"D. c #837B75",
"F. c #837D79",
"G. c #897F7C",
"H. c #817773",
"J. c #75817E",
"K. c #7C847D",
"L. c #6C807B",
"P. c #85817B",
"I. c #8A837D",
"U. c #737E81",
"Y. c #6F7C83",
"T. c #8A7F80",
"R. c #6E8081",
"E. c #758482",
"W. c #7A8583",
"Q. c #7C8B8A",
"!. c #7A898A",
"~. c #7E9391",
"^. c #7E918D",
"/. c #858181",
"(. c #8B8582",
"). c #8D8984",
"_. c #828B8B",
"`. c #868888",
"'. c #928B85",
"]. c #948E8A",
"[. c #968B88",
"{. c #96918B",
"}. c #9B948D",
"|. c #9C998E",
" X c #969087",
".X c #869295",
"XX c #9B9592",
"oX c #9D9A95",
"OX c #9A9795",
"+X c #8C908C",
"@X c #A1998F",
"#X c #A19793",
"$X c #A29C94",
"%X c #A49D9A",
"&X c #A89C9B",
"*X c #A5A09C",
"=X c #ABA39E",
"-X c #ADA89E",
";X c #ABA5A2",
":X c #ADAAA5",
">X c #A7A4A3",
",X c #B3ACA5",
"<X c #B4ADA9",
"1X c #B7B1AD",
"2X c #BAB6B4",
"3X c #BAB7B3",
"4X c #C6BBB7",
"5X c #CBC4BC",
/* pixels */
"OX(.'.[.g.).[.g.9.9.M.F.u.%.9.H P ' ;.W j ; 7 R ,.[ ^  . .} ! G ^ b ^ Q L J [ | R [ J Y 8.$.X.X.%.W D.I.'.g.%.M.G.%Xt.u.;X%X,X<X",
" XG.[.'.%.[.OXT.t.B.g.(.{ t.f.{ Y | U a k f T ,.' ) ^ U J U M h L g N / L I ! [ [ [ $.U E { $.%.{ %.y. X).I.q.h. X&X].P.}.#X<X:X",
"I.D.'.M.X.(. Xq.9.h.h.f.$.F.t.X.| | n 8 g  .>.` ^ ,.J d B T J l B G U ` ) U ) ) T  .+.R K Y X.9.%.%.%.I. XI.%.i. X,X#Xg.I.XX:X:X",
"I.].$X'.G.;X'.I.g.f.i.E m.A.X.] { ' e t b /  .` L v J T  .,.z y g s | >.U ) ' Q N T +./ ..U { q.F.%.g.h.@XI.H.H.).&XoXG.I.|.OX;X",
"=X@X XB.y.*X].f.Z.M.X.X.F.M.] U ' 8 e U R  .+.L L L ' @.} /  .L ^ ^ =.} ' ..R ^ ) I L T 8.' ] $.y.P.g.P.g.(.@Xh.I.oX4X X'.$X=X,X",
"-X|.|.g.|.*X].g.F.F.X.M.`.u.W E L b } [ ,.1.T C I +./  .R  .`  . .' U ^ )  .) ' [ ^ U Q +.,.=...$.P.H.h.I.*X1X XP.oX:XI.H.@X$X1X",
"3X|.$Xy.h.I.y.K.).F.] M.M.] X.h g  ./  .I ^ M ) 4.<./ / +.T ^ +.@.U K  .,.-...@.+. .) Z ) <.@.[ $.u.I.G.H.@X,X@XP.I.*X@XI.-X-X,X",
"3X$XI.I.}.I.P.)./.M.i.;.' | ] h g [ ' b C T ! -.` ^ /  . .^ J / J U I ! <. ./ e.[  .! / ~ ^ 0. .] f.G.G.g.I.,X,XI.I. XK.%.P.{.,X",
"<X*XoXZ.OXf./.[./.m.B.9.] X.G N l / K b ^ K ) ^ ^ [ )  .^ [ R y 9 G  ./  . .8.>.` >. ...) Q ! ,.,.X.D.D.F.).oX<X*Xh.[.:X`.'.>X:X",
"3X).f.).XXF.F.).F.M.M.t.] P J L `  .I B ^ ^ ^  .a.l.>.=. .J s = * d .. .+.@.e.<.<. .2.-.-.3.Q ,.l.<.u.[.P.].{.;X,XP. X|.M.).$X>X",
"3X|.I.*XXXX.(.I.M.m.u.] ] N F ~ T ! ! T ~  .I  .,. .e. .I B 4 8 d q U .. . .R ! 3...8.<.1.) ^ ^ 4.e.} I.{.{.].oX5X Xh.:X{.P.D.).",
">X{.D.].`.t.).B.M.B.t.' P b ~ / I Z ^ ^ =.>.) ,.J d J  .N d = 9  .z L | R ' 3 q  .+.=.z.e. .) :.` z.} X.{.{.#XOX1X1Xh.*X*XI.=XI.",
">XP.).:XP.G.u.] G.m.] H h h  .^ B +.`  .,.}  .+.q - 9 [ K 4 4 ^ @.I G r.' 7 - 3 H 8./ s.e.j.>.<.w.2.` Z B.).XXoXG.,X'.'.I.h.<X'.",
"%Xf.M.`.q././.8.X.9.] d N I T T >.>.` +.[ ,.<.L 4 G J s T q 4 9 z.3 z ..G 3 s z y 8.a.d.s.e.n.a.+.,.>.+.] (.{.G.I.4X}.D.*XB.OX*X",
"oXm.9.i.B.].g.$.{ 8.H B B ^ ^ o.+.4.3.<.` ,...s 4 ,.f h O.z a b U e K ..B d ^  .z  .+.z.,.0.,.^ ,./ ` 2. .g.'.I.&X<X,XI.{. XOX*X",
"oX9.(.].t.I.B.g.X.' h T I B B R +.,.,.+.<. .U h 3 ,.7 h @.U z ' r.I h #.R 8 K N a d. .>.] %.8./ ,. .,.<.,. .I.=X&X&X,XI.{.D.).oX",
").] /.H.).].M.u.%.E N ~ ~ / `  .@.,.} -.8.[  .R K ` C U @.s h h ) a t R s a @.' h U  .e...a.p.R >.<.=...) =.q.#X&X#X<X).>X#XH.#X",
"'.Y G.M.).m.u.;.X.z Z I Z / [ +.[ ,. .[ +.[ R U K > t U @.G s t U j d @.9 5 .. .& ! 0.0.8.a.q.8.,.,. .@.` =.[ ).#X$X&X#XXX{.G.{.",
"I.9.}.g.F.f.t.u.K z N L I ^ ` +. .,.<.e.,.,.J J g f d K R J K T >.! U d.q 7 n z 7 U e.e.e.9.0.0.<.a.,...j. .<.t.#X|.#X{.I.XXu.[.",
"'.u.(.F.B.$.$.n g R ~ N R ' R +.,.#.,.<.,.<.a.R N g T +.N.[ z a ^ M z r.s h / / L ' r. .8.0.q.<.@.{ [ +./  .e.8.I.).{.XXD.<XB.OX",
"B.t.9.$.{ H E a B / ^ / R U / +.[ [ @.[ ..' ,.E v r t R x.@.n G ] g G z.H t ^ ~ g [ ,...0.&...{ X.$.$.@...w.-.-.Z.{.H.I.G.&X].M.",
"m.P./.y.%.] X.h z L `  ...,.e.4.@.#.0.3.@.[ @.R N v i ^ J.0.d M R t G N.U f K Z t ' e.r.8.d.q.%.&.f.d.8.e.8.<.} V.#X[.'.'.I.H.g.",
"`.D.(.y.] X.H h ) C ` +...8.j.<.@.a.a.p.<.<.&.R J N A ' K.N.G M ' N L m.R f T ^ a [ w.j...k.s.q.&.d.&...0.,...<.;.A.OX).u. Xh.F.",
"f.B.B.f.] Y H L Q I U R [ >.>.0.0.a.&.0.0.,.O.R R g D { K.x.g i ^ f g d.U e ^  .f J o.3.,.e.8.@.#.%.9.&.....] =.w.k.B.m.F.'.u.9.",
"m.u.%.q.9.X.j J I ! U  .,.,.0.8.0.8.#.8.8.>.8.J g V p L K.s.h t [ g M Z.U f ^ I t K  .&.a.s.d.d.0.d.q.d.e.8. .+...| ).XXG.B.g.B.",
").}.D.f.9.H z z J / / ,.,. .+.e.8.O. .3.2.} d...y i r T `.K.J p [ g C N.J 3 I ! e ) R a.<.r.a.8.X.%.d.f.q.8.<. .} ,.H.%X%XF.].|.",
"y.i.f.f.] j L L h K R [ +.>.,.0.p.a.e.z.l.<.@.O.z g f ! x.r.K L [ G Y z.L 4 ^ ^ r ^ ! V.} e.r.r.d.p.x.q.q.q.0.8.=.-.;.(.[.f.I.y.",
"$.X.H X.n a T L U | [ O.e.@.>.@.+.a.8.e.d.0.T T ' R / ^ ^ ^ ^ ! / &.{  . .[ [ [ O.^ K d.9.m.s.C.f.N.f.d.q.q.0.0.<. .[ 9.{.F.B.9.",
"u.X.X.X.j a B J ^ ,.+...@...$.{ @.e.0.s.x.e.[ <.,.4.<.,.<. . .>.3.j.e.<.2.8.+.e.<.+.' $.{ s.d.q.$.$.8.q.$.%.%.$.-.! ,.t.(.(.g.D.",
"B.;.] ] h b Z h T [ 4.| U [ [ [ ..' 0.z.a. .o.<.@.<...,.<. .#.<.0.l.z.>.,.,.8.d.a.e.@.k.0.q.a.0.$.{ { q.X.q.d.@.,.w.e.| (.D.S.H.",
"B.F.X.n f ! b ! +.-...O.,.@.#.<.@...r.0.0.[ +.3.8.<.e.n.b.#.0.x.d.x.0.O.q.@.d.a.e.8.#.x.x.f.d.d.q.d.q.0.d.8.u.f.8.-.8.9.i.(.X.;.",
"%.(.Z.X.a I I ) >.@.,.,.+.[ ..&.<.<.w.n.d.$.<.s.e.r.b.n.Y.l.3.p.d.3.n.e.2.z.l.e.r.e. .q.d.9.8.%.q.%.%.$.%.9.X.0.8.8. .w.t.).I.i.",
"%.M.X.n 9 s J +. .,.>./ ' +.[ [ @.8.,.e.8.,.+.#.Y ! | <.e.a.,.e.e.v.v.l.a.a.a.z.d.b.e.a.r.8.d.8.$.9.0.0.0.s.8.e.e.<./ -.(./.%XT.",
"i.X.;.k M L J ^ +.>.>.<.,.,.,.+.+.3.e.a.e.e.b.b.j.z.z.e.n.m.a.<.e.z.l.z.n.x.C.v.z.z.z.3.J.b.x.&.d.x.x.f.s.d.0.%.w.>.1.>.-.T.>X/.",
";.' X.z M Z ~ ` +.+.<.3.8.<.3.q.0.0.p.0.>.[ @.,.k.z.x.z.x.d.8.a.r.k.z.x.k.k.b.v.j.,.R [ @.N.f.d.d.d.q.f.y.f.q.%.e. .,. .w.A.OXS.",
";.u.h a I N ^ @. .<.<.<.0.,.#.8.8.<.[ / ` N I ` >.m.x.a.a.r.z.3.8.w.e.0.,.8.,.2.U J [ / ~  .&.8.0.@.{ 8.0.O.$.&.@.[  .! -.k.u.;.",
"S.u.U f p L / +. .@.8.<.8.<.@.,.0.[ ' R ' ! ! ^ / e.m.x.J.d.n.N.V.C.E.x.x.N.x.' J I ` +.J z R r.N.f.q.s.d.q.%.&.[ ..w. .2.A.;.S.",
"t.t.G f B T ^ +.[ { @.e.8.e.8.0.0. .Z ` [  .=.~ L  .b.b.x.x.b.C.C.z.s.m.L.m.,.R J I ` +.R ^ I <.m.d.r.m.d.8.q.a.X.,.@. .!  .] u.",
"u.8.L b ~ ` [ ,.+./ <.,.<.+.8.8.,.^ F 3.) 3.} =.B ` 3.x.x.C.W.C.W.W.C.z.C.z.,.) Q  .^ ! ^ ^ +. .d.a.a.p.e.r.&.8.,.<.,.-.) @.t.t.",
"r.' L b K I  .+.o.O.0./ <.5.5.r.' G b  . .4.-.I N ` <.d.V.U.V.j.j.r.m.V.C.m. .~ n h Z ' 4.^ R ^ 8.r.d.m.s.,.,.8.8.2.<.-.=.3.m.k.",
";.G a b ! I `  .<.+.^ L +.a.8.e. .L L ^ +.5.+.+.` ` J.C.E.z.w.3.l.w.8.C.s.m.+.T M J ~ I +.I z R e.m.C.3. .^ @.w.q.,.e.>.,.-.-.-.",
"w.Y v ~ / U ^ @. .) / ~ Q ' e.z.,.~ ` ^ ` _ `  .I [ C.J.C.e.z.l.3.C.k.e.W.a.,.L f  .3. .>.^ T  .e.z.@.>.^ ^ ' R 0.<.8.,.-. .2.-.",
";.h e ! o.~ >.+./  .>.) 1.1.+.w.-.! ! ^ =.' >.,.) 3.E.E.v.v.j.>.3.1.j.k.e.J.+.^ K } 2.*.1.! I 3.V.,. .` ~ ( 6.1.>.3.<.e.e.~ 2.8.",
"^ g v ^ ^ ,.` `  .~ ~ Z 3.,.,.,.8.) ) ) w. . .^  .V.z.j.j.Q 1.) ~ 3.( j.l.e.b.` ` >.=. .^ | T 6.a.' U Q ^ ( _ l.1.-.>.e.2.,.1.-.",
"` I g ) o.` >./ L N M 7  .,.~ =.j.4.=.~  .` *. .a.z.>.l.` L C ; @ M ,.4.E.z.e.Y.3.` / ^ Q )  .z.,.=.b ~ r L ^ ` 3.>.) ,.,.=.) I ",
"} b f I L ~ D T g M 6 O : ^ 6. .>.e.4.` ^ ( 1.l.E.3.l.` ~ i + > 5 : v 4.2.Y.v.v.z.3.I ~ 1.=.w.>.1.Z v w . % g ) *.3.*.^  .^ )  .",
"b e M ~ C I ~ M f ; $ % ; > =.*.,.3.z.l.z.v.l.U.>.w.4.1.i O > w r g r M 4.7.v.3.U.C.Y.l.a.J.w.=.L Q 2 X & O O p ) ) } I  .-.=.1.",
"b a N Q L ) M A 7 $ & 6 f 6 t 2.1.4.3.b.b.b.b.l.3.k.*.Q # @ 6 t M N M t ~ l.c.b.l.E.E.b.E.n.<.=.C 5 X & 5 t > % g ) z.2.~ =.^ ^ ",
"C Z Z L I ! g ; # & 3 e 3 L $ Z >.2.6.n.b.V.b.2.=.Q =.%   > < < 0 5 N p u 1.6.c.,.V.E.z.U.4.2.) M O # 6 X f & + 6 >.6.3.>.) ! N ",
"L Z C Z ! v p X & * 6 g 6 z > 1 *.1.6.l.l.n.6.2.=.Q M . X y = 9 p t [ i u M 1.6.v.1.b.z.x.>.1.( 5 o 3 6 t L L % & v =.=.1.` ! Q ",
"L Z ) L g M O X 7 t / 3. .N y . v ~ 3.2.j.Y.1.7.` ~ + . + v N !  .^ _ v : N Z 3.v.7.c.7.l.2. .p O   6 t M W. .v v : C z.c.6.1.,.",
"h Q } f g e o > M L M Q M ` M : , ( >.~ Q Q =.*.*.t O # w ` p v M p _ Q : Z A *.c.j.=.~ Z ,._ > . > I g L 1. .^ ) g i 3.1.6.2.( ",
"e g Q p M # & B >  .e.>.!.t B d.1 C +.! A ` >.` D : @ t K 5  .l.v.W.g Z  .p ~ A 6.l.( ~ Q *.S $ $ L > ; s.e.C.@.> J v D 2.1.) G ",
"p i L t < X s ; , t z.a. .& > >.g v 6.3.~ 1.7.:.r + t / + O M v.z.1.: @  .S :.y 1.v.2.C =.6.e O y L ; @ b 4.b.i , ; R y >.j.g ~ ",
"l g ^ M # > h ; v Z 3.Q.l Z u J  .Q v.c.` 3.7.( 1 > B T i S M e.b.A V x [ +.1.p ` j.j.v ) Z ; 3 l l ! v t _.j.V ~ M d g Q j.Q Z ",
"f f M p # s 7 N L ) ^  .g F _ 0 ~ ) Q =.4. .` Q @ g ` g ~ 4.S n.+.D D 7.g T 3.v Z 2.Y.^ e.` % g N r Z M , e.Q N ~ I h L V >.L K ",
"p y J % O h ; n ) i M k., M T < R T ` b.E.n.b w # ~ ` 5 Q :.x  .!.2 S _ x e.>. .M 3.!._.w.C * a e i L C 6 L i n ! U g K i 1.e.L ",
"M z M + % t 5 b n e h >.i b h t z T o.l.~.>.>.w % g M f ! K C V  .L ! ) C } ^ L g ` ~..X} t > g g e h b e ) b i N L b R g S  .L ",
"t B f + z [ N L L I C J B ~ T B ^ a.b L Q.3.Z O M e.) v ~ ` ~ :._ _ :.:.` ^ 3.C.C ,.Q.V.=.t 3  .~ L *.Z v =.Q v ` } P a.>.y R C ",
"s M & > R +.L v ^ v C ^ M ~ Z M  .e.L ! Q.3.` > B ,. .v Q ( V >.Q ~ _ *.(  .3.z.` ! Q.Q.n.g 5 ^ C v L S v =.=.( S g b z.0.g ! Q ",
"B B = 6 ^ O.K Z Q v Q ` x ~ I M  .p.J ^ x.,.>.% ! <.+.l Q m c o.~ x S ` ~ ` e.b.+.N z..X7.N w +.^ e M V w ! C v x r l p.s.M L Z ",
"h N t a ^ #.K Z L C Z I m Z / I ,.e. .! j.,.L X ` 1.<.N Z M m #.` p A ~ M / V.J./ A 2..Xj.M f  ./ N I Z x ' C V ~ N R d.a.<.F l ",
"y M i p / N.! f C V Z ! u M D / C.z.` g | ) y X  .n.a.l p F V 3.( u x F M ` V.J.+.M ) e.! i g e.2.v C x 2 ) C c Z p J _.z.3.p b ",
"M t 8 g  .m.L C *.S ` 1.v ~ 4.` C.W.2.v ^ Q 7 # +.5.a.M M ~ Z <.1.V A ~ Z e.Q.J.>.p Q =.S i ^ C.C.) ,.) =.V.j. .` L R W._.e., f "
};
