/* XPM */
static char *_19960b4e18c4aa6e31720a3e0ccc396dsa9V7NfxeLrpdWM[] = {
/* columns rows colors chars-per-pixel */
"64 64 176 2 ",
"   c #1E1D1A",
".  c #232524",
"X  c #2D2926",
"o  c #252729",
"O  c #2D2C2B",
"+  c #31292A",
"@  c #32322F",
"#  c #2B2F31",
"$  c #302E31",
"%  c #2D3133",
"&  c #2F3937",
"*  c #2E3739",
"=  c #2D393C",
"-  c #343434",
";  c #393635",
":  c #363935",
">  c #3A3A36",
",  c #333538",
"<  c #3A3539",
"1  c #343B3B",
"2  c #3B3C3B",
"3  c #413D3B",
"4  c #36413D",
"5  c #3D413D",
"6  c #43423D",
"7  c #343D42",
"8  c #3A3E42",
"9  c #413F42",
"0  c #364040",
"q  c #3C4343",
"w  c #3C4846",
"e  c #3D4648",
"r  c #3E4B4B",
"t  c #3F4C50",
"y  c #444543",
"u  c #4A4744",
"i  c #444946",
"p  c #4B4A46",
"a  c #424749",
"s  c #4E474C",
"d  c #434B4B",
"f  c #4C4D4B",
"g  c #524746",
"h  c #514947",
"j  c #524D4B",
"k  c #584F4F",
"l  c #45514E",
"z  c #4D514D",
"x  c #52524E",
"c  c #5A524E",
"v  c #5B584F",
"b  c #444E51",
"n  c #4A4E52",
"m  c #524E51",
"M  c #465152",
"N  c #4B5453",
"B  c #4D5956",
"V  c #4E5759",
"C  c #4E5A5A",
"Z  c #545552",
"A  c #5A5553",
"S  c #555954",
"D  c #5B5B56",
"F  c #54565A",
"G  c #5B5758",
"H  c #535B5B",
"J  c #5C5D5A",
"K  c #615A56",
"L  c #625D5A",
"P  c #685E5B",
"I  c #55615B",
"U  c #5E615B",
"Y  c #636155",
"T  c #62635D",
"R  c #6A645E",
"E  c #66695F",
"W  c #69685F",
"Q  c #70635F",
"!  c #4F5F61",
"~  c #545D62",
"^  c #585F61",
"/  c #655F61",
"(  c #6A5F62",
")  c #566263",
"_  c #5B6364",
"`  c #5E6A65",
"'  c #5C656A",
"]  c #5E686A",
"[  c #656561",
"{  c #6B6563",
"}  c #666963",
"|  c #6A6A65",
" . c #636569",
".. c #6A6768",
"X. c #636B6B",
"o. c #6D6D69",
"O. c #716763",
"+. c #726B66",
"@. c #706768",
"#. c #736D6A",
"$. c #786F6D",
"%. c #6E706A",
"&. c #757167",
"*. c #73726D",
"=. c #7A736D",
"-. c #7B796E",
";. c #6C6E70",
":. c #746F72",
">. c #697574",
",. c #757571",
"<. c #7B7572",
"1. c #767972",
"2. c #7C7A75",
"3. c #7D7679",
"4. c #7D7B7A",
"5. c #817674",
"6. c #827B75",
"7. c #837D7A",
"8. c #897E7B",
"9. c #7F807A",
"0. c #858177",
"q. c #85817C",
"w. c #8A837D",
"e. c #8B887F",
"r. c #90827F",
"t. c #807D80",
"y. c #868381",
"u. c #8C8582",
"i. c #878985",
"p. c #8D8985",
"a. c #8D8789",
"s. c #8D8B89",
"d. c #918783",
"f. c #928B85",
"g. c #988F87",
"h. c #948D8A",
"j. c #998F8A",
"k. c #999086",
"l. c #95918B",
"z. c #99958E",
"x. c #9A938D",
"c. c #9C988E",
"v. c #969291",
"b. c #9D9591",
"n. c #9C9592",
"m. c #9D9A94",
"M. c #9F9B9B",
"N. c #A1988E",
"B. c #A3958D",
"V. c #A29691",
"C. c #A19B97",
"Z. c #A29C95",
"A. c #A39D9A",
"S. c #A89F99",
"D. c #A4A196",
"F. c #A5A29C",
"G. c #ABA19E",
"H. c #AAA49D",
"J. c #AB9FA1",
"K. c #A4A2A3",
"L. c #ACA7A0",
"P. c #ACA5A2",
"I. c #AEA9A3",
"U. c #ADAAAA",
"Y. c #B0A6A1",
"T. c #B3AEA7",
"R. c #B2ABA5",
"E. c #B3AEAA",
"W. c #BBADA9",
"Q. c #B5B1AC",
"!. c #BBB2AD",
"~. c #B7B4B1",
"^. c #B9B4B1",
"/. c #BCB9B7",
"(. c #C1B8B1",
"). c #CAC3BB",
/* pixels */
"n.s.b.b.5.P 6.6.{ o.#.<.6.A A h G f G G y X   d B I H l C V N a F 7 M F d i Z S U N 6 F G [ [ { #.c 0.5.r.=.O.P 5.S.d.6.A.U.J.J.",
"n.q.d.f.*.h.x.5.| $.*.u.T T #.m s G G y # o > H H B z S S M d 7 d 2 a M r a B D Z I z p J P R L L K &.g.w.6.Q 6.d.A.<.<.P.A.E.R.",
"g.6.g.r.c 8.n.6.O.6.-.6.J 3.$.L A G 2 O # n H I N _ d y 4 f w 4 i 5 a H n n n N B I U x p A L T v Q R f.f.e.R &.j.T.G.w.0.k.R.T.",
"8.w.x.5.3.A.g.&.o.#.6.Y ..3.{ L G ^ 8 . 8 V _ B M M w 0 l H w & 0 4 Z C N n ~ M w N ) l n j L o.=.R +.5.N.e.Q 5.j.H.g.+.f.V.S.P.",
"g.x.D.f.&.Z.p.w.2.3.P Z 4.4.A x Z 2 . y e H H M a 8 d H J H y : 1 6 x S N S f z M d N N T z x [ -.=.-.6.u.e.e.5.q.S.Q.x.f.Z.Z.L.",
"L.c.f.+.p.F.x.#.6.5.{ #.i.$.A Z N O d N I ^ ! r q S H J u h c A j Y &.Q L H M V V b r M ` J H U W u.-.-.-.j.H.w.w.x.Q.q.6.N.D.Q.",
"I.c.H.=.p.l.4.4.y.2.K 2.7.P c y , n H I I C w d ~ U y u T =.<.6.&.$.$.5.| S Z S H I N d C ' H D T =.q.5.e.Y.W.k.w.b.H.F.0.D.H.Q.",
"/.Z.k.+.6.0.&.q.u.4.K #...G P 2 7 ^ S a q M a H ) D 3 v R -.f.f.d.r.0.e.v Y <.[ D H M n M I ` H J $.w.8.$.e.W.H.6.6.x.6.6.x.D.R.",
"^.D.g.i.F.q.s.u.w.*.2.{ h K u 8 & B z 1 b d B D T o.{ *.k.m.c.z.k.j.x.x.4.&.l.<.D f H B N a H ) H o.8.8.6.a.K.Q.x.0.x.b.#.8.n.U.",
"~.l.u.2.h.<.<.v.8.,.2.+.G A a e t I i e N z p j E 4.L #.F.F.D.F.l.f.k.e.<.u.0.q.} H A I H ) b ` X.J <.8.2.a.n.R.R.2.f.S.u.f.P.U.",
"/.l.*.A.m.,.p.q.2.2.*./ G 6 d l B N l d l f z | =.<.0.q.e.l.c.m.l.w.c.f.{ 8.n.f.y.3.{ J H ' b C >.` _ d.k.l.j.A.(.e.e.F.4.0.w.m.",
"~.z.u.l.a.[ q.7.,.$.*.A m 0 r B d a l N z [ R O.f.F.m.{ u.H.b.m.Z.q.D.D.n.u.s.7.4.l.<.*.G n N B C >.S =.l.k.v.n.).D.#.P.U.0.k.e.",
"A.p.q.M.u.<.8.#.7.4.K p y 8 B N a B M Z T q.2.+.j.F.g.,.w.n.l.m.H.2.m.o.=.A.M.w.a.h.w.2...J N ' ) X.H i f.f.M.M.Z.!.w.m.f.7.G.f.",
"K.*.p.F.o.u.2.c $.o.A 6 2 q l N B H N T 4.f.f.0.d.S.m.j.0.z.u.m.L.<.k.y.s.l.s.7.l.q.h.<.u.[ x H ` _ H B [ d.j.h.5.!.l.0.b.*.E.n.",
"m.2.[ @.*.u.=.{ G ..c 4 w B l B H Z E ,.h.x.D.6.=.M.~.<.=.e.6.D.~.<.k.7.F.F.s.4.s.i.t.7.5.$.L u z B ) ' S 0.h.5.j.(.Z.0.V.u.a.K.",
"A.o.5.d.o.f.q.+.L S > l d d l N y Z <.s.l.Z.S.e.4.m.A.n.n.m.x.x./.&.-.{ v.m.#.%.4.g.u.i.<.*.A A 3 l ! ' _ } a.b.S.Y.I.w.g.u.b.S.",
"l.T a.u.y.h.#.<.T Z 9 l d b N O x S 2.m.F.d.w.g.u.6.I.V.*.x.V.6.T.w.m.v.v.K.7.4.4.8.6.a.w.,.D A 2 6 _ ^ H B 2.H.m.F.W.u.m.f.6.x.",
"u.h 6.2.q.2.,.{ [ p r M M B d - j { ,.l.P.6.r.G.h.e.S.l.G m.P.u.I.| R 4.U.l.:.a.0.2.6.2.u.#.A f y y z _ M ) J x.V.C.A.j.F.m.6.V.",
"u.K j.<.j.5.O.[ x 1 w r a e 2 i h *.-.u.g.d.x.B.Z.6.u.M.m.J.M.b.E.a.+.y.s.9.t.u.p.<.*.#.*.{ c 6 f Z p S ] ) J <.Z.C.F.n.f.l.6.f.",
"u.&.l.=.#.| @.P 6 w a a a > x j v U 6.0.w.x.x.B.b.2.w.S.u.6.n.m.E.h.9.q.w.| y.v.q.a.+...o.#.3 > A T P S _ C X.T B.f.n.j.6.H.#.x.",
"y.{ -.-.=.A k + > H M l 5 u S U T x -.6.b.x.j.H.S.p.x.S.#.Q f.f.K.p.R q.l.o.s.u.i.7.7.#.#.G : u T J } U z _ X.' 3.u.8.g.8.Y.f.p.",
"*.<.#.G Z p A 3 q l C i > p U [ | x v 8.f.x.x.g.Z.x.q.A.H.8.e.f.Y.4.| u.p.7.i.d.<.6.7.| | p > p T E E U f S _ S 3.A.d.w.u.k.e.#.",
"4.q.a.=.{ [ A 2 d r H > y v U H } E Z | 0.x.V.Z.e.Z.u.G.S.{ 2.b.F.4.2.m.a.<.h.8.d.7.#.+.h > 5 6 T T [ T S p H ' X.a.l.u.<.u.#.7.",
"y.q.8.| s c 3 a B d 1 i x U [ [ E T G D -.g.x.u.S.x.u.S.r.R 6.b.S.s.{ l.7.v.u.t.7.7.@.{ > 5 p x T o.| | U h z _ _ ,.l.4.<.n.6.=.",
"%.O.*.1.L A y d d 5 O y S Z S x x v f q R 8.c.p.f.x.u.k.C.u.<.j.C.*.+.u.a.4.a.*.u.#.#.j - < 5 u z D D S x p 6 H _ / 6.q.6.0.#.R ",
"9.y.R E +.c ; q d : > x J U _ T { E v z Z 2.f.u.l.k.w.h.!.d.<.l.g.G x.f.5.u.$.8.<.o...> > i x S J U T H U S x H F ^ a.Z.h.2.w.j.",
"q.h.u.2.K 3 q q > : f T T U X.%.{ | x f p &.2.f.-.f.<.5.x.Q 6.4.u.j 0.w.2.#.#.T *.@.3 ; 6 x x U U _ E U E T U i V _ ..Z.A.6.h.a.",
"T A k R k < M a > 6 U %.E U *.1.%.X.S S s T y.q.<.4.6.6.e.r.L { 4.x D | #.R c J [ { 3 6 6 p T T J U T } | ..U f F _ G *.g.#.<.K ",
"o.P c K 3 $ a q > x T } %.E %.*.} D S S f f 4.h.f.8.f.=.n.U.#.6.,.9.y.:.T @.L ..} A 2 6 p x D J A U J [ | T U D A n S | j.d.7.3.",
":.K G L < 8 r 8 - c D D U S U D } x J S y y ..0.w.u.7.h.f.8.P u.y.p.h.j.j.#.:.} { u O < 6 a f Z S S Z U S Z S D z F  .^ 7.7.#.5.",
"4.o.c j 8 e q 8 x T T } T } U %.1.T [ T Z f x @.7.2.h.&.w.$.L f.u.#.5.2.,.,.[ ..x 3 4 6 6 S S J X.D U | E U [ | T _  .} 8.8.R $.",
"#.u.#.s $ n q y D E } | U T U | 1.T U } [ x x E { =.T *.-.6.R <.<.,.5.*.:.K G P j 6 p f p U U [ E J [ o..._ [ } L S ^  .P d.$.P ",
"T 7.:.L - e 4 p [ } U [ J D T | | E T } | U S { &.<.a.v.8.Z.v.<.<.7.7.$.2.+.R @.p f f z x E U T | U T | E T o.| } J S  .3.y.n.5.",
"+...K + 1 2 6 S J } } [ T T T %.*.{ E W } U U D <.j.n.<.w.k.q.f.8.u.7.<.{ $.$.P 6 f x v G T T } %.{ } E } { o.%.{ D B ) 3.y.J.a.",
"o.A o.< 1 > 6 Z J T J J S T T S D } Y T D v A x G 6.u.g.w.u.+.g.8.y.u.5.q.=...6 > 6 p z x A U S U T D T U D D U T S S V F t.K.4.",
"G K y 2 M 2 f D %.o.[ | { E | T | } E %.X.} U x J Y $.j.=.*.+.6.<.o.#.{ <.#.J 2 z x z E G J E E T U Y %.%.| T } *.| T Z X.;.4...",
"..3.9 $ 1 y A } | %.| %.*.{ | | { o.| %.%.o.E D T U T | O.{ +.| +.G R { Z A s s p z T E T T T ..} } } %.1.*.%.| 1.&.T f ~ t./ ..",
",.o.f 1 1 x U o.*.%.%.*.*.} %.| | 1.*.%.%.%.E D [ G | <.5.6.6.<.2.$.{ R P j p 8 u x | X.[ } E o.o.*.| =.1.1.*.%.*.*.W U ^ X.K <.",
"o...9 , 2 x } *.*.%.%.%.%.T o.*.o.=.*.| o.o...E T L { #.( $.#.2.<.&.j K L A s 9 f { %.} } U [ %.1.*.o.%.o.%.%.o.%.E } D r F L / ",
":.J n q y x T [ T D U E } U { X.| | | *.| T T D A p / O.<.-.<.6.2.*.:.{ G F > 2 p S U U D U I [ *.| { } ..T U } E T [ A H ] ,.:.",
" .s , - y x S D z S E T [ [ [ ..%.| 2.*.| U S A f f +.{ 4.R S #.+.{ { / G q - 3 6 f D U T E E [ *.%.1.%.E T S T | } [ A N ) }  .",
"J f 8 8 y Z D G f v D T J L E } >.} ..o.} D z U A p K 5.+.[ +.=.R c m K ( u > 6 6 x U E U T E L *.o.....[ D S T | U E U D ' ) J ",
" .s % , p S E T Z U U J D J W E +.*.} } U U T U x p @.@.+.<.v.p.+.o.5.j A - 5 6 u D K E T U T U } } o.} T D U E } U T U S M ] _ ",
"S , 7 a j D } { T D T } } T T T o.%.| } E } T T S x f <.h.a.n.a.6.$.5.:.J 2 6 j x U W | T } } T %.%.%.} T D T | } D D U f N '  .",
"l e , y j v U D S Z J T E U T U E U D T U U U S Z h x 2.3.y.v.y.7...c $.+ . 6 f x D E } T T T U } T T U J D T U D S A D f H ) V ",
"H r 1 a D D U J J U T A I U E T | E T U U T T S E S z G K :.:.7.7.,.u g g - p f T U U U [ } } U U T T D U T | v Y E X.} Z n M N ",
"f , > p T } U J A J U } D S T X.{ { S G U U D D } J f G ..G L $.A 3.T s > > u x U U U E U } U } } T U U J T E T [ J T U G b ~ ' ",
"8 # 6 z T | T U S D | *.T Y %.%.o.*.J T D Y U T _ G f / y.i.L $.j 3.i.G O 6 j Z S U E E E } } T T E E E E [ U D S J T U T N V ! ",
"9 7 2 p A | o.T U T *.W | U o.,.| U x U Y U U } o.} x S :.7.#.t.{ ,.T L : 2 D U T J E E [ } } U S E H T } U T W } U T } U B n w ",
"e b a f T | T T T E | E %.| E U %.D U X.S D %.%.%.X.U j G K { t.{ 2.{ p @ i v D E T T D U J J T T [ U %.U T T X.%.U E o.U S a q ",
"d e q f T | [ o.E *.| } X.} E o.1.T [ o.J U %.*.1.%.} G ,.k / 3.K o.R ; @ j v T T | } U J G G I E U U X.D T X.%.o.T } E D z N ~ ",
"q b p f T T U o.o.*.{ } } } U U >.[ J [ } T E *.%.o.[ f ,...O.<.( ..A 3 3 p S } } o.} [ A E J J X.U E T E T E { X.E T T T S F ' ",
", q y Z T [ [ } %...[ J U U D } } T U } o.} %.<.,.>.| D T o.1.3.( #.A y 6 Z T } ..%.X.U D } U T E E T } T E ..%.} } E W ..T Z d ",
"% , y x T T } } } } ..[ U T E } ..T E | %.*.%.*.*.*.%.U Z | 3.4...K A j 6 v E E o.=.| T U T T E o.T E { } { | o.[ ..*.%.W E q d ",
"1 = f x T T U E T } [ } [ E T T T E E W E | o.X.,.2.%.v 3 @.j.y.T G L 2 y I U E U *.| o.D [ U T } T Y T T E J E o.o.| } U L 8 b ",
"1 = i x A U U | %.| [ T [ T E } T E W | T T } [ ..*.| U 3 @.a.3.{ A x O 6 v U o.%.,.E E U D E | E L J o.} T T U o.*.| ..T Z a e ",
"% & a x E | o.o.,.o.%.{ } } E { } o.{ %.%.%.%.o.2.*.%.D Z } o.:.( j y X p T T %.1.%.*.o.U U T *.{ [ J *.*.%.*.W -.%.| | | D f l ",
"4 1 i x U | } o.%.%.o.*.*.{ } } | ,.%.%.,.*.%.%.9.<.*.L } :./ [ G j u - g S E E X.} *.*.} T T o.*.*...o.<.-.%.*.*.*.%.%.{ U x a ",
"= w p A | *.| *.%.X.%.,.%.} %.*.%.2.%.o.%.1.,.*.9.1.o.D  .3.#.#.P J [ 9 x T o.o.%.*.2.1.E E } %.1.1.*.%.%.1.%.%.1.| } } [ D f e ",
"% 0 q x } | ....} } E | } U ..} | *.} %.%.| } *.*.E [ x f >.,.#.G J F , z D T T T *.}  .U T U T { o.T X.[ [ T } E U U S J S d d ",
"4 4 : Z [ %.%.E T U [ [ [ T }  .>.*.*.1.*.} E X.%.| } U a m G J Z u ; O y D Y T D D | } A _ } J %.} o.%.X.T S T } U [ I U J z r ",
"0 d 1 N U %.*.{ J T  .%.%...*.1.*.*.4.1.1.%.| *.9.1.*.T y F G J A f 2 + p K T { U } %.%.o.| o.o.%.%.o.o.%.[ U } } [ [ o.o._ Z q ",
": 4 4 f U o.} T D | ..} ..[ } | ,.%.%.,.1.%.%.4.1.%.o.D y F L G A j 2 - p S D T J o.%.o.[ } T U } } _ } o.[ T o...E [ [ } T a 1 ",
"7 = & z U o.| } U } } } } T [ } %.%.%.%.%.,.&.*.%.o.%.D y p F Z s 8 # > f A T U D } } ..T E } U } o.o.[ } } [ T { [ ..} U A , 4 "
};
