/* XPM */
static char *fd44012192ec4b22833c09d7b6ec73ach9X7qKutvifVDdvP[] = {
/* columns rows colors chars-per-pixel */
"64 64 211 2 ",
"   c #0C0E0D",
".  c #10130F",
"X  c #141513",
"o  c #181613",
"O  c #1C1B16",
"+  c #171918",
"@  c #1D1C1C",
"#  c #171A17",
"$  c #201E1C",
"%  c #23221E",
"&  c #28251F",
"*  c #1E1D20",
"=  c #241F23",
"-  c #252522",
";  c #292522",
":  c #262823",
">  c #2B2A25",
",  c #2E2C2A",
"<  c #27272B",
"1  c #312926",
"2  c #312E2B",
"3  c #2E302D",
"4  c #34322D",
"5  c #36362B",
"6  c #363532",
"7  c #3A3532",
"8  c #373934",
"9  c #3B3B36",
"0  c #3D3D3A",
"q  c #3B373A",
"w  c #423B36",
"e  c #423D3B",
"r  c #463A39",
"t  c #3F403B",
"y  c #43423D",
"u  c #4B443E",
"i  c #48483F",
"p  c #51423D",
"a  c #3D3C40",
"s  c #453F42",
"d  c #4F3F45",
"f  c #3F4241",
"g  c #454441",
"h  c #4B4544",
"j  c #474842",
"k  c #4B4B45",
"l  c #4D4D4A",
"z  c #48464A",
"x  c #524A46",
"c  c #584945",
"v  c #524749",
"b  c #524D49",
"n  c #5A4D4C",
"m  c #524543",
"M  c #4E514A",
"N  c #53534D",
"B  c #5A554D",
"V  c #56584F",
"C  c #59594E",
"Z  c #534E51",
"A  c #5C4E52",
"S  c #555551",
"D  c #5B5553",
"F  c #575953",
"G  c #5B5B55",
"H  c #5C5658",
"J  c #5D5E59",
"K  c #4B4D54",
"L  c #61554B",
"P  c #635554",
"I  c #635B55",
"U  c #695C53",
"Y  c #635D5A",
"T  c #6A5E5B",
"R  c #62565A",
"E  c #5F6157",
"W  c #5E615A",
"Q  c #626157",
"!  c #63635C",
"~  c #6B645D",
"^  c #66685E",
"/  c #69695F",
"(  c #73655C",
")  c #76695E",
"_  c #625D61",
"`  c #6B5F61",
"'  c #5F6262",
"]  c #656661",
"[  c #6B6563",
"{  c #666962",
"}  c #6B6B64",
"|  c #6D6E69",
" . c #6B6668",
".. c #726463",
"X. c #726B65",
"o. c #7B6C64",
"O. c #746669",
"+. c #736D6A",
"@. c #7B6D6C",
"#. c #796764",
"$. c #6E7066",
"%. c #6E716A",
"&. c #727166",
"*. c #73736C",
"=. c #7A746D",
"-. c #7B796F",
";. c #79766B",
":. c #6D6E70",
">. c #7A6E72",
",. c #767671",
"<. c #7B7572",
"1. c #777872",
"2. c #7B7A74",
"3. c #7D7D79",
"4. c #7E757F",
"5. c #806F67",
"6. c #82746C",
"7. c #82786D",
"8. c #8A7A6D",
"9. c #837574",
"0. c #837B75",
"q. c #8A7D75",
"w. c #847D7A",
"e. c #8B7E7B",
"r. c #847677",
"t. c #927C7A",
"y. c #7F817A",
"u. c #7F8077",
"i. c #848276",
"p. c #8A8175",
"a. c #84827D",
"s. c #8C847C",
"d. c #8B897D",
"f. c #92847C",
"g. c #93887D",
"h. c #968A7B",
"j. c #8A7E80",
"k. c #858482",
"l. c #8C8582",
"z. c #8C8984",
"x. c #8B8888",
"c. c #928584",
"v. c #938B84",
"b. c #9A8C84",
"n. c #948C8A",
"m. c #9B8D8B",
"M. c #958788",
"N. c #9B9185",
"B. c #95918C",
"V. c #9D928C",
"C. c #999388",
"Z. c #9C9492",
"A. c #9E9B94",
"S. c #9E969B",
"D. c #999795",
"F. c #A1948D",
"G. c #A4998E",
"H. c #A8988D",
"J. c #A39692",
"K. c #A49B94",
"L. c #A99C94",
"P. c #A49C9A",
"I. c #AA9D9A",
"U. c #9EA19D",
"Y. c #AAA196",
"T. c #A6A19B",
"R. c #ACA49D",
"E. c #ABA99C",
"W. c #A7A196",
"Q. c #B2A49D",
"!. c #B3AA9E",
"~. c #BAAB9F",
"^. c #B2A692",
"/. c #BCB09F",
"(. c #A29EA0",
"). c #ADA4A2",
"_. c #ACA9A4",
"`. c #AAA6A6",
"'. c #B3A6A3",
"]. c #B4ABA4",
"[. c #BAADA6",
"{. c #B4ADAB",
"}. c #B8ADAA",
"|. c #B4B2A7",
" X c #BCB2A6",
".X c #B7B3AB",
"XX c #BBB3AC",
"oX c #BEB8AE",
"OX c #BCB5B2",
"+X c #BEB9B2",
"@X c #B3B2B2",
"#X c #C1B4AC",
"$X c #C2B9AF",
"%X c #C1B6B1",
"&X c #C3BAB3",
"*X c #C4BCB9",
"=X c #C9BCB9",
"-X c #C7C1B7",
";X c #CBC1B6",
":X c #C6C2BC",
">X c #CBC3BC",
",X c #CDCABF",
"<X c #CCC5C2",
"1X c #CDC9C4",
"2X c #D3CDC4",
"3X c #D0C7C8",
"4X c #D5CDCA",
"5X c #D5D2CE",
"6X c #D3D0C5",
"7X c #D8D7D3",
"8X c #E1D9D9",
/* pixels */
"F u $ 4 u e Y I 6.I f.( u f.L.g.G.q.o.8.6.#.M.'.J.T Q.{.1X*XI.OX7X@XF.[.&XJ.2.V.b.[.9.p.6.@.M.m.J.P [ h v r k 9 z Z q q * .   3 ",
"V k 7 2 7 N D Y ....o.U p T !.C.L.b...( f.F.}.*Xb.e.'.OX<X5X%X%X8X@XF.#X XV...F.I.L.X.q...m.w.E.z.R T @.s u e s I h s - X + - 8 ",
"G k i e w 7 x P O.[ U L ) U s.[.b.'.q.o.F.h.OXoX X0.). X!.OX'.oX<X(.L.#X].( V.'.oXV.m.X.;.s.3.).R [ <.w.A 1 z +.h g = X # , , f ",
"D N b k h y y G Y ~ c L o.( o.[.L.!.V.( o.f.XX,X!.0.I.m.J.{.R.!.,XE.^./.[.B T }.}.7.F.Y b.9.J.w.I <.x.O.T v  .v v 6 X * : , 6 t ",
"M N l j 0 0 j k I ! ) ;.o.7.( V.oXL.s.U 8.I.].2X[.I.0.;X;X,X[.L.L.K.~.~.J.9.b.%X'.b.r...o.0.).[  .Z.e.>.I T R s , # - : > 6 i f ",
"D C b l N e 0 9 h T #.;.8.7.g.g.[.H.b.q.h.W.C.1X4Xv.d.N.F.Q.E.Y.v.L.*X2XQ.L  XXXOX!.2.z.-.@.=.*.x.m.=.+.Y O.Z 6   # , 4 8 0 l N ",
"} } ! ] ! D i 0 u B ~ ;.V.8.v.v.9.f.F.!.h.I.!.,X2X%Xp.V.&X>X$XoXW.H.F.R.K.b._.:XP.Z.<.P.m.q.I a.Z.e.x.v N B j @ - , 4 t l M J G ",
"W Q ! ! ! / b 0 y C / ) i.F.q.h.v.Y.].%XL.8.V.%X4X$X..g.H.H.].%X[.I.L.R.Q i.=X*X'.r.n.Z.J.c.<.S.m.c.w.X.6 y < - : 3 t l J F F J ",
"F W W S E } D j e h N B ( f.h.b.V.K.>X%XY.f.].'.6X;X).V.;X-X$X.X!.!. XXXz.p.>XOX!.J.).l.I.w.<.V.e.m.>.Y 0 * $ 3 0 j l W J S F F ",
"F F f M G E M N e e y ~ 6.9.H.p.h.q.;X$XQ.h.W.K.!.XX=.8.>X>X&XoX].^.!.J.e.Y.P._.z.a.T.m.Z.<.I s.C.=.O.A g # : 9 j j S F l M D G ",
":.' F S ^ ! G | E Q j b o.7.v.L.f.G.'.<X'.Y.v.Y.L.b.V.n.A.|.oXoX|.V. XE...V.}.E.).P.B.J.a.n.@.P Y >.P e > % 6 h ! W W W Q ! ! W ",
"| ' J G ! W { | } ^ N j B 8.p.q.s.R.XX*X|.].V.b.[.<XXXX.K.,XoXXX>XC.:X.X}.P._.J.n..XB.).z.S.f.X. .` Y 4 , 4 i G ] G W { } ! } } ",
"W F F F W ! } } &.! N y 9 U s.q.N.K._.'.[.*XZ.7.].1XI.7.W..X].+X-Xz.XX9.a.:X+XZ.S.R.R.P.n.m.V.w.,.` s - 4 y D ! ! ] %.| &.} X.,.",
"F F F ' | ] { ! ! } } F y w -.8.m.G.'._.%X|.R.V.Y.XX+X'.z.|.T.+X5Xq.!.A.E..X`.Z.`.V.R.l.`.n.0.w.~ D ; > e N G ^ *.+.1.X.X.$.&.} ",
"l l M k M l l N F W N k 9 4 I b.s.].'.'.%X$X>XC.p.+X7Xv.p.W.N.XX7Xp.XXn.OX:XP.l.`.F.m.Z.c.c.w.Y [ 7 O 2 t j j M F I W F N k N N ",
"D S G F ! ! { ,.2.*.| } J N k ) h.v.|..X{.%X&XV.v..X%X[.E.&X X'.5X9.i.| {.OX>.1.n.R.Z.).c.l.Y ` x : 2 I ^ ! ! { =.} *.$.^ F G E ",
"b l G J } } &.*.2.,.1.,.1.! V k d.0.J.OX:X'.F.I.L.v.:X[.6.[.[.L.>Xv.+X{.OX3Xn.n.v.b.n.A.V.w.I n 7 5 j / 1.9.-.&.p.-.,.&.} G ! W ",
"F F J { &.,.*.2.-.1.3.a.3.} ] l ~ q.e.}.*Xb.L.=X'.E.-X).U .X:XP.=X@.Y n.5X`.2.P.v.s.z.v.P.1.c w w N C Q i.d.;.,.u.u.X.-.{ { ! W ",
"S F J { 1.i.3.1.,.1.3.k.1.! | ! B w.b.Y.'.J.Q.#X=Xg.F.OX%X*XOX}.1XU.,.Z.S.n.x.Z.P.n.<.9.w. .x 6 j D Y  .*.,.*.*.$.&.$./ J J S W ",
"1.+.J ] } 1.@.! J Y &.| } } ;.F D Q b.h.J.[.[.#X&Xg.V.=XJ.l.{.XX1X'.v.J.Z.%.B.'.n.).O.T @.2.2 : M ! =.2.| ! ] *.u.&./ } } { { { ",
",.&.! W ! / B N j l ! &.&.=.} ! Q h p.N.'.].XX&X%XI.'.>Xt.) Y.Y.<XP.Q J.{.+.).).T.V.M.=.>.b % 6 F G ;.2.} S l ! $.Q ! | { Q W ! ",
"&.} { E W ! G N i N E ! ! ! $.W } k C b.R.'.[.!.#X#XV.XX>Xn.L.].3XB.+.K.).M.L.J.n.Z.M.[ @.6 - 9 Q ! } { ] J F %.-.J J ] ^ W W F ",
"} Q ! { Q ! ! E M F ! G ! ! } S } / b X.C.[.[.#XL.XXP.&X=X@.t.#X,Xz.k.%XI.k.R.n.P.M.@.@.e > : 6 Q Q } W ' F F } ;.F ! J ] G F S ",
"] } } } } Q / &.J G { } } } { ] } Q b C p.Q.].L.$X}.I.#XL.( g.[.%XS...).m.{.J.V.x.m.9.} > , 0 k / &.;.%.W F { $.! D b F F F F M ",
"k N N N k y h i 9 0 g F G l M j h k t 5 ( b.|.K.I.[.P.[.=XH.f.!.%X2.r.I.K.B.T.w.I.9.9.y O & 4 9 i N V M k i M i j y j l g 0 t g ",
"J J W Q { ! N G N j l F G J { W } } M t N f.R.K.E.~.V.R.7XJ.w.}.Q.I XXP.z.J.r.n.e.+.O., : 0 M N F J Q F E F W V G V ! W F l J F ",
"^ *.{ } *.*.! Q M S ! } ! ! } 2.&.} k 0 9 2.s.I.z.W.f.q.[.) c.n.F.b N.C.l.9.r.~ w.<.4 & 4 h l F J Q W F W ! } G E W W ] ] F W ' ",
"J ! ] } } ;.} F M ! &.,.! Q 3.k.*.| V N e ! Z.Z.f.c.s.s.V.L.U X.z.x G o.@.[ x P  .O.& 2 5 9 E J F G ! } *.&.! N M F W W W G W W ",
"! ^ ! F { *.] F F ^ *./ &.! ,.3.,.F k S t 0 B.).R.m.].q.oX4X=.f.k.B.U.e.~ @.Y | :.A , 2 y z F G S J J { *.! J ^ | J J ] { F J F ",
"W F k t V E N j i ! J D D N F F } z E M 6 ,  .m.J.L.V.R.).J.~ I.B.`.{.`.).9.4. .O.9 X - 4 8 0 z M l l G M M N D Q F N S K N b k ",
"] J F S } } ] | { &.] { Y ! J *.k.! ! W M t j @.n.d.E.9.F.8.I P.P.4.m.j.2.w.} O.h % : 4 9 N S G { F ' %.W W W %.%.,.{ Q ! F D G ",
"| W W J ] ] ! $.$.*.| | W ! J *.2.W W $.{ k k ! @.q.Y 6.b.b.[ w.r.w.l.a.w.P B T k , 9 y y G J ] { F ] %.| W ! | } { W W ] W } } ",
"' G F G ! { ! | ;.$.! ! G H ! } *.! ! $.| G F / 9.g.I.'.N.#X'.w.f.C.b.=.c.@.` >.9 e e y l Q J [ } I ! } ^ ! ;.*.*.| ;.| } X.&.&.",
"G N F } ] ! $.} { %.| ] ! Y ! *.3.} ! $.} Q D D i.).{.e.V.~.F.Q.F.Z.Z.f...l.<.T 5 y i l F Q Q { 1.} } / } } *.%.$.%.,.=.&.&.} } ",
"G l l D ! G G E W { J G G F Q S C / Q I G N N i P m.L.'.K.L.6.!.V.L.P.M.K.w.O.9 : 6 8 k j V G N D J G Q ! G F D W J | J ! Q M F ",
"J F G G Q J W } 1.| ! } } ^ &./ X.} / &.&./ G k I ~ 9.R.s.s.@.n.e.>.<.T w...H > t l i ! S H [ ! ^ ! P -.=.$.! / 2.;.1.,./ J G ] ",
"S z J G ^ / ,.%.*.1.,.*.2. .X.$.&.;.| ,.,.*.[ C / I ! +.6.@...+.=.D [ T b c s q 9 i W ^ ! J ] %.} X.} =.i.w.=.;.p.0.*.;./ F G G ",
"K S G ! ] ,.;.*.*.2.2.1.,.} =.} } a.2.0.-.-.! D C D X.k.s.c.s.s.c.q.T ~ T h s , 7 k } +. .} { &.,.i.=.w.i.d.2.=.-.2.1.2.} ] { ! ",
"F F G *.3.;.2.0.,.,.,.:.,.J ,.2.1.3.2.,.&.%.%.! I Q #.<...r.r.v.l.9.m P R v 6 2 e ! 1.} ] ! } *.a.w.,.*.,.1.1.&.;.} %.} { W G E ",
"F M S { &.} } [ Y G J ! { J } %.| &.+.2.%.! ^ D M w T ..j.t.t.n.n.r.r.[ R Z < 1 9 l W ! D G J W ,.} X.} ] H ! ] { F ! ! S M M G ",
";.%.{ Q } } G x y N Q J / / } X.2.&.a.y.,.F M D y w @.O.M.T B =.@...O.! b 6 = 1 2 y C D ! ^ ! } y.,.a.1.} G N ! ;.{ ! { { { W { ",
"} { Q J G Q G C y N G W J J } | 1.[ / %.| V k F l 0 n c.@.~ 2.f.T c m P ` a - 2 2 k E ! W W } ! 1.&.&.$.{ F S Q &.W ! } W G F E ",
"} ! ! ] E ! Q I k F J V F G X.{ ;.-.&.{ W W ! D k 0 @.9.@.s.{.P.8.=.l.r A @ : 5 9 V G { ! E ! W } } *.{ J D W } X.J Q ! W F S F ",
"! ! } &.{ ! } } ^ F W } ! ! ! W ,.,.*.} W } ! E D k q r.}.`.@X).n.9.j.e.R 2 4 y k G $.$.! ! } { ,.2.1.{ W S W &.} F D ! D M l G ",
"E ! ~ } J D E C l l G ! } E E E / J F F W G G V N y k x.M.S.{.P.m.X.c @.@ X 9 y j F } / ! W W F ^ ^ ! G G F ] I C N N F M M M l ",
"E ! I Q } ! E F S J J N F ' E ! &.} W G W ! G M ! S 0 H H >.j.n.c.w.w e q @ 7 u E W W W ! | { ! W E ^ G G Q } V ! ! } { G F F F ",
"} / ! ! 1.&.J G l F E } F F ! %.&.| M F W D G G ] F 0 Z >.H R r.n l.] e $ 1 0 k F G J { { } J { { { F E W W } G Q W W ! W S E W ",
"} / } } &.&.! W M S $.-.E E *.3.%.y.G W F Q G ! ! F f ] S.S.I 9.d x.P.H o 2 e k F F } } } ^ { ! W { ^ ^ ! } I F F G W W ] G ! J ",
"! ] { F ! | $.Q J ! 1.$.$.! *.y.| J j F ! W J { *.] l l 4.n.+.M.` w.` Y % > N F E G ^ ^ { { | W F { F ! $.W E ^ W J W { { F W F ",
"} { ] ' } %.! ! Q X.;.E &.$.' { 2.S J $.l G 1.1.,.{ W 0 H Y [ Z.O.j.! y O 9 M V ! E ! C W G J F W ! J *.W ! ^ $.%.W $.%.{ F W W ",
",. .G J  .%.] &.^ 2.*.$.%.{ $.%.i.{ { %.G J ,.k.k.,.} S k.v T x.R X.I ; % y N { Q *.} G V F F F ^ E W | F W $.1.%.! $.| W G / $.",
"{ J G F } ] J ,.,.*.*.$.{ $.F ' 3.{ J ! ] J } 3.y.%.] f j.#.@.j.T #.D > : 9 N { %.,.| ] S Q G F $.W ' ' { W W } $.! W { W W ^ ! ",
"W J F J { ] ] %.,.} ! W G ! D { $.! G ! %.X.-.z.y.2.*.F Q +.w.c.O.>.A 7 3 k Q } &.;.} G N } Q ] { ^ / ! } / } ,.%.{ / } $./ } &.",
"' S F F { ] $.$.} } +.! W E { | X.Q / X.;.2.1.1.2.y.2.D i O.c.D.O.A Z j 4 V } } *.3.,.! D { W ! $.! } / / } %.;.} %.2.&.$.$.} &.",
"G F J W  .E G W W } | } ! } ! { ! / ^ / / &.+.%.y.a.*.N ; <.).S.~ A H 2 7 N E ! ' 2.} | F ! W Q ! E Q Q Q / E ^ *.,.} } E Q / / ",
"S S F F J G E } ,.| { [ ] W { } / / } &.^ ! +.] &.0.*.E 6 ..S.w.( n y $ 4 N E %.;.a.] { Q G ! } ! Q Y &...! ! G / 0.,.$.Q N G Q ",
"l k G G ^ %.=.,.y.| 1. .} ^ } | } *.| *.=.,.<.;.s.2.&.F z @.2.>._ s 7 o e Q } &.k.1.1.&.J J ! ,.| ] Q ,.u.1.2.} i.;.*.*.} D G E ",
"S S G ! } } &.&.3.,.,.2.3.} } X.&.a.1.1.w.0.,.1.h.d.2.W ' 4._ ` H h 0 @ e C | ] | } 3.a.} W ] | w.w.*.,.d.p.<.1.p.1.;.,.} ^ ! { ",
"F S H } 1.3.,.1.;.| ;.a.3.| 1.3.3.a.1.,.;.a.3.i.v.z.;.N | k.2.4.T H _ , i Y ,.,.%.3.k.a.{ {  .,.k.d.2.*.2.i.;.;.i.&.} } ! W F ] ",
"D K N G | *.+.X.^ ] } | { W } | | 0.} 1.,.%.$.1.i.} { j a 4.j.4.R D S = t G ! ! [ ,.%. .J ! ! W } ,.{ { } } [ | { J J N F F M F ",
"} { H ] } 9.<.} ! G ] W { ]  .| 3.;.1.z.3.&.W | 3.=.} J < s F H b q = X 6 D Y G F F | ] N !  .G 1. .*.,.| Q N W } W ' W G ' W ! ",
",.| ] ] } 1.-.} E ' $.,.,.| ,.a.a.3.l.k.a.1.%.a.x.a.y.! a K Z H v 0 < @ 9 J ! ! ! { 1.2.+.&.&.,.,.1.:.,.,.{ G } } { ] $.$.{ { } ",
"| | | J %.| $.W G } } %.| } } *.y.3.3.3.a.,.,.z.a.-.*.S 6 z _ P b g < @ 9 M J J G ,.,.%.' { ! J %.} ] } %.{ ' +.*.! { ! { { { J ",
"*.W W { %.1.{ | J ] } | | ^ { { ,.*.%.%.1.y.,.i.1.*.%.N 6 a z z s , @ - 0 S W W F { } *.! ! { ' } *.*.] | } { ] } ] %.{ W W ' F "
};
