/* XPM */
static char *a3e45c6ad1c44a88b1415c87778003edRfcOIgH1hyEnhg0V[] = {
/* columns rows colors chars-per-pixel */
"64 64 228 2 ",
"   c #1A1C1B",
".  c #16191A",
"X  c #0F0F11",
"o  c #221E1E",
"O  c #1E211D",
"+  c #23221F",
"@  c #202A1F",
"#  c #1C1F22",
"$  c #171F21",
"%  c #261E21",
"&  c #1C2324",
"*  c #1E2B2B",
"=  c #192525",
"-  c #1E3031",
";  c #232524",
":  c #232926",
">  c #2A2B26",
",  c #22272A",
"<  c #242B2C",
"1  c #2B2C2B",
"2  c #2A2627",
"3  c #322D2C",
"4  c #32272A",
"5  c #2B302F",
"6  c #32332F",
"7  c #232C32",
"8  c #2A2D32",
"9  c #2C2A35",
"0  c #243234",
"q  c #2C3334",
"w  c #2C3936",
"e  c #2D3B3B",
"r  c #2A373A",
"t  c #333433",
"y  c #3A3534",
"u  c #353A35",
"i  c #3C3B35",
"p  c #34363B",
"a  c #343B3C",
"s  c #3C3D3B",
"d  c #3E3339",
"f  c #312E33",
"g  c #423D3C",
"h  c #463939",
"j  c #35423D",
"k  c #3D423C",
"l  c #28423B",
"z  c #43423D",
"x  c #49463F",
"c  c #2D3E45",
"v  c #343C42",
"b  c #3A3E42",
"n  c #413D41",
"m  c #2D4142",
"M  c #344243",
"N  c #3A4344",
"B  c #3C4944",
"V  c #3D454A",
"C  c #3B4A4B",
"Z  c #364848",
"A  c #3D4C52",
"S  c #3E5253",
"D  c #39524F",
"F  c #454542",
"G  c #4A4542",
"H  c #444944",
"J  c #4B4B45",
"K  c #414649",
"L  c #434B4C",
"P  c #4D4D4A",
"I  c #4F4748",
"U  c #534B46",
"Y  c #514E4B",
"T  c #5B4E4D",
"R  c #504744",
"E  c #44524D",
"W  c #4E514C",
"Q  c #4F5046",
"!  c #53534D",
"~  c #5B544C",
"^  c #58584E",
"/  c #454C54",
"(  c #544D52",
")  c #445254",
"_  c #4B5453",
"`  c #4D5A55",
"'  c #4D565A",
"]  c #4C595C",
"[  c #46575B",
"{  c #555651",
"}  c #5A5653",
"|  c #565953",
" . c #5B5B55",
".. c #525B5B",
"X. c #5D5E59",
"o. c #5A565B",
"O. c #61574F",
"+. c #615654",
"@. c #625C56",
"#. c #625E5A",
"$. c #695A5C",
"%. c #5F6056",
"&. c #5E615B",
"*. c #55635D",
"=. c #4C635D",
"-. c #616157",
";. c #63635C",
":. c #6A645D",
">. c #66685E",
",. c #6A695E",
"<. c #72655E",
"1. c #786C5F",
"2. c #4C5B62",
"3. c #4B5861",
"4. c #545D63",
"5. c #5A5F68",
"6. c #695E63",
"7. c #556364",
"8. c #5B6464",
"9. c #5C6B6D",
"0. c #57656A",
"q. c #5B6C71",
"w. c #576B73",
"e. c #4B6263",
"r. c #656661",
"t. c #6A6562",
"y. c #666963",
"u. c #6B6B64",
"i. c #6D6E69",
"p. c #65666C",
"a. c #716664",
"s. c #726C65",
"d. c #726D6A",
"f. c #7B6E6E",
"g. c #7B6D65",
"h. c #6E7166",
"j. c #6E716A",
"k. c #727166",
"l. c #73736C",
"z. c #7A756D",
"x. c #7B796E",
"c. c #77796F",
"v. c #776F71",
"b. c #647577",
"n. c #767670",
"m. c #7A7572",
"M. c #777872",
"N. c #7B7A73",
"B. c #7E7D79",
"V. c #7C767A",
"C. c #6A6F75",
"Z. c #85776E",
"A. c #827573",
"S. c #837B75",
"D. c #837D7A",
"F. c #8A7E7B",
"G. c #877B77",
"H. c #7D8077",
"J. c #858176",
"K. c #8A8275",
"L. c #84827C",
"P. c #8B837C",
"I. c #8D897B",
"U. c #92847D",
"Y. c #93897E",
"T. c #99897F",
"R. c #777E82",
"E. c #867D80",
"W. c #748384",
"Q. c #8C8482",
"!. c #8C8A83",
"~. c #878584",
"^. c #928683",
"/. c #948B85",
"(. c #9A8C86",
"). c #968C8A",
"_. c #9A8F8B",
"`. c #9C8688",
"'. c #9C928D",
"]. c #999289",
"[. c #9B9391",
"{. c #9F9A97",
"}. c #9B9398",
"|. c #8A8990",
" X c #A2968D",
".X c #A3988E",
"XX c #A29694",
"oX c #A39A94",
"OX c #A99D96",
"+X c #A49C9A",
"@X c #A99D9A",
"#X c #A19698",
"$X c #A08F90",
"%X c #ABA196",
"&X c #ADA39C",
"*X c #A8A39C",
"=X c #B1A59D",
"-X c #B0A99B",
";X c #AEA6A1",
":X c #AEA9A3",
">X c #B3AAA4",
",X c #B4ACA9",
"<X c #BBAFAA",
"1X c #B5A8A4",
"2X c #B6B1AB",
"3X c #BBB3AC",
"4X c #B9B2A6",
"5X c #BDB5B2",
"6X c #BEB9B1",
"7X c #B6B1B1",
"8X c #BBAFB0",
"9X c #C3BAAE",
"0X c #C3BBB4",
"qX c #C3BDBB",
"wX c #C6BAB6",
"eX c #C6C1B6",
"rX c #CBC3BD",
"tX c #C9C3BA",
"yX c #CCC6C2",
"uX c #CDCAC3",
"iX c #CCC7CA",
"pX c #D3CCC5",
"aX c #D5CDCA",
"sX c #D7CBC8",
"dX c #D8D2CC",
"fX c #DAD6D3",
"gX c #E6DBD9",
"hX c #E9E1E0",
/* pixels */
"7X_.&X1XS.OX&XA.g.a.F.'.m.+.a.h d Y 6.I & X   F 7.` B ' L [ C w b = C N a p L E E ` u G #.;.:.@.:.U (.=XOXF.:.U.'.9XF.z.yXrXaXiX",
"1X(.=X=X<.&X<X$Xf.^.A.+X} d.D.+.n o.n 2 X # j *.) L H s a k < : a < q ) N v V L H ` &.N J +.;.$.~ <.g.&X XoXg.F.@XqX=X].>XwXdXuX",
" XT.%X(.+.&X=Xz.g.G.P.S.t.).v.+.( ( f X : ) 8.[ C e.a : a B 6 & w t C ` K K L A C =.*.E k G @.:.:.:.g.(.=XOXO.Z.>XpX5XG.].4XsXpX",
" X=XwX@X/.tX<X].A.A.S.T D.^.+.( o.( #   8 L 2.) a 7 e B ` *.< : > + z ` K L L Z w j ` E | g { f.U.g.G.F.4X%XU.T.OXrX6XP.-X9X,XrX",
"0X4X4XU.Z.0X*XJ._.^.a.t.}.D.} G F X ; N j ] [ v a b E 8.L 1 : ; ; ; ; u V | k B L M p j y.W W #.g.'.K.(.U. X=XU.'.3XdXoX%X0XtXaX",
"tX4X3XJ.eXqX;XL.[.^.t.Q.}.v.U n t < L ' *.4.N a Z ..L t   ; ; 1 > 1 t i s s L ] [ L a M *.8.] {  .(.Y.Z..XrXpX%X{.2XpXoXK.9X9XfX",
"dX4X9X1.K.).l.).;X).T G.E.} +.f : 3._ _ Z M w / 0._   2 3 s g P ^ ! J ! U i > j =.] A a A 9.*.` :.A.XX XT.4XpX9X.X%X6X5X*XtXpXdX",
"fXeX%X(.>X%X'.{.XXE.f.$.Y +.T 1 : ) W 1 r a K 3.<   6 z J { { &.k.i.;.@.| ! h > : L L C C Z 9.7._ G.`.].K.].dXpX].T.>X].:.].-XuX",
"aX0X2X).,XG.'.@X).N.^.:.( o.4 q < E a 9 V C j ; 1 y H ~ #.|  .| >.:.%.X.|  .^ J ; > s e.) b V 9.] | (./.^.;X5XsX9XI.%XyXXX@XrXpX",
"fX&XN.*X3X).).oX'.Q.F.m.T n a e D ) e w C q + 6 J J { ;. .^ ! X.u.-.u.h.>.>.r.X.P z 6 K 7.w.M 7.R.4.m.1XXX:X:XrXpX'.=X3XP.=XeXuX",
"fX6X'.6X,Xt.[.XXF.D.V.T ! q l B M K C B ,   y J U x Y | ^ H F W X.#.-.u.@.@.;.>.^ F G t H ) A C 9.b.' '.>X&X:X6XhX@XY.yX3XI.].&X",
"eX:X!.,X}.a.+X/.L.Q.d.I y 8 j Z M v Z < & y U J ^ %.>.>.{ {  .! } ,.u.:.u.| X. .W ! ^ G i a L [ [ W._  .>X=X2X2XdXwXF.0XqX).eX.X",
"6X).+XiX{.[.L.} ).G.U y , < ` E c e.< O t x -.^ %.&.>.;.X.! { | -.>.| @.l.>.| | P o.! W x u s 4.w.9.] M L.%X,X<X XpX*X%X=XF.sX>X",
"qXD.P.@Xd.{.*X$.} t. .3 e M a Z 0.p ; i J %.;.^ ;.X.&.;.>. .&.&.,.h.u.i.z.k.@.#.! { u.l.} H i L ] 7.=.7.( oX>X^..XgX4XY.wXS.,XeX",
"5XS.t.S.Q.,XG.<.+.#.i q l S C D q > i J ;.>.%.X.} ..&.;.r.| &. .;.y.y.&.t.i.,.;.{ | l.x.;. .;. .s E S q.] B.OX X9XsXrX.X1X=X:XqX",
"5XA.OX&Xn.+X^.U.$.F 2 Z a q M 5 + 6 k ;.y.;.-.u.i. .y.j.y.| &.| ;.&.u.| ;.i.,.-.%.,.x.:.l.,.&.X.F B [ 0.0....XwX<XwXrX.X<X/.XX3X",
"XX~ XX).+X>XG.g.$.g t S C Z Z O 6 G | j.! r.i.l.j.;.j.j.;.| u.u.l.j.X.r.l.l.>.u.>.z.M.;.h.u.u.&.y.B _ ..L 2.n.0X0X9XsX+X0X3X^.3X",
"oXx '.).@XD.A.6.+.q r m M L : : J W  .y.;.&.>.j.i.r.>.r. . .>.;.i.;.o.| u.r.&.l.u.x.j.j.i.i.&.u.N.W i *.) e.( +X9X2X9X<X,X3X[.3X",
" Xa.,XG.^.S.f.t.g < 7 p a : 4 F ;.;.r.;.;.;.u.i.l.;.;.y.u.,.u.>.&.&.|  .y.;.>.l.n.l.s.r.&.u.{ r.M.&.k F b.2.8.d.3X2X5X1X.X4XA.-X",
"@Xz.XXL.Q.$.a.3 & N N e q > i ! r.;.y.u.t.t.l.n.u.i.i.s.i.u.,.x.i.| { | r.;.,.i.j.u.;.X.X.X.X.u.u.#.{ H _ ' C.X.<X1X,X<XY.pX^.2X",
"D.f.d.@.} n I o w S L C + i Q  .k.-.:.:.>.i.i.l.l.j.n.k.,.h.s.u.;.{ &.&.i.>.:.u.r.u.n.u.X.r.u.i.i.,.-.~ x 8.4.5.|.1X^. X'.0X<XQ.",
"D.[.'.f.<.P } 3 , e S w > z | &.-. .-.:.-.-. . .,.S.u.u.^ ^ %.>.} |  .| X.^ | ;.;.i.r.r.>.t.;.;.-.-.,.:.x z 0.3.D.7X;X=X&XOXU.F.",
"#X).XXf.T @.g f V v j 1 i ! ;.l.u.;.X.M.l.l.l.;.x.l.M.l.u.^ | -.^ W  .| ;.i.u.M.B.i.l.y.;.#.u.i.u.s.d.j.%.x L 9.4.Q.9X+Xm.-XP.(.",
"P.P.Y.F.U G d v V b > H { ^  .n.n.d.t.x.P.G.M.l.K.N.n.l.u.&.X.y.{ P { X.>.j.l.j.H.l.m.l.m.u.u.u.i.N.d.l.l.;.x ..q.V.).Q.].&XZ.a.",
"G.A.<.g.a.T 2 e M q z @.&.;.r.j.L.L.N.l.L.P.z.B.I.N.i.k.u.;.;.r.| o.X.u.d.l.l.n.N.l.m.B.N.i.l.n.l.L.N.z.l.l.! ] ' o.&X3X/.U.K.^.",
";X8X^.A.d.h 1 < 5 k ! u.r.i.y.n.D.D.l.j.l.n.j.l.l.:.>.;.&.| ! &.o.P { t.N.S.M.M.d.i.l.D.N.r.M.H.M.L.f.l.l.n.;.W K 4.~.wXqX].=X9X",
"A.A.S.S.U % 0 v 2 1 W | W o.X._ y.u.u.i.y.&.| r.;.X.| { W | { | | | { | t.l.a.r.X.X.r.X.X.X.r.&.j.l.i.N.l.>.! z / 0.6.XX@XZ.[.G.",
"<.T h +.d ; Z u ; k u.l.r.i.z.j.L.l.n.V.n.y.| r.i.:.p.y.y.y.r.i.l.i.;.i.u.S.D.l.;.;.u.i.n.y.n.B.~.D.~.!.B.d.;.| } ] _ t.<X/./.t.",
"m.$.+.+.% % q 5 1 Q >.M.u.u.,.u.i.j.y.j.l.r.&.l.i.>.;.y.y.i.y.r.y.l.y. .i.l.i.>.^ u.l.j.i.u.l.N.B.M.L.L.~.h.y.i.} v 4.u.#XOXF.(.",
"/.$.T T 9 7 0 ; t %.j.j.&.y.>.| i.i.u.8.i.y.&.u.s.-.u.;.r.&.&. .u.;.u.y.j.j.u.,. .y.u.i.i.>.,.u.B.N.M.l.N.l.j.n.| r.p.( $X`.A.Q.",
"Q.^.T 4 ; Z < 3 k ^ >.l.>.,.u.8.r.l.j.i.u.j.u.y.u.i.i.i.&.o.&.&.u. .;.;.l.j.y.i.%.>.u.u.i.#.i.u.u.l.u.j.j.N.l.l.+.{ ..6.Z.XX<.t.",
"<.+X^.o.  a : ; i i k W J J ! x P | X.} W W { !  .! U J ! P W J P | H i J J F z z g F P ! J } J z | >.X.X.J P ! g i ' C.a.XXXXg.",
"<.D.6.h O * t i J { ;.>.-.u.u.;.~.x.L.S.l.;.| >.S.u.u.u.y.u.>.;.N.D.i.i.y.u.@.} x ! X.>.u.t.x.>.M.l./.P.L.;.W X.! g N 5.}.$XqXXX",
"Z.$.$.  0 1 6 G G ^ u.;.>.,.t.u.H.i.l.j.,.| ! y.k.X.&.u.r.X.X. .k.i.;.%.&.&.%.~ z ! &.X.&.>.,.h.N.u.>.j.;.W G ;.} x s ] C.}.iX}.",
"$.R #.t 0 ; i Y ^ X.;.>.;.} >.X.u.<.l.y.;.{  .h.k.X.-.;.r. .{ | u.;. .X.&.;.%.X.F { | | ^ ! h.;.l.x.y.;.X.! X.X.| Y z N 0.~.,XE.",
"$.V.2 & p > J  .X.y.,.u.>.u.i.8.K.N.M.u.| { ;.l.k.%.X.X.X.{ P { u.>.>.i.y.;.,.k.>.#.;.r.X.@.>.;.N.N.j.;.X.;.;. . .X.G s 3.E.f.t.",
"V.V.b $   6 ! ;. .| >.-.>.;.;.>.k.l.h.>.&. .u.-. .^ ! ^ { o.! P | >.,.,.-. .-.,.{ { &.&.u.&.&.;.,.>.u.%.| | X.^ ^ Y J F q.|.6.G.",
"V.a.9 # : 6 J ~ >.^ { | &.X. . . . .&.Q |  .;.P %.-.%.&.{ { { { ! | {  .-.| ! { J P | ! | | &. .>.%.| } | { Y J  .! Y J K 5.T v.",
"m.#.p 8 > i W ^ ;.;.X.&.>.>.&.y.r.;.&.&.X.%.y.&.&.%.%.;.X.{ X.;.;.,.;.t.N.l.| { ^ { | u.&.| y.i.k.y.{ { | ^ ^ ^ ;.| ! F / 5.v.v.",
"V.! p < t J | | ;.>.r.k.,.y.>.;. .&.u.u.;.u.;.! { .. .;.y.X.r. .>.u.u.u.l.z.;.| ! | j.N.X.-.i.N.k.N...;. . .! ! | { Y Y L q.R.V.",
"6.p # , t Y r.#.;.X.>.,.-.>.,.u.X.8. .>.l.a. .-. .6.&.r.r.| X.X.| X.r.X.u.n.t.| o.&.N.k.>.;.c.L.l.y.| &.;.| | -. .o.{  .o.4.4.4.",
"p.K 7 ; t F !  .>.^ | ^ ! Y | _ ^ | { u.| |  .u.l.X. .i.&.W  .| X. .{ ! #.;. .^ ^ ;.u.^ >.;.&.&.y.H _ &.H P ;.;.u.{ ..| { [ 0.o.",
"o.1 $ , u P } #. .;.| ^ J P Y W { {  .y.W ! ;.u.u.&.;.X.| { X. .&.X.H ! ;.r. .u.X.i.>. .;.&.;.;.n.| %.&.J P o.&.l.&.&.J L A 0.8.",
"n , , t H | r.i.d.m.i.y.{ #.o. .l. .8.u.r.X.>.i.l.y.;.r.r.;.u.>.y.y.X. .y.;.;.l.k.M.j.j.t.u.{ ;.H.;. .y.;.X.u.l.j.>.;.r.P 3.2.4.",
"A N = 5 J X.k.h.l.L.k.&.! >.;.>.h.,.;.u.r.y.u.l.u.;.y.l.u.,.u.l.i...|  .&.y.u.u.l.l.&.&.| ;.;.;.h.>.| r.j.>.t.M.i.u.s.l.+.L L v ",
"V 7 ; k X.i.l.,.l.B.l.;.X.u.>.y.c.u.i.,.u.h.l.l.j.l.N.d.z.k.k.l.r.} { o.y.y.u.i.k.i.i.;.#.>.i.j.x.u.u.i.l.l.l.j.j.n.m.d. .z ' [ ",
"8   > i | u.>.| | l.X.r.P } ^ | >.} } ^ -.;.| ;.:.t.u.@. . .;. .^ ! ! | X. .| | | r.&.;.! } ^ @.^ @.@.@.-.;.X.r.i.u.#. .x K ] w.",
"1 # : g ! #.X.>.i.N.&.} ! ! }  .X.| ! :.>.X.{ | X.>.>.;.^ Q { | ! P { J ! { | ;.u.r.&.| | | -.@.>.@.-.,.^ ^ X.! } ;.&.;.J C M Z ",
"r r w Y s.l.h.c.L.M.l.l.X.X.,.i.y.;.u.D.J.x.z.l.K.z.N.l.u.X. .X.| P } X.,.u.i.l.M.l.l.l.l.i.l.d.u.x.u.x.l.l.d.u.x.l.z.j.-...a q ",
"m r u ~ s.i.l.h.l.r.m.B.i.u.:.d.l.N.d.m.L.Q.N.l.K.M.k.z.i.&.>.;.! ! X.;.u.h.l.l.n.n.m.M.N.l.l.i.,.S.u.l.N.N.z.a.S.z.l.l.-.| v N ",
"v e F } l.l.z.d.h.B.!.L.r.y.>.l.~.S.l.l.B.~.l.x.M.M.h.l.&.;.| X.} | %.i.N.N.l.M.i.i.M.B.l.u.M.N.m.m.l.d.j.H.M.l.I.x.l.M.X._ / w.",
"9 b F | l.l.M.u.l.H.M.l.8.i.j.u.l.D.N.z.c.j.d.l.l.k.:.>.;.;.&.;.;.;.X.;.l.S.B.d.i.i.l.n.i.&.M.l.l.Q.N.S.L.l.i.j.l.u.>.>.&.{ b 3.",
"  = i ! ! :.i.X.} ! X.| ;.,.u.:.L.n.P.P.l.X.{ r.N.,.>.h.u.y.r.y.z.l.#.r.u.u.-.~ G J  .;.u.u.k.&.N.N./.^.L. .W  .P ! ^ | ;.;.F e ",
"* $ a J ! | -.-.! | >.y.u.u.,.l.m.l.M.l.u.| P u.k.-.&.u.;.&.;. .u.l.r.X.;.;.^ ^ x !  .u.:.:.s.c.n.;.i.h.u.! J ;.} { ! X.;.| 7 c ",
"< = s H |  .;.%.! %.&.;.y.>.@.! x.,.l.r.>.| | l.N. .@.;.r.;.X.{ >.>.y.X. .;.X.| H !  .| |  .h.| L.N.k.y.h.| ^ ;.| ! | X.u.| f c ",
"= = s ! X.| >.,.^ >.,.,.y.h.;.&.l.l.j.y.;.{ ;.h.k.| ;.| X.| ^ Y ;.>.y.h.u.r.,.u. .| y.;.&.-.>.X.m.N.l.y.&.8.;.&.| @.u.y.h.| s v ",
"= * u F P P  .-.! J |  . . . .| ;.>.y.r.{ W ;.} ! J F P P H J F { &.X.X.^ ^ ~  .J J { &.;.| X.~  .%.&.| W W { P G J J ^ _ J k a ",
"0 < t i F G P W | P P %.%.| | ! ! { ^ P ! H ! z ! H ! { J F J J P P ^ { ! J H J z k z Y { { _ W ~ ;.| | P Y F u J J Y Y ^ z s v ",
"= * t P r.&.| X.h.&.;.;. .j.y.8.r.r.;.X.;.&.u.%.#.@.;.r.;.| X.#.>.u.>.u.l.u.| >. .L  .#.X. .y.y.j.l.| ~ X.| ! ! ^ { { { ,.;.V r ",
"< * : P #.#.;.X.;.y.>.>.>.#.r.>.X.X.;.-.u.:.u.W {  .X.;.r.| r.r.X.k.>.u.s.z.u.} J &.u.x.;. .l.D.u.l.^ | -.X.^ ^ ^ ! P { ,.-.N a ",
"q 0 & H } >.:.;.u.&.u.u.>.&.i.>.| #.;.r.z.s.@.&.&. .8.r.y.| &.| X.;.u.&.h.x.u.^ { ;.l.l.u.;.x.L.j.y.| &.&.|  .y.X.;.o.u.u.| L l ",
"* w 0 i x J { { | ! ^ ;.| W W ! W _ { &.%.! | %.u.| {  . .! | W X.X.| L  .:.| ! J >.u. .>.| ;.&.r.F W  .F P  .^ u.W W | r.} H < ",
"& = * t x ! ^ !  .} W ! F P J _ &._ { r.| { | y.r.r.#.} ! ! ! { X.o.J J #.r. .| ^ y.;. .! { | ;.M.{ X...P W P | i.&.;.{ | ! & < ",
"0 = . i X.;.r.r.i.i.y.#.{ ;.#.r.i.{ r.l.u.X.;.j.i.l.;.;.y.X.X.r.&.r.%. .i.u.y.j.j.d.u.d.t.t. .l.L.| &.i.y.o.r.l.u.i.y.X.;.X.  = "
};
