/* XPM */
static char * wall2_xpm[] = {
"128 128 15 1",
" 	c #58493E",
".	c #9B8172",
"+	c #66554D",
"@	c #4C3C36",
"#	c #8E786C",
"$	c #929190",
"%	c #968377",
"&	c #B4A195",
"*	c #736566",
"=	c #4E3F3C",
"-	c #403630",
";	c #574A43",
">	c #342D29",
",	c #160A08",
"'	c #B3A199",
"  ...+ ..@......+ +.....      #.#@$$...$@........@#....#+.......  %%+ %% &&&&@#....###..........#........@@&.@@@##....+&&&&&&++%",
"+...++@@@@#++++++.   +.+#..   @@@@@%.@$$@........@....... ++++  ..++%%+%+@@@@@......@ ... .......@@@ .. @#+%+@@#...... +++++++++",
"....++.. #........      #..+ . ++@%%%@@. ....    #.*.....@     .... +%+%+ @@  +.....+ .  .@......@@@@@@@#%%%+*@#......... $....+",
"+..+.....#........ .... #...++ +++.%%@@@@@@@@#.@@#.*#...@@...# ..... ++++%  ....+@@@@ ....#@....@ ...@#@.%%.+*@#....  ........$#",
".#+#.....#........#..........+ ##&&+@......@......# # @@ ......  .+..+++%%. .......  @ ...#@@@@@ .....##@++++@@+.... ...........",
"..@......@ ...... ............ ##&&#.......@......... . ........  .... %%%. ........#...@ ...@.......... ##++@++##.#............",
"..@......@ ...... ++++**++.... +##&+@..@...@......... ##..............+%%+  .............@....###.........#%&%+#@@@......#$$$#.$",
"...@@....@..# ++ .%%%%%%%+.... ++++@@..@#@@@@....@ .     ........#++.. %% @#+**$ . #.....@@.....@.........@%&&+@..#......#...@.$",
"....@@@#@@..#%  +.%%%%%%%+....  +#@....@@...@@@@@@ #...# ........      %% ##+**+...+@@@.@@...... .........@%&&+@...@ ..  ....@$$",
"...  %%%%%.#%+ .%%%%%%**%+        @@@@@@@....@.@@#..... ......... %   ... *@$**$..+@...@@.......@........ @+%%+@.... @# .....@$$",
"...@%%%%%%%+%+ %%%%%%%%**+ %%+     #.@@@@.......@....  .........  %% ...# @+.+++..+.....@..@@@@@..      @@@#..@@......# .....@@#",
" . @%%%%%+++++ %%%%%%%%++%%%%% ... ......#@@....@....  .........  %% ...# +.%%+....@....@.@# ........  ##  #..@@@   @@@@@  @@@@#",
"   @ %%%+      %%%%%%%*%%%%%%%%  . @......@@@@@@@      .....      %. ....++%%%%%+..+@@@@@@ . ........ ....#@..#+..+.%%%%  #     ",
". +      %.+.%%%***%+%*%%%%%%%%  ...........@@ .....  ..  .%%  %%%%+ ..   +%%%%%%+++ .% %%%% ........ .....  .@.%%+%%%%%%  ..  #",
"&&& +&&++%%+%%%%%***+%%%%% %%%. ...@.........@.......... +%%%%%%%%%%+   ##@+%%%%%%+.%%%%%%%% ........ .....+ @@.%%++%%%%%+....  ",
"&&& &&&++%%++%%%+++++%+ %.  ..  .%.$@@......@@.......... +++%%%%%%%%%% #..#@+%%%+++% %%%%%%%   ... . #..... **+++%+ %%%% +...  .",
"&&+ ++++++++++.*%%%%%%%*++...@@$%%%$@@@@..@@@@      .... %%%%%%%%%%%%% #..#@++***++.     ++%%++   #++ .+   #+@*@+%+++++++ ..   .",
"&& +%++%%%%%+%%%%%%%%%%%%+...@@$%%%@.......@@##...#..... %%%%%%%%%+%%%%@..@+%%%%%%+    +%%%%%%%++%%%%+  %%%%.**@+%%%%%%%%+    %%",
"& +%%%%%%%%++%%%%%%%%%%%%+...@@$%%.@........@......@...  %%%%%      %%. @@@+%%%%%%++  +%%%%%%%%+%%%%%% %%%%%.@@@+%+%%%%%%+ .  %%",
"& %%%++%%+%%+%*%%%%%%%%%%+@@@@@$..$@.......@@......@ ..%%%%%%+....#  % #.@@+*%%%%%++  %%%%%%%%%+%%%%%* %%%%%+*##*+++%%%%%+ ..#%%",
".+%%%+++++%++%*%%%%%%%**%+     @@@*#@.....@@@@.....@.%%%%%%%+ ....#.  .#@@#. +***++.@@+%%%%%%+++*%%**+ %%%%%%#### & +%%%++    +*",
"%%%%%+++++++.%*%%%%%%%.++ &&&  *#**#$@@@@@...@@@@@@@.%%%%%%%+ ... #..+@@@@#. .# #....#+++++.%+*.+++#..&.+%++ *##$ &  +++ &&&%  *",
"+%+++%%%++%%%%%%%**+.....      *#@$@..#....... @@. ##@##.+++#... @@  @.@@@ . .. ........@@.&&&&&.+&&&...*@+@@$$$$ & +++&&&&&&  *",
"+++%%%%%+*%%%%%%%%%...... .@@@@@*@#............  ....................@@@@@#..... ........@............&..*..+@$$$++...+&&&&&&+ *",
"++%%%%%%+**%%%%%%%*.......... @$ @................. ................. @@@@#...... .......@...............&&..@$$*...... &&&&&  +",
".@%%%%%%+%%%%%%%%%*.......... $$$$.....@ ....... .. ..................@@@@....... .......@*......*...........@$$*......++ ++  %*",
"..#++++++*%*+*****+.........  $$$@@....@........@   ................. @@@ ........  ...  @@.....*@@*****.....@$$$+.......+@@@&&&",
"...   .% +*+...  ..#....     @$@*@@# .@@.......@+.+@@#++++ ......@... @@@@+.+  ....@+@@@@..*..*.*.+@.....+@@@@$$$+...+++.+@###**",
".. %%%%%%%  ... ....#...     @@#######@@..@@@@@@....++....+......@@@@@@##++...+...#.&&.&..&.&.*..........@@#$+&&@.....++++###@@*",
".. %%%%%%%% ... ....         @####=####..@#....+....+++...+...... @@@@@+......+...#..&...*....**.........@$#$#&&@........+####*#",
". @%%%%%%%% +.. ....+  .. .. ###  ====...@+.........+++..........#..@  ++++..++..  ..&&..*....*.&&.......@$#$$@@++++++...+@##@$#",
"..@%%%%%%+..#+ #+...#.     @@@# ####@....@+++...+++++++....+ ....@#.@#. ++ +++... @+....+@...*.&...@..@..@@.@$@++++++++.++++++@&",
" ..@     ++.....@  ...#@.%%%%@######@....@+......+..++.....+@@@@   ....  .. #... ... @+.*&..**&&..**@@@@@%@@@..@+++.+.%++.%%%%@&",
"....@................ @%%%%%%%.#####@....#+......+..+........++ %%%%%%. #...#... ... .&.&.....&...****@ %%%%%%%@+...+%%%%%%%%+@&",
"....@.................@%%%%%%%%#####@@  @@++++++++++++........+ %%%%%. #..... .  ... &.......+.....**.@%%%%%%%%@....++%++%%++++#",
"...@@.. ..............#%%%%%%%.*### @.....#@*#*%%%%%% +........ %%%%%  #....+ #   ++ ........+**......@%%%%%%%%@...+#%%+++++++&&",
" @#.... ........@.... @%%%%%%%@@**@@.......@#&#%%%%%% +.......+ %%%%%   +.........++ ...&....+**.&....@ %%%%%%%@+.+.%%%%%+++++&&",
".@...#@@ ..@@@@@@#@ @@ .%%%%%.@@@@........ @#&#%%%%%% +.......+ %%%%%       ......++ .*......&+@&&.....@   %%%@@%++%%%+%%+++++**",
"...........@+... #..#..+ .%%%@@#..@..   . @#***.%%%% ...           %% -+%%%+......+  &*.&&..&&&+....***...@@&&&.&&++%%%%%++@....",
".......... .....#.........#%%@@....@@@ . @.......  #..........    #%% +*+%% +++..+ #&&..&.*.......&......*@@&&&.**++%+++++@.....",
".......... ............... ..@#.....@ ..  .......  .............  @   +; ...  ++++ &&&&..*...............@+@&&&@           .....",
".. .......+............... @@@......@.... +......  .........  ... .%@@@ %%%%+......&.&&&.@@.............*@@@.@@ %%%%%%%%%% #....",
".. .......+..... ... +...+ %%%......@.... +......  ......    .... %%%@+ %%%.+......&...&.@+.&&.&&&&.....*@%%%%%+%%%%%%%%%%+ ...@",
".@@......@#.....  #  .#   #%%@#.....@...   ......  .... ........ @%%%@  %%%++.....+&&&.&.@+.&&&&&&....@@@+@@@..+%%%  %%%+%+ @@##",
"..@%###@@+. ...........    @@@###@@@ .      +....  ...#......... @%%%@  %%% +......+....+@@.&&.*.....#@+@+@.@>@ ++++ %%%%   ++@&",
". @%%%%%%%% #...........# .. ###  ===  ..@+.          ..........#@@ @@ . +  ++.++. .++@+*.++..*.......#..@>#>>@@+++++%%%+ @##@>#",
".. %%%%%%%% .+...........    @####=####..@#....+.... ...........#@@@@@@+ .....+...#..+..&&&+*.........+..@>#>#&&+++++%%%++####*#",
".. %%%%%%%  .............  # @@#######@@..@@@@@@.... ...........# @@@@@##++...+...#.&+.**..**..&......+..@@#>+&&      ++ +###@@*",
"...   .% +*+...........#     @>@*@@# .@@.......@+.+@ ...........  ... @@@@+.+  ....@+.&*@....*+*..**..+..+@@@@>>>+...+++.+@###**",
"..#++++++*%*+.........#   ..  >>>@@....@........@   #   .....    .... @@@ ........  *&.&..**@...*@@*+@#*.....@>>>+.......+@@@&&&",
".@%%%%%%+%%%%###     #   .... >>>>.....@ ....... ..  ..     # #.......@@@@....... .....&&.*@+....*...........@>>*......++ ++  %*",
"++%%%%%%+**%%%%%%%*.......... @> @................. ................. @@@@#...... ....*..**@.............&&..@>>*...... &&&&&  +",
"+++%%%%%+*%%%%%%%%%...... .@@@@@*@#............  ....................@@@@@#..... .......@#............&..*..+@>>>++...+&&&&&&+ *",
"+%+++%%%++%%%%%%%**+.....      *#@>@..#....... @@. ##@##.+++#... @@  @.@@@ . .. ........@@.&&&&&.+&&&...*@+@@>>>> & +++&&&&&&  *",
"%%%%%+++++++.%*%%%%%%%.++ &&&  *#**#>@@@@@...@@@@@@@.%%%%%%%+ ... #..+@@@@#. .# #....#+++++.%+*.+++#..&.+%++ *##> &  +++ &&&%  *",
".+%%%+++++%++%*%%%%%%%**%+     @@@*#@.....@@@@.....@.%%%%%%%+ ....#.  .#@@#. +***++.@@+%%%%%%+++*%%**+ %%%%%%#### & +%%%++    +*",
"& %%%++%%+%%+%*%%%%%%%%%%+@@@@@>..>@.......@@......@ ..%%%%%%+....#  % #.@@+*%%%%%++  %%%%%%%%%+%%%%%* %%%%%+*##*+++%%%%%+ ..#%%",
"& +%%%%%%%%++%%%%%%%%%%%%+...@@>%%.@........@......@...  %%%%%      %%. @@@+%%%%%%++  +%%%%%%%%+%%%%%% %%%%%.@@@+%+%%%%%%+ .  %%",
"&& +%++%%%%%+%%%%%%%%%%%%+...@@>%%%@.......@@##...#..... %%%%%%%%%+%%%%@..@+%%%%%%+    +%%%%%%%++%%%%+  %%%%.**@+%%%%%%%%+    %%",
"&&+ ++++++++++.*%%%%%%%*++...@@>%%%>@@@@..@@@@      .... %%%%%%%%%%%%% #..#@++***++.     ++%%++   #++ .+   #+@*@+%+++++++ ..   .",
"&&& &&&++%%++%%%+++++%+ %.  ..  .%.>@@......@@.......... +++%%%%%%%%%% #..#@+%%%+++% %%%%%%%   ... . #..... **+++%+ %%%% +...  .",
"&&& +&&++%%+%%%%%***+%%%%% %%%. ...@.........@.......... +%%%%%%%%%%+   ##@+%%%%%%+.%%%%%%%% ........ .....+ @@.%%++%%%%%+....  ",
". +      %.+.%%%***%+%*%%%%%%%%  ...........@@ .....  ..  .%%  %%%%+ ..   +%%%%%%+++ .% %%%% ........ .....  .@.%%+%%%%%%  ..  #",
"   @ %%%+      %%%%%%%*%%%%%%%%  . @......@@@@@@@      .....      %. ....++%%%%%+..+@@@@@@ . ........ ....#@..#+..+.%%%%  #     ",
" . @%%%%%+++++ %%%%%%%%++%%%%% ... ......#@@....@....  .........  %% ...# +.%%+....@....@.@# ........  ##  #..@@@   @@@@@  @@@@#",
"...@%%%%%%%+%+ %%%%%%%%**+ %%+     #.@@@@.......@....  .........  %% ...# @+.+++..+.....@..@@@@@..      @@@#..@@......# .....@@#",
"...  %%%%%.#%+ .%%%%%%**%+        @@@@@@@....@.@@#..... ......... %   ... *@>**>..+@...@@.......@........ @+%%+@.... @# .....@>>",
"....@@@#@@..#%  +.%%%%%%%+....  +#@....@@...@@@@@@ #...# ........      %% ##+**+...+@@@.@@...... .........@%&&+@...@ ..  ....@>>",
"...@@....@..# ++ .%%%%%%%+.... ++++@@..@#@@@@....@ .     ........#++.. %% @#+**> . #.....@@.....@.........@%&&+@..#......#...@.>",
"..@......@ ...... ++++**++.... +##&+@..@...@......... ##..............+%%+  .............@....###.........#%&%+#@@@......#>>>#.>",
"..@......@ ...... ............ ##&&#.......@......... . ........  .... %%%. ........#...@ ...@.......... ##++@++##.#............",
".#+#.....#........#..........+ ##&&+@......@......# # @@ ......  .+..+++%%. .......  @ ...#@@@@@ .....##@++++@@+.... ...........",
"+..+.....#........ .... #...++ +++.%%@@@@@@@@#.@@#.*#...@@...# ..... ++++%  ....+@@@@ ....#@....@ ...@#@.%%.+*@#....  ........>#",
"....++.. #........      #..+ . ++@%%%@@. ....    #.*.....@     .... +%+%+ @@  +.....+ .  .@......@@@@@@@#%%%+*@#......... >....+",
"+...++@@@@#++++++.   +.+#..   @@@@@%.@>>@........@....... ++++  ..++%%+%+@@@@@......@ ... .......@@@ .. @#+%+@@#...... +++++++++",
"  ...+ ..@......+ +.....      #.#@>>...>@........@#....#+.......  %%+ %% &&&&@#....###..........#........@@&.@@@##....+&&&&&&++%",
"... ++... #.....+....... .... ...@>.....>#@#.....@++##@.........+ %%% ++ &&&&@@.#+###+....#.............. @&&@@  .....+&&&&&&++%",
".... @....##....+....... .... ...#>.....>@@@#...++++++@.......... %%% ++ &&&&@@@@....@ ...##@#.#.........@@&& @ ..... +&&&&&&&+%",
" ...+@...###+++.+ ##     .... ...#+.....@   @+++.+..+@.# +......  %%% ++ &&&&@@ #.####@++##.++.##....##@@@@...@@#.. ++++++..+++%",
"##.. +@@@+...++.....++++ ... @...@+++++##### +......+.......@@@@##.  +%% @&&&.#. #.#@##.##..#.......+++ ## ....@++++%%%%%+++++%%",
"..@+..+.++...++........+@@@@@@..@@...++ #####+..+..++............    +%%  ..&++.+ .######@##............   .....%%%+%%%%%+%%%+%%",
"..@.......++.+.........+@...@@#.@@...++@#####     @@@.............%%%+%%  ...+++.. ##.#####@@........... + .....%%%+%%%%%+%%%%%%",
"..@.......+++++........+....#@.%@+.....+####@%%%% ##@@..........@%%%%%%. +........ #.....#.#,...........++ ....+%%%.%%%%%++%+%%%",
"..@+.....++.+.+++++++..#....#@.%@++....+ ###@%%%.####@..........@%%+ ..+*+........ #......##@,#. +..... ++ ++@@+%%%%%%%%++%%++%%",
"..++++++++....++........#..#@++++++....+####@.%. @####.........#@@%%  +&&*#......  +....#######...#...@+%% +&&++%%%%%%%%++%%%++%",
"++......++....+.........+++++++.......+@###+#####+ ##@........@.. @ @@@&&* ..++  %%++++++@#.#.........#+%% +&&&+%++%%%%%%%%%%+%%",
".........+....+.........+.++++......#++++#+%%%%##+####............@@..#.&++++++++%%%%%%+.+............# +% +&&&++%%%%%%%%%%%%++%",
"...........++++............++......+....++#%%%%##+@###............@@. #..%%%%%%++%%%%%%%%..#..........# ++ +&&&+%%%%%%%%%%%%%++%",
"............++........+....++*++........++%%%%%%%+*# .........@#..##..#+%%%%%%%%+%%%%%%%%.+++........#+ ++ +&&*+%%%%%%%%%%%%%++%",
"#.......++..+.........++...#&&+++........+#%##%%%+## #........ @@##+#@@.%%%%%%%%%+%%%%%%%++%+#..+++..++ +% +&&++%%%%%%%%%%%%+%%%",
"% +...+++++++...++++###@@+++&&*...........++++#.  ++*@@##......@@@@..++.%%%%%%%%%%+%++.%+++%++#####..+@@ . %&&+++%%%%%%%%%%%++%%",
"%%+ ++**...+++######%%##@@**&&*.............+**++##+ ...........@@#.%%+.%%%%%%%%%%+%+.+.++++#.....#....+>#>&&&+#. #%.%#%%%%.++%%",
"%%%+ ***+..+.+#%#%%%%%## @**&**..........++++.*+###+ ............@@+%%+.%%%%%%%%%++%+.++%%%+............@>>+&&+......&&#%..+..++",
"%%%+**&*+...++@%%##%%%###@++++...++......+.+*..+#### ............@@@+.+...%%%%%%%%%%+++++%%+#...........@>>@+++......#&##%%%+...",
"%%% &&&&+..+ # #########  %%  ***@@@@@+++..+*.**+## @ ...........@..@@+...+++%%+%%%+++++@ ++..#####...##@>@++++#.... #%#+%%%+...",
"++ *&&&&&++##%%#%%%%%###  %%% @#####@+.....+*......###@......... @...@+....++%%%%%%.%%%%**+......#....#+*@*&&% +....##%##++%+...",
"##@#&&&&&+#%#%##@##%### @@%%% #######+.++.++......@####@.......#@@...@+.....+%%%%%+%%%%%+**..........##+#@*&&* ........#.# +++.+",
"%%####### #%%%%##@### ###@@   #######+.++++++++**+ ##### ###  ## @...@+.....+%%+%%.%%%%%+*+.......#####+@>+&&* ...........++%+++",
"##%###%#####%%%%# %%%#####@  @#######*...+++++++++ ##############@@#@@ +....+%%%%+%%%%%%+@@+....#...#.#.+@@&&+ ...........++%%%%",
"#%%%##%#%#################@%#@+@####@@..++.......+@############# @.%%@   ++..++.+++%%%%%+#.#####.....#.##@#    .++++...... +%%%%",
"#%&%%%%%### ######%######%#&%@++ ..+++++  .......+++###########  @%%%@   .#    ... .%...#.#...........#+#@#&&&% +##....... +%%%%",
"&##&%&&&######%%@@    %@#%%&&@++..++..... +++++#....++##@>@   @@@ .%%@ .... ....... +#@+#......#.#.##+@@##,&&&&  #........  %%%%",
"   #%##  ###  #  #    @@%%%%%#@...+......+++++++.....+>+++#%%#+  ...#  ...........  @##@##.......####+*@@+ &&+  . ...... .++ +%#",
"  # ### ####@###%%%###  %%&%%# @@@###....++++........++######+##.....       ......  +..########......#*@@&&&&+   #    .. ...+ &&",
"###  ####### ########  @%%&%&&##%%###@ .+ +++...++++++###%####+#...... ....  ##  +++.........@#......++@ &&&&&  .... .......+ &&",
"####### #### ######### @&&&&&&%######@@@@++++....++++##%%%%#%#>#....... .... ## +%++......###@#....#+>>>+&&&&& #.... .......+ #&",
" ######++### #%&%# ###  @%##%##% ####@##*...+#++...++######+#>> ....... .... ###+%%+++@#..####..++@+##@> &&&&& +.... ........ #&",
"+++++++.+  #@ %%%###%#      @@ ######### ... +## +.++++##%%.++>>>>+##..  ..# ###+%%%+...  +.++....####>++      +....##.   #..# &",
".++.....+@  ## ############# @  ###  @#*@++ #### ++++++%#%%#+#####++>+...    ### ++ +... ....+####.#@++++####@@@...+  +++ +... .",
"+++.....+ ########## ####### @#### +.+  +++#####+++++++#%%%#######+#+> .#  ...... +..... .... ##....#+..+###@@#@*.+.+....++... #",
"..+.....+ #####  ###  ###### @%####.... ######## ++.+**+#########++#+>++ #.......+......#.... .#.....++++@@@@@##@.........+... #",
"........+%%%######%#@ @@@@@@@@ %&#....++######## ...*...####%########+>>+#............. #...++..#.......+++.#+*#@............  .",
"..+      ##  ###  ##%%#%#####    @....  ####+#++ +++#..+####%##%#++++++>>>....+.......   #.#+++##++.....++..+++*@........... +++",
"..+ .++++   ##### #%%%#######  #@ ...#++++# +#++++++###+########+####++#+>#......   ... +++#......+..........+@@@........+ #%%%*",
"..+....... #####%############# # @  +#####+>%%###%+>##############%%##+#+>>#.## ++..... ..++......++.........+**@#.......  ***%*",
".+ ....... ##################### @##%####+++#%#####+##########+#%%####+##>+  #......... .++.......+..........+**@@.....+ ###**%+",
".+ ...... @##%##%########   ## ##@.##%+####+####+++####%%######%#####+##++#* .......... +++..............+.+++@*@@+...+*&&&&&*.*",
"+++++++   @#%%&&&%%#####@@   # ##.%.+%+%%%#####+>+#%%%%%%%%%%#%%>>++#+++#%#*#.......... +++.............++...+@**@**..#&&&&&&&**",
"%%%%%%%%++  %##%%%##### @%%%%# # .%%##+%%%%%%%#+> +++#++%%%%#%%##>+%%#>+.*%. .........+@ @@......#......+ #...@@@+%%*@@*&&&&&*@#",
"%%%%%%%%++++ . ...+#. ++#%   #  #..#@@@@ ###++++....+++%#%%%++##%++%#+++>>#+    .....+  ... @#+#+......+.. ++++++*%.@%%%@@@@@@ #",
"%%%%%%%%+%+++ ........+.+  +  #+ #@......@+..# ...... +%%%%%#+###+>++###%#>> %%%  ..++ ......@+++..++  +... @@@@@@@.%%%%%%%%%@ #",
" +%%%+ .%%%%% ........... ...+.+ ##...... ++.. ....+. +#########+++####%%%+>%%%%%++.++ ......+%++...+..... @@.....@%%%%%%%%%%@@#",
".  #    +%%%% ...........#...++. # ......@++++ +.. #..#  #%%%%#+++#%%%>#%#+>%%%%% ..+++ ....%%%++...+++... #......@%%%%%%%%%.@@*",
"....... ****   .......... ......+  .....# +  ..#   ##..++%%%%%++%##%%#+####> %%%+ ++  ++ @@.%%++=...++     .......#.%%%%%%@##@@@",
"......  &#&*@@@@+.......+  ...#+ @...##..... ..++.. +..+++%%###%%%+#+#%%%##+#%%%    . ..#.++%+=%%%=+ %%.  ...##.. @#%%% @@#####@",
"... .%..###*....@@....+.%@@@@@@@@@..#@ .....+ ##+..++++++>#>+%%%%%>>++++%#++#.%  ....    %%++ %%%%=.%%%%% ##@@#... @.%@>######.*",
"... .%%.&&*#.....@##..%%%%%%%%%% @##..@.......# .........+##%%%%%%+#%%%%##++> #.... ..  .%%%.%%%%%.%%%%%% .#..@...  @.@#####>#.*",
" .. ++++&.&*@.....'%#%%%%%%%%%%%%@.....@+.+++. ..+....... +%%%++%%%##%%%%%>>#.# ...  .  %*%%%&+%%%%%%%%%%%........  @#.######>.."};