/* XPM */
static char *_01223f627a44764f03b882726349d7ecwNFfg79udwSRV8o[] = {
/* columns rows colors chars-per-pixel */
"64 64 169 2 ",
"   c #554F3F",
".  c #5F5846",
"X  c #5B584B",
"o  c #696756",
"O  c #6A6857",
"+  c #676859",
"@  c #6C6C5B",
"#  c #716D5B",
"$  c #6F705E",
"%  c #77735C",
"&  c #716E61",
"*  c #757364",
"=  c #797767",
"-  c #7B7966",
";  c #7A776A",
":  c #77796A",
">  c #7C7B6B",
",  c #7C7E71",
"<  c #857E66",
"1  c #817F6C",
"2  c #817D71",
"3  c #848066",
"4  c #84826D",
"5  c #8A856C",
"6  c #848374",
"7  c #898773",
"8  c #878977",
"9  c #8D8A75",
"0  c #85877A",
"q  c #87887B",
"w  c #8C8B7B",
"e  c #928D74",
"r  c #918F7B",
"t  c #939075",
"y  c #94927C",
"u  c #99967E",
"i  c #9D9A7D",
"p  c #A19D7D",
"a  c #8B8D83",
"s  c #918D81",
"d  c #8F9082",
"f  c #939383",
"g  c #999582",
"h  c #9C9B84",
"j  c #949688",
"k  c #999789",
"l  c #96998F",
"z  c #9C9C8B",
"x  c #9C9E91",
"c  c #A19D84",
"v  c #A19F8A",
"b  c #A29F93",
"n  c #9FA18E",
"m  c #9EA192",
"M  c #9FA298",
"N  c #A4A185",
"B  c #ABA883",
"V  c #A4A38C",
"C  c #A9A68D",
"Z  c #ACAB8D",
"A  c #B1AE8E",
"S  c #B4B08D",
"D  c #A3A493",
"F  c #A9A693",
"G  c #A7A994",
"H  c #ABAB94",
"J  c #A3A699",
"K  c #A8A699",
"L  c #A6A99C",
"P  c #ACAD9B",
"I  c #B1AE94",
"U  c #B1AE9A",
"Y  c #AFB095",
"T  c #AFB19D",
"R  c #B3B295",
"E  c #B9B596",
"W  c #BAB897",
"Q  c #B4B49C",
"!  c #B9B69B",
"~  c #B6B99E",
"^  c #BBBA9D",
"/  c #ABADA1",
"(  c #AEB1A3",
")  c #AFB2A8",
"_  c #B4B5A3",
"`  c #B9B7A1",
"'  c #B6B9A5",
"]  c #BCBBA4",
"[  c #B3B6A9",
"{  c #B9B7A8",
"}  c #B6BAAB",
"|  c #BBBDAC",
" . c #BCBEB1",
".. c #C0BE9F",
"X. c #C1BEA4",
"o. c #C1BEAA",
"O. c #BFC1A6",
"+. c #BEC1AD",
"@. c #BEC2B3",
"#. c #BEC4B8",
"$. c #C3C1A6",
"%. c #C2C2AC",
"&. c #C8C5AB",
"*. c #CAC9AE",
"=. c #C3C4B2",
"-. c #C3C4B0",
";. c #C5C7B3",
":. c #C4C4B1",
">. c #C3C5B7",
",. c #C2C6B5",
"<. c #C6C5B4",
"1. c #C5C6B5",
"2. c #C2C5B5",
"3. c #C9C7B3",
"4. c #C7C8B1",
"5. c #C6C9B5",
"6. c #C9C8B6",
"7. c #CBCBB6",
"8. c #C8C8B4",
"9. c #C9CAB6",
"0. c #C3C7B8",
"q. c #C5C7B9",
"w. c #C3C6B9",
"e. c #C5C9BB",
"r. c #C7C8BB",
"t. c #C6C8BC",
"y. c #C6C9BB",
"u. c #C9C9B8",
"i. c #C8CAB9",
"p. c #C9C9BD",
"a. c #C8CBBD",
"s. c #CBCDBD",
"d. c #CCCEBD",
"f. c #CCCCBF",
"g. c #CECFBF",
"h. c #CACCBD",
"j. c #CDD1B7",
"k. c #CFD0BE",
"l. c #CDD1BE",
"z. c #D0D2BF",
"x. c #C7CEC2",
"c. c #CBCDC0",
"v. c #CBCFC2",
"b. c #CCCDC0",
"n. c #CFCFC3",
"m. c #CBCEC1",
"M. c #D0CFC3",
"N. c #D0CEC0",
"B. c #CFD1C3",
"V. c #CED1C4",
"C. c #CFD3C5",
"Z. c #CDD1C2",
"A. c #D0D1C3",
"S. c #D1D2C4",
"D. c #D3D2C5",
"F. c #D0D3C7",
"G. c #D1D4C4",
"H. c #D4D4C5",
"J. c #D1D4C5",
"K. c #D4D9C6",
"L. c #D9DCC7",
"P. c #D1D3C8",
"I. c #D3D6C9",
"U. c #D5D9C9",
"Y. c #DADDCC",
"T. c #DFE0CD",
"R. c #E2E3D0",
"E. c #E4EBDB",
"W. c #ECF3E3",
/* pixels */
"d.l.V. .q.w.| =.d.d.s.A.S.i.d.M.b.a.b.a.C.b.e.e.v.S.S.P.t.t.f.D.M.M.a.w.@.-.y.9.b.y.2.%.=.2.-.%.| 2.&.@.=.=.+.y.| ] Q x 9.7.' %.",
"f f d w f h f d j x n D f l D x m K D L L z D K J x z k x z f f s q d x D m z h f f f f w f 6 8 w 0 8 9 w 8 0 w d s s w a y v s ",
"F V H H Q P P P P G P V D z V | P Q ` _ P F F U U v v U P G G n f f v g h z j g w y h P V P n P G h n G V P V T ' I H _ H v v z ",
"f Q U R H ' Q N y v g 9 7 V Q ] H Q H u 7 y 9 9 9 v v v 9 9 Q D P U v V Q H G P h H I H V P 4 = = > w 9 9 V Q ` ` X.I I V F c c ",
"_ 4.V i u h V h V D y T ` | F V g v v { { 6.o.' o.| K g g ' F 4 f Q j _ T.R.G.G.d.{ 7 f g 9 D w z P F # . . = 4 1 n h t F g O.4.",
"5.7.y.,.| %.z.G.s.l.U.K.d.d.2.o._ y.H.S.Y.Y.A.H.H.M.2.o.,.2.| P P -.G.b.l.s.H.C.K.Y.` _ ' Y.A. .K.H.Y.=.v / K z T _ +.-.l.K.H.I.",
"| | -.i.5.' 5.-.' } ,.| -.=.y.2.i.i.f.d.9.7.z.z.d.A.d.d.d.+.b.s.i.V.c.@.q.q.,.| | 2.5.@.@.5.,.' 9.-.,.2.=.2.| | +.+.5.5.| ,.@.%.",
"@ = > % 1 > > * * = = * $ > > * * > ; = > > - 4 = ; 6 w 9 6 6 w w 8 ; 2 6 6 > , w 6 : , 6 : > 1 ; ; = & = & @ = O O * + * + * % ",
"y e 4 4 e * > z f z n n D z D l b K f f x x K b D b D s K _ K g F / G x K F D / / m D f D f D K D m M x J z g j n f ; X ; = 9 y ",
"^ C y C H F 7 4 5.5.4.5.| 5.i._ ' D 2.s.l.i.v v b u r r s | U v V z z r F F D T F h / w.i.i.2.i.a.s.-.Q y y V P Y 9.n V Q H Z Q ",
"$.&.&.$.&.*.^ 5 h T.7.N 5 9 u 5 7 % F o.g g c C c F ! X.c r z ` E X.` R E U v v F N 4 6 f 7.L.j.-.%.h 9 P ] R N 4 e 9 9.O.$.$.X.",
"~ $.X.X.X.A Z p 5 F i V p i i p p < % % t ! ` ] X.! I ` ^ I E Z E X.] ` o.X.X.o.&.X.v e 3 4 g y 3 4 h $.$.V C S ^ C ~ $.] ] W W ",
"^ ! &.$.~ V Z B i h Q %.! ` ` H C C g r y ` ] ! ` U W X.o.W ! ..X.o.X...! U I Q ~ R C E R G C y i n ~ $.W % N A O.^ $.$.$.E ..$.",
"&.$.&.*.O.O.~ ] ' -.l.C.%.] ,.T P y.l.O.C ! ! ..X.^ ` X.X.R R ^ X.! R Q X.! X.! R H ~ i.-.5.5.+.-.j.%.~ R N Y E ^ ^ W W ~ R E ^ ",
"W ^ O.$.O.-.K.G.O.] s.a.%.C -.,.s.G.C.v.R ^ ` ] $.` R E E E ! ^ Q I ..X.X.o.o.o.3.d.S.F.,.%.l.' O.%.%.~ ] ' 9.] O.j.$...^ Z N E ",
"A E ..$.^ 9.Z.l.%.H | y.| I @.e.v.S.c.b.$.o.o.&.&.X.! U { Q ^ &.! ..Q X.X.o.X.o.A.S.G.l.' R O.! ~ E Y Y S Q j.E &.%...^ ^ p Z ^ ",
"R ~ $.&...+.Z.z.K.7.a.l.-.O.5.G.@.[ C.Z.s.%.] $.U %.X.I ] ] W W ..! ! ..&.7.o.P Z.y.i.y.~ Y ^ W ..Y Y R S ' 5...5.%...^ R E Z ^ ",
"~ 4.4.$.~ z.J.j.' U.U.l.Z.C.a.y.,.[ K.G.,.$.X.' | q.%.R I I R Z C R X.X...%.o.V +.+.l.l.a.5.O.Y R O.O.' P +.a.5.a.4.^ R R E N ..",
"j.~ G 5.h.K.Z.h.l.U.F.0.y.+.@.+.V.V.l.9.&.&.U ` C.e.q.=.' { ! Q I I X.X.o.X.o.` O.x.+.@.l.a.y.Y C O.y.,.y.y.@.+.5.Z.O.] ' O.j.L.",
"#.#.@.5.j.x.a.l.U.C.x.l.a.-.5.l.a.Z.Z.%.X.X.P | v.e.,.| ~ ! ! ~ ! I ..X.U o.` U #.a.Y T O.@.+.O.%.' w.,.-.,.] E Y ,.Z.Z.l.l.Z.l.",
"h.l.h.j.l.#.h.l.C.C.C.Z.a.a.5.,.a.+.y.i.] ' %.s.x.>.q.{ R E ! Q Z ` o.U | a.i.i.a.*.&.O.+.z.@.W $.S @.5.~ Y E E N ' a.l.i.K.i.5.",
"l.h.#.i.y.y.y.l.l.Z.l.Z.C.a.@.| Q F  .V.G.A.V.V.x.o.q.o...! Q R v ` M.b.C.C.v.i.J.! R O.y.l.h.+.Y N O.] S S W W V P Z.Z.C.l.l.l.",
"h.#.#.y.y.+.y.a.a.a.V.G.a.#.0.+.P V } s.s.b.s.s.n.x.c.>.o.` Q A V { b.t.s.i.,.' +.&.R ~ l.y.y.j.-.,.,.Y ! ! O...^ Y a.C.i.s.,.5.",
"y.x.y.a.y.@.9.~ Q V.l.y.5.+.@.@.+.[ =.y.y.q.y.v.x.o.>.c.o.U X.X.U >.t.r.y.e.,.| Y ~ O.Y Y ~ O...~ l.7.! ^ O.O.! E S O.x.,.5.0.l.",
"#.#.#.h.V.5.O.&.Q +.Z.0.5.2.@.#.@.y.a.0. .t./ q.a.q.q.@.q.{ X.o.Q w.a.q.>.q.2.| Q Q ] E Z R ^ ^ H @.%.E ^ ..O...^ W C y.y.,.y.5.",
"+.+.y.+.` %.~ X.Q ' a.#.e.e.e.@.0.a.0.0.2.q.P | V.q.w.@.2.6.o.I D q.a.a.b.b.s.| <.W R R ~ E Y W Y O.O.^ ^ $.O.O.O.O.R a.a.5.y.y.",
"+.O.j.j.$.%.$.] O.#.#.@.s.x.w.@.0.e.0.e.| %.] ` v.2.2. .y.a.2.P } a.a.q.s.b.a.V.I.,.E A E E R E ^ ] ~ Z E ~ W ~ ~ Z A l.a.@.5.l.",
"+.@.#.#.O.$.%.] | @.+.#.v.a.@.,.x.Z.a.v.i.<.%.P @.,.w.q.i.i.f.G.d.a.f.q.e.i.l.V.s.y.Q I ^ R Z R ^ R Z R ^ ^ ....N O.5.Z.,.5.y.y.",
"} } +.' O.*.&.Q ' @.@.@.s.V.#.w.a.0.,.x.2.%.%._ } e.q.i.i.a.s.s.a.a.a.>.a.v.A.y.i.,.+.Q ^ R R ~ ^ ^ E ~ W ~ R C T T.U.I.#.#.-.5.",
"+.@.+.%.$.O.%.Q +.@.,.@.,.0.e.e.e.0.w.t.| =.} y.a.e.a.a.a.a.q.s.a.>.2.q.s.b.S.v.,.,.y.@.O.~ Q ] ~ A R ! O.~ W H +.I.C.Z.a.+.+.a.",
"} @.+.+.| &.%.| #.#.e.#.0.@.w.a.@.@.e.y.} s.e.a.w.t.c.>.>.r.,.a.a.a.a.S.b.a.v.a.q.q.y.e.C.Z.0.0.@.' O._ T T ~ Y #.l.l.C.a.5.,.a.",
"@.#.@.#.%.] $.@.,.@.e.v.e.#.0.0.} @.w.#.,.w.x.e.e.2.>.t.t.q.=.2.o.t.q.t.2.2.M.a.q.,.,.@.#.w.e.s.e.l.a.0.+.O.' +.l.y.Z.C.l.@.,.l.",
"#.#.x.y.4.Q ^ #.@.y.#.y.5.@.#.5.@.a.0.0.e.0.e.v.t.b.t.>.t.>.t.q.>.t.q.t.2.a.S.i.2.@.q.@.2. .w.q.2.a.0.-.+.O.l.y.a.#.K.C.y.#.4.h.",
"@.y.a.x.,.Q Y U.+.#.l.y.#.#.5.#.0.a.Z.e.0.0.v.e.q.>.a.a.t.t.q.t.>.>.q.q.2.d.,.w.@.-.2.=.w.>.w.w.y.5.l.} Y G l.y.l.J.K.K.y.#.+.5.",
"#.,.| l.-.H O.x.} ,.a.l.#.@.#.y.#.a.e.0.w.a.w.e.t.>.a.b.t.a.c.t.>.>.>.t.2.2.2.2.#.,.#.5. .@.>.w.y.' G x.+.Y a.a.l.y.K.Z.h.h.@.a.",
"Z.0.,.a.4._ ,.#.y.l.' ~ y.y.a.y.0.a.v.a.e.Z.a.e. .>.b.a.a.f.t.t.>.>.>.t.2.q.v.t.Z.@.,.,.2.y.e.y.a.+.' C.O.Y G.@.y.@.Y j.j.J.5.h.",
"e.0.v.y.l.y.#.-.0.#.T G l.@.#.#.0.#.C.l.a.Z.v.0. .>.c.t.2.t.a.q.@.a.y.0.q.b.Y.e.#.@.y.#.y.V.0.a.a.,.h.a.O.T U.a.K.-.] 4.Z.a.y.l.",
"@.#.2.@.4.@.a.#.0.y.G K.a.y.#.l.a.a.C.a.a.Z.w.| { t.q.q.2.,.2.t.| @.@.,.w.y.V.v.0.y.l.x.a.#.0.Z.a.#.#.y.#.C.0.l.C.' ~ H Z.y.,.y.",
"w.e.2.=.' ' l.#.h.y.P K.#.a.@.y.a.a.Z.Z.0.Z.@.@.w.a.w.w.a.y.q.y.#. .@.a.0.y.2.y.x.K.a.y.,.#.0.#.Z.a.0.#.h.l.#.-.j.O.~ Q @.5.,.l.",
"C.a.| @.5.y.y.@.y.#.} y.#.y.@.#.0.e.e.0.s.V.#.w.a.v.q.w.q.e.d.q.@.} #.s.0.0.s.b.y.a.l.@.@.y.+.i h K.l.y.h.@.j.,.a.Y n W.a.,.@.#.",
"/ s.y.-.s.s.y.,.#.s.#.+.#.#.a.,.x.e.e.e.a.a.e.Z.G.S.b.w.e.v.y.@.) +.y.Z.@.0.a.C.C.#.l.#.0.e.@.V y Z.C.' %.2.s.e.V.R y W.e.#.,.,.",
",.y.y.<.a.l.s.0.y.a.,.,.@.5.y.a.a.Z.C.w.a.e.Z.Z.a.a.a._  .n.b.a.#.@.a.#.#.0.Z.a.Z.w.y.#.w.,.l.Y } l.G.+.~ 2.v.Z.V.F n E.e.0.0.s.",
"e.y.y.y.a.s.0.0.0.e.y.e.#.y.#.y.a.e.Z.x.Z.a.a.a.2.e.v.' D e.v.b.0.-.#.+.| 0.v.v.V.y.#.#.w.@.@.} Z.#.Z.@.' S.e.s.v.G d.U.y.s.@.y.",
"2.y.d.q.5.v.w.0.,.0.w.0.l.l.0.a.x.a.s.C.a.a.e.#.@.,.=.2.N { S.s.@.#.#.+.@.a.| Z.Z.l.y.5.@.} ~ Q l.,.s.@.,.y.e.v.s.V.H.V.,.y.@.a.",
"( 5.s.l.a.a.a.0.a.s.a.-.@.s.#.y.a.#.#.e.5.+.] +.} +._ 2.P { b.y.a.0.#.y.#.#.,.0.C.#.0.0.+._ ] ~ @.Z.s.a.,.e.e.s.y.V.P.b.@.2.q.q.",
"V.5.s.i.-.a.a.a.v.s.Z.,.+.a.a.a.,.a.#.x.+.~ ] ` Q ` ' | T c.>.v.s.0.y.0.@.,.#.e.l.a.#.@.+.' O.~ ] T Z.#.@.w.@.e.y.V.b.2.| e.a.d.",
"l.5.l.j.y.e.0.a.a.y.%.<.%.#.a.a.y.#.@.j.+.] ` ' | ` T V ) I.,.q.0.a.a.| @.@.0.s.y.y.x.@.O.Q ' ~ Y Y l.#.#.,.( _ y.,.b.>. . .2.r.",
"v.5.i.V.s.e.e.a.s.y.y.| %.I.a.Z.0.@.@.@.7.@.+.+.@.@.w.| w.l.,.w.a.x.Z.+.@.,.@.@.0.e.#.#.} T ~ ~ } #.l.a.t.@. .,.5.@.C.2. .| 2.a.",
"y.2.i.l.q.v.b.b.s.=.q.{ =.q.q.w.o.x.t.o.x.n.x.o.c.x.c.o.w.s.C.Z.e.Z.x.e.2.2.| @.,.w.@. .@.,.a.x.y.#.e.0.2.=.q.y.q.,.Z.#.| @.,.s.",
",.q.y.l.b.w.s.e.y.V.q.-.2.2.#.e.#.c.x.t.t.#.x.b.>.o.x.x.q.#.C.C.w.@.@.w.@.} _ | #.@.#.| #.#.#.O.' +.,.#. .@.,. .,.w.a.@.} @.2.a.",
">.@.=.2.b.b.t.a.2.V.y.:.2.@.y.v.x.b.c.t.t.t.t.t.x. .o.x.,.w. .[ w.@.@.@.@.| | @.,.#.| @.@.a.@.` ` | y.,.@.+.,.y.e.y.@.@.}  .2.,.",
" .|  .=.i.d.a.t.2.i.=.>. .=.q.2.x.o.t.x.o.t.#.t.x. .#.o.t.n.f.{ e.@.w.x.w.} #.w.,. .| ,.@.0.#.@.| @.w.y.=.%.5.,.a.,.@.|  .| @.,.",
"e.q. .=.2.w.t.t. .x.o.o.2.q.>.2. .o.x.t.#.o.t.#. .o.#.#.t.x. .} I.y.@.y.V.#.,.@.} } } #.@.| @. .@.#.#.-.@.,. .| +.,.w.@.@.| } ` ",
"e.y.2.,.@.@.>.>.w.o.x. .|  .q. .#.t.t.o.t.x.t.o.o.#.t.#.o.t.P.n.#.y.y.a.e.e.@.w.@.2.@.>.#.#. .| @.,.,.5.| 2.@. .( [ @.@. .@.| N ",
"L 2.2.d.,.,.2.>.o.x.t.2.@.@.w.>.c.o.o.c.b.b.x. .x.t.o.o.t.o.#.#. . .y.,.@.w.@.[ w.t. .} #.y.@.@. .w.0.y.| @.w.#.}  .[ } | @.| ~ ",
"[ =.q.@.} | @.@. . .>.>.2. .@.t.t.c.x.t.c.x. . . .t.#. .#.#.o. .2. .| #.x.0.w.w.e.x.@.#.@.#.@.w.@.| 0.e.| @.@. .)  .} }  .,.4.7.",
"q.+. . . . .#.#.x.x.e.w.2.>.#.n.e.#.q.w.#.w.x.x.e.#. .>.2.a. . . . .} w.x.x. .>.2.2.e.e.y.e.e.0.#._ #.0.0.[ [ [ |  .#.} } | l.,.",
"w.5.s.q. .@.e.Z.v.n.F.c.t.#.>.t.t.e.v.v.x.#.#.o.}  . .>.o. . . .[ )  .w.o.#.c.>. .e.C.e.Z.Z.0.#.w.5.y.#.a. .@.} #.e.v.a.v.V.G.G.",
"L P M z x J / L ) / [ ) / , 0 ) ) / / [ / x l b / / / a a l x s l x x J l x J j 6 8 _ ( [ [ / / J ( ( x M M J x L K L [ P L P [ ",
"T P U P _ ( T P / '  .| P  .@.} [ [ ( | } ) ) )  .[ | { ) { { { o.| / T P K J b T P _ Q ' ' _ G P P T Y D n Q ` P P ' ' ( _ P P ",
"5.%.| <.7.Q ' O.<.%.f.:.( 2.=.-.2.2.| q.i.6.%.2.>.<.r.6.:.f.6.:.3.3.6.:.f.%.<.<.-.2.5.d.-.5.7.z.i.i.i.z.j.=.$.d.9.%.+.7.4.7.O.O.",
"| %.+.O.| ' | 4.O.| o.o.+.|  .,.' ` =._ P 2.=.6.o.6.3.f.6.U { 6.:._ { 7.g.3.6.:.+.<.4.i.5.&.d.2.-.-.i.4.%.y.i.5.4.@.O.4.%.<.+.5.",
"| *.5.%.5.o.] i.-.| :.=.9.%.=.=.=.=.2.%.| 5.9.:.{ o.%.] X.<.<.7.<.` { *.d.6.U o.5.<.-.+.+.=.O.+.-.2.<.+.O.,.@.5.4.,.-.5.i.5.5.5.",
"%.a.-.5.,.y.-.-.%.-.' ' 9.d.a.2.f.f.2.2.9.d.2.o.] X.<.o.o.3.3.%.o.%.o.o.3.6.6.2.,.@.+.%.| %.| ' +.] =.' @.` ` +.4.a.l.4.7.5.O.-."
};
