/* XPM */
static char *_0b2b37897f6436af2093ced27f24c90dkbeZFdDWKyS073H[] = {
/* columns rows colors chars-per-pixel */
"64 64 180 2 ",
"   c #181808",
".  c #252211",
"X  c #2A2413",
"o  c #2E2B16",
"O  c #2F2A18",
"+  c #2A2319",
"@  c #322C16",
"#  c #322D1A",
"$  c #36321E",
"%  c #39351E",
"&  c #343323",
"*  c #3A3623",
"=  c #3D3A26",
"-  c #3F3D29",
";  c #373B2D",
":  c #403A1F",
">  c #413D25",
",  c #423E2A",
"<  c #3E4034",
"1  c #45422C",
"2  c #49432D",
"3  c #444333",
"4  c #494531",
"5  c #4C4A33",
"6  c #4D4D3B",
"7  c #46463A",
"8  c #534D35",
"9  c #504E39",
"0  c #585237",
"q  c #54523D",
"w  c #655D3E",
"e  c #4D4F41",
"r  c #504F45",
"t  c #535444",
"y  c #595743",
"u  c #555847",
"i  c #5C5A45",
"p  c #57594A",
"a  c #5D5C4B",
"s  c #555549",
"d  c #5D5E51",
"f  c #605F4C",
"g  c #605E51",
"h  c #5F604D",
"j  c #5F6052",
"k  c #62624D",
"l  c #666247",
"z  c #766D4A",
"x  c #77724F",
"c  c #79714C",
"v  c #646453",
"b  c #676956",
"n  c #6B6956",
"m  c #65675A",
"M  c #696759",
"N  c #67695A",
"B  c #6B6C5C",
"V  c #696554",
"C  c #726D52",
"Z  c #716F5D",
"A  c #7F7856",
"S  c #74725E",
"D  c #7D7755",
"F  c #6B6E61",
"G  c #6E7162",
"H  c #727364",
"J  c #767866",
"K  c #787B67",
"L  c #747669",
"P  c #76796B",
"I  c #7A7B6D",
"U  c #777971",
"Y  c #7C7D72",
"T  c #807957",
"R  c #827C5C",
"E  c #857F61",
"W  c #7D806F",
"Q  c #7E8175",
"!  c #7F8279",
"~  c #88825C",
"^  c #858161",
"/  c #898364",
"(  c #8D866A",
")  c #87886F",
"_  c #8D886D",
"`  c #86836B",
"'  c #918B6D",
"]  c #828376",
"[  c #83857A",
"{  c #86897D",
"}  c #898B7E",
"|  c #938D72",
" . c #938F7A",
".. c #8B917D",
"X. c #959175",
"o. c #94917C",
"O. c #9A947D",
"+. c #989475",
"@. c #848780",
"#. c #878A82",
"$. c #8B8D83",
"%. c #8D8E88",
"&. c #8E9185",
"*. c #8E9189",
"=. c #919386",
"-. c #999683",
";. c #9D9A85",
":. c #92958B",
">. c #96998D",
",. c #999B8E",
"<. c #949790",
"1. c #969A92",
"2. c #9A9D94",
"3. c #9C9E99",
"4. c #A09C86",
"5. c #A19E8A",
"6. c #9EA195",
"7. c #9EA19A",
"8. c #A3A18D",
"9. c #A3A495",
"0. c #A8A895",
"q. c #A2A59C",
"w. c #A8A698",
"e. c #A5A99E",
"r. c #AAAA9B",
"t. c #A9AA99",
"y. c #ABAC9B",
"u. c #AAAB9C",
"i. c #ACAD9F",
"p. c #ACAD9C",
"a. c #A8AC9E",
"s. c #A4A6A1",
"d. c #A6A9A3",
"f. c #AFAEA1",
"g. c #ADAEA1",
"h. c #AAACA5",
"j. c #A7ACA8",
"k. c #ABAEAA",
"l. c #B1AFA2",
"z. c #AFB1A3",
"x. c #AFB0A4",
"c. c #AEB1A7",
"v. c #AEB1AB",
"b. c #B1B1A3",
"n. c #B1B2A6",
"m. c #B2B4A7",
"M. c #B1B3AA",
"N. c #B2B4A9",
"B. c #B2B4AB",
"V. c #B3B5AD",
"C. c #B5B7AF",
"Z. c #B4B6AD",
"A. c #B1B4AD",
"S. c #B6B8AF",
"D. c #B5B8AE",
"F. c #AFB3B1",
"G. c #B5B7B0",
"H. c #B3B6B3",
"J. c #B7B8B0",
"K. c #B7B9B1",
"L. c #B6B9B4",
"P. c #B8B9B1",
"I. c #B8B9B5",
"U. c #B9BBB6",
"Y. c #B6BAB9",
"T. c #BBBDBB",
"R. c #BEC1BE",
"E. c #C0C2BF",
"W. c #BDBFC1",
"Q. c #C0BEC2",
"!. c #BEC2C2",
"~. c #BFC3C8",
"^. c #C1C4C5",
"/. c #C4C8C7",
"(. c #C3C6C9",
"). c #C6C9CD",
"_. c #C8CCCF",
"`. c #C7CBD0",
"'. c #CACDD1",
"]. c #CDD0D4",
/* pixels */
"z c z z c z c c D A D T T R A R R R C w l C R R E / / ~ / ( ( / ( ' / ' ' | ' ( _ _ | | | X.| X.| | X.X.| o.X.+.O.' ( ( / R A x ",
"( ( ( / ( ( _ ( _ | ' X.X.X.X.X.X.X.| ' i ` O.O.O.O.O.O.O.4.4.4.4.;.4.4.4.4.4.;.-.;.;.;.;.8.5.5.4.-.8.4.5.5.5.9.;.4.;.-.-. .| _ ",
";.;.5.5.8.8.8.8.8.8.8.8.8.8.9.9.8.8.9.9.9.8.0.0.0.9.t.9.y.y.y.y.0.r.r.r.r.i.t.r.t.t.a.t.t.y.p.y.t.t.p.t.u.w.9.t.9.9.t.t.0.9.6.8.",
"t.t.t.i.a.g.a.i.g.g.y.f.f.b.f.f.g.b.b.f.f.l.b.n.b.n.m.z.b.m.m.m.m.N.Z.m.n.n.l.m.m.z.m.m.c.N.N.N.B.M.n.f.l.f.M.l.n.n.n.f.p.g.t.t.",
"M.B.M.B.v.B.A.D.C.C.M.V.J.J.P.C.C.H.S.V.V.J.S.J.S.D.S.J.J.J.J.J.I.P.P.P.P.P.J.S.N.N.D.D.U.P.H.P.P.C.P.P.P.J.J.M.V.B.D.S.B.V.B.B.",
"I.I.J.J.J.U.U.U.I.U.U.L.U.U.U.U.U.U.L.I.L.I.U.U.U.U.U.U.R.U.U.U.T.T.T.U.T.I.R.U.R.R.R.K.U.U.P.U.T.I.I.P.U.U.I.P.T.L.J.Y.U.U.L.P.",
"R.T.T.T.R.Y.R.R.T.T.R.R.R.R.R.R.R.T.T.T.R.T.R.R.R.R.R.R.R.E.R.E.R.E.E.E.T.E.E.E.R.R.R.R.R.R.T.E.E.T.R.T.E.T.T.R.T.T.T.T.T.Y.T.R.",
"!.!.!.!.R.R.R.R.!.R.^.!.~.^.(.(.!.!.!.!././.^.^.^.^.^././.^.^.E.^.^./.^.^.^./.^.!.!.!.R.!.!.Q.^.^.^.Q.^.^.^.R.Q.!.R.!.T.!.W.!.!.",
"!.!.~.~./.!.~.~.~.!.).(.(.(.^.(.^.(.~./.!.(.(.(.(./.).).(.^.^.)./.(./.(.).^.(.Q.).^.).^.^.^.(.^.(.Q.Q.Q.Q.Q.^.^.!.!.!.!.!.!.!.!.",
"~.!./.(././.).~.).(.).(.(.'.).).(.).^.(.(.)._.)._._.)._.(.).).(.^.).(.).).(././.).)._.).(.(.).).).^._._.(.(.(.^./.~.~.!.~.~.~.~.",
"!./.(.(.(.(.(.(._.).).).).'._.).).)._.).^._._._.)._._.).)._.'.'.^._._.).(.'._.).).)._.)._.(./.).).(.).).(.).).).(./.~./.~././.(.",
"/.~.).`.(.(.(._.).'.`.).`._.)._.`.(.`.`.).(._._._._.].`.'.).).'._._.'._.).'._.`._._._.)./._.)._.).).).).).).).`.~.(./.)./.(.(./.",
"_.(.(.).(.(.(.(.(.)._._.).)._._._.(.).`.(.(._._.'.].'.'.'.'.'.'.).'.'.'.'.'.'.'._._.'.)./.'.)._.).).).).(.).).).(.~.(.).~.(.(.~.",
"~.~.(._.).(.(._.)._.).).'.'.'._._.)._.`.)._._.].'.'.'.'.'.'.).).'.'.`.`.).'.'.).)._._.(.).'._._.).)._._.).(._.).).).`.~.!.(.)./.",
"!./._.`.`.).(.).).).~._.`.(.'.'.`.]._.).`.]._._.].).'.'.'.'.'.'.).'.'.`.'.'.'.`.).'.`.).'.'.'.]._.).'._.`.'.'.`.`.).(.`.`.`.).~.",
"~.(.).).(.(./._._.).~.'.`._.'._._._.)._.].]._._.'.`.`.`.`.'.`.'.'.'.].'.).'.'.'.].`._.'.'.)._./._._._.'.'.).'.`.`.(.).`.).`.~.~.",
"~././.`.)./.).).)._.~.]._.].]._._._.'.'.'.'.'.`.]._._._._.'.'.'.'.'.'.].'.].'.'.`.'.].'._.'._.(._.]._./.).`._.'._._.'.`.).Q.'.`.",
"/././._.~.~.`.).'.).)._._._.`._.)._./.'.'.).)./._.'._.'.'.'.'.'.].'.`.].].'.'.].'.].'.'.'._._._.).).'._.`.`.`.'.).).`.Q.Q.'.Q.).",
").)./.~.~.(.~.)._.).]._._.].]./.~._._.'._.].'.'._./.).].'.`.).'.].'.'.'.'.'.].].'.).'.'.'.'._._._.).'.).).'.'.'.Q.'.`.`.`.(.).Q.",
"~.(.~.~.).(.~._._.(.)._._._.(.(._.).(.'._._.'.`.).^.).'.'.].'.'.'.'.'.].].'.'.'.].).(.).'.'._.(._._.'.'.`.'.`.'.'.`.`.`.).`.).).",
"!.T.!./.(.(.(._.).(.(._.`._.).).).).)./.!.`._.)._.).'.].].'.'.].(.'.`.`.'.'.'.'.'.).'.'._._._./._._.(._.'.'.'.'.`.`.`.).).'.(.(.",
"!.T.T./._.(./.'.(.!.).(.(._.(.).`.).!.~.~.`.`./.~.).'._.`.`.`.).`.`.`.`.`.'.'.'.'.)._._.).(.).).)._.).(.)._.'.'.`.).).).(.Q.(.Q.",
"~.L.!.^./././.~.^.!.~.).(.).).(.).'._.!.`._.~.'._._._.).).'.~._.'.).`.`.`.'.`.'.`.).!.T./.~.!.(._.).).'.).).T.).`.).`.).).(.W.W.",
"(.Y.R.^.~.~./.~.R.!.!.~.(./.).).).~.'.~.~.).)._.~.(.)._._.)._.`.).).).`.'.].].(.Y.(.W.Y./.~.(.(.^.).'.).).).Q.(.W.).`.(.(.(.Y.W.",
"Y.W.T.Y.^.^.^.T.^.^./.^.^./.R.!.).).).~.(././.).).(.).).(.(.).(.^.).~._.V...B.^.^.^.!.^.!.^.).^.!.).).).).!.^./.Q.Q.`.(.`.~.Y.Y.",
"L.W.^.W.^.^.Y.R.Q./.^.E./.E.c.Y.~.~.!.~.^.(.(.^.).^.(.).).(._._.T.^.~.!.) ~ ) R.Q.Y.^./.^.^.).^.^.).).).(.!.(.R.W.'.~.).~.~.!.Y.",
"Y.I.G.T.T.T.A.A.T.I.Y.E.R.!./.!.!.R.R./.Q.^.^.W.^.(.~./.).~.!.W.E.R.R.-.~ c -.^.T.W.E.^.^.E.T.T.^.(.(.).^.~.~.^.W.W.~.`.!.!.Y.Y.",
"H.Y.h.H.T.Y.h.1.H.T.I.T.H.T.R.R.R./.R./.^./.Q.Q.!.^.!.!.R.W.W.T.Q.Q.e.( o.t.U.^.U.U.U.^.^.T.U.E./.!.!.R.!.(.(./.~.W.~.~.~.Y.Y.Y.",
"P.H.G.H.Y.v.d.c.I.E.H.Y.I.U.Y.R.!.R.T.^.Y.T.Y.T.R.U.!.(.G.Y.T.W.I.Y.W.Y.^.R.Y.S.v.T.T.R.T.G.Y.R.R.R.V.U.Y.~.(.~.!.!.~.~.T.T.Y.Y.",
"B.I.V.h.v.V.v.H.M.S.Y.G.N.M.V.T.T.H.L.R.I.E.U.U.R.~.!.!.v.k.T.Y.T.T.I.P.T.U.L.v.g.E.(.^.T.T.I.L.T.U.L.Y.Y.!.~./.!.!.~.!.Y.Y.Y.v.",
"q.h.A.h.A.v.d.A.g.h.v.v.c.h.U.Y.L.L.G.T.^././.^.!.!.!.J.v.W.T.Y.Y.^.E.P.I.Y.Y.k.v.T.T.^.Y.T.R.R.Y.L.J.G.Y.W.!.H.W.!.!.Y.D.v.D.d.",
"h.3.k.A.k.k.g.c.d.q.G.G.A.k.T.G.L.R.L.R.^.^./.W.R.R.W.v.L.Y.L.Y.T.T.j.C.T.I.C.q.M.U.P.U.U.I.U.R.U.V.G.L.L.L.L.Y.W.W.R.Y.Y.H.v.d.",
"7.k.v.J.h.h.a.v.c.v.J.H.c.D.Y.v.H.R.R.R.H.R.R.R.Y.Y.L.v.F.R.L.v.H.k.Y.T.I.I.M.s.D.m.D.R.R.D.K.R.m.j.R.m.D.v.L.R.R.T.L.J.Y.Y.F.d.",
"v.G.G.d.c.v.v.v.d.h.P.d.6.7.D.D.Y.R.I.U.U.Y.L.T.L.F.L.L.H.Y.D.m.V.^.T.I.I.C.7.c.D.m.D.P.R.P.R.A.A.D.U.A.V.R.H.U.L.U.H.H.v.D.L.h.",
"d.q.h.h.v.v.s.c.6.a.d.c.7.h.Y.K.e.C.T.A.U.c.h.v.v.k.7.G.T.Y.A.j.k.d.Y.C.V.g.=.v.P.m.D.H.v.v.v.v.v.R.Y.H.H.Y.L.Y.U.D.v.h.k.v.h.s.",
"s.g.j.v.v.7.7.c.q.d.q.d.d.d.c.H.q.A.T.L.2.a.q.s.d.[ } 7.R.Y.c.a.l.A.A.d.q.q.7.T.D.v.c.v.z.d.D.m.v.A.c.c.s.q.c.v.H.v.c.D.v.v.d.h.",
"d.7.s.d.c.7.6.>.N.c.z.c.M.V.7.d.k.v.Y.Y.j.h.j.k.k.e.k.e.c.D.j.R.c.v.D.9.7.6.q.v.c.k.s.g.c.h.a.d.d.q.e.7.d.d.q.9.c.v.q.c.v.7.q.q.",
"7.*.&.6.7.6.1.6.7.6.7.d.q.e.7.7.q.A.Y.k.L.L.v.j.c.c.k.v.7.c.7.7.7.s.q.6.6.>.&.6.q.g.q.q.7.6.,.1.7.d.m.c.c.D.v.a.e.7.q.d.7.:.&.6.",
":.6.7.1.6.>.{ >.7.6.6.7.d.7.2.v.c.d.c.j.V.h.g.m.g.c.n.v.m.7.6.7.6.&.&.6.>.=.} :.:.e.d.7.c.a.e.h.e.7.m.a.v.d.6.6.6.7.6.s.9.6.q.e.",
"6.7.d.1.e.q.6.a.7.e.7.d.s.7.7.q.q.3.7.u.e.e.3.q.q.a.6.2.7.>.&.7.6.&.=.=.:.>.>.6.2.9.q.2.d.h.e.e.6.2.a.7.6.6.,.,.>.=.7.t.2.6.2.7.",
">.6.2.<.3.3.<.1.<.*.*.<.<.:.1.$.} Q ] $.{ $.[ $.*.} ! $.! { ..$.&.&.} ] ..{ &.6.>.>.>.1.6.>.>.:.&.&.:.{ [ %.[ $.] Q $.:.:.1.2.1.",
"k.c.2.3.k.j.1.j.j.7.3.j.3.1.3.1.3.3.:.q.>.2.w.e.d.1.&.2.6.7.7.7.>.2.6.9.6.9.7.t.9.6.6.7.6.,.a.7.9.7.h.s.3.h.7.s.q.3.s.k.k.s.d.k.",
"F.k.d.7.k.k.s.s.j.3.7.s.7.3.7.<.3.3.>.d.d.3.s.2.3.1.7.6.6.6.3.7.1.&.6.7.,.6.6.>.6.6.6.6.6.2.6.9.7.2.>.>.7.3.h.3.q.s.j.s.3.7.j.k.",
"v.F.F.d.k.s.3.3.s.7.s.7.3.s.7.1.q.s.q.s.1.2.e.1.*.<.7.q.7.6.7.s.6.6.i.6.6.0.6.:.,.0.6.6.6.6.6.6.,.>.,.>.2.1.q.,.=.s.d.3.#.1.j.k.",
"v.H.k.s.k.s.q.3.3.s.j.s.3.s.3.3.3.3.s.3.,.1.:.>.6.6.7.6.7.<.:.7.2...7.6.e.6.>.6.a.6.=.=.2.>.0.,.-.-.6.6.7.7.1.3.7.s.7.:.1.3.k.k.",
"F.k.h.s.k.j.d.7.1.3.s.3.<.s.q.3.1.k.7.7.>.2.! [ >.<.6.1.6.>.*.6.>.:.,.6.a.6.6.6.6.6.6.6.6.6.,.=.>.{ ..=.,.7.:.q.1.7.s.:.=.7.j.j.",
"H.j.7.s.h.F.k.d.3.3.7.1.:.<.3.3.q.s.j.7.<.7.1.q.7.*.#.6.1.:.6.6.,.1.7.6.6.6.6.6.,.,.>.>.>.7.6.6.9.] =.,.9.:.>.>.1.>.:.>.&.*.7.k.",
"s.s.s.k.s.k.d.s.s.3.@.<.%.1.%.<.1.s.j.7.3.s.7.3.7.7.*.%.:.:.<.<.1.6.:.:.1.6.1.6.6.6.,.>.&.6.6.6.>.$.&.2.,.>.$.>.*.#.&.&.[ 1.3.7.",
"k.F.F.k.F.h.7.s.s.2.E %.3.3.%.Y *.:.6.s.7.j.3.j.j.s.*.<.<.1.1.6.2.2.$.2.7.7.3.2.7.,.>.&.6.,.2.,.>.$.>.3.,.=.{ =.$.$.=.&.:.7.d.j.",
"Y.H.F.k.k.j.s.s.s.3.3.3.<.3.<.! ! %.*.s.s.1.7.7.j.7.*.1.6.*.*.>.:.6.:.2.7.,.:.*.,.=.{ &.>.>.6.>.&.=.=.>.=.:.=.$.<.E  .{ 1.7.s.k.",
"H.H.H.F.k.h.s.j.3.<.%.2.s.<.<.! #.*.3.7.q.7.7.3.s.7.<.<.6.*.*.&.:.2.} $.} { { Y N L { =.&.{ $.{ ] #.=.-.:.$.:.[ <.=.$.&.1.3.d.F.",
"Q.H.H.F.k.F.7.,.:.%.%.<.3.<.*.%.%.%.<.<.6.1.3.3.1.<.*.*.1.>.*.:.$.$.] { ] ] } t   & { } } K I >.:.:.<.{ { { $.#.%.3.&.] %.3.d.F.",
"F.H.I.k.H.I.s.2.<.1.Y #.%.%.<.%.#.@.#.<.<.3.<.<.@.<.#.! U *.*.*.:.#.} } [ Q $.&.! Y #.] H [ Q %.:.$.#.{ #.=.%.$.} &.[ ] $.6.h.k.",
"H.s.w.3.F.H.k.s.3.:.Y Y @.3.%.@.! #.@.#.*.<.7.1.#.*.%.@.P &...:.>.>.} [ ..&.>.:.1.<.&.Q ] Q #.} $.#.{ { [ *.:.%. .&.&.:.=.$.2.h.",
"s.<.-.s.q.k.k.s.=.%.#.} %.%.@.@.F U ! %.%.%.7.<.*.3.<.%.Q #.:.=.] [ } [ $.=.{ >.*.*.$.H P I ] } $.$.[ ] E #.$.#.E #.{ { :.} :.,.",
"s.s.s.,.2.G.j.s.6.*.%.:.{ %.%.U F U U ! ! %.#.:.<.7.<.! G j N j B ] { [ &.&.[ ..&.$.{ J B Z G B Q I P ] U L E @.L #.[ ] $.>.2.e.",
"v.c.d.6.9.h.h.6.:.=.{ #.$.*.#.Y U U #.U #.U [ $.U Q { m j F p t 7 B Y ] Q { $.*.*.I K G B M b N v M B P B I I H L [ [ { =.1.s.h.",
"1.c.v.>.&.6.q.<.#.} K I 1.#.#.Y E [ @.@.%.L L U F j F P L j e ; < d v L Y =.{ { Y P I L M H Q L H Z V I B I { H L H I [ #.:.s.2.",
"&.6.h.8...>.} &.Y H a v Y %.#.{ { #.Y ! U L L m L j L P F u t < s 7 1 y F [ [ [ Y Y [ P B B I { } E L H H B J H M I L L [ :.7.:.",
"&.*.6.Q ..H k S V a J [ N [ #.[ { #.[ H Y L M m L P G F G j m t a 7 7 r Y [ P H L P L H L L P P U F B F B k n v M B M P I [ ,.} ",
"G h ..) %.=.B S C 0 k n L Y { E I Y Y L P H H 6 p m p L u v H 6 3 y n i N P G I E U U I B v H I H H H v B h k l k H b H H W J u ",
"* < 9 F H n n 5 q C f 8 f Z s <.[ $.[ F m H B 6 m t a G H j B y 3 a Z B h 1 # 7 g [ %.m 9 9 g Y N L n v f h k f f b v B B 9 5 1 ",
"1 @ @ 1 0 8 i 2 , , 5 0 2 , & d =.J B J v i ] H h p G j B k y y k q v y 5 @ & k 3 B B , * $ a S f B y 6 6 J 6 a k S v h i = = = ",
". o @ %   # @ 2 @ X $ > , > > & = , $ 5 q = t n a h K < * = 1 2 6 9 5 , & # = = # = $ # > * , 2 4 4 @ o O = # = $ = = $ = $ . X "
};
