/* XPM */
static char *_b5f5d1e681044c9ff5401c42fae5b524lbPrugI5LGWaPIJ[] = {
/* columns rows colors chars-per-pixel */
"64 64 182 2 ",
"   c #3D2725",
".  c #773C3A",
"X  c #5D413C",
"o  c #554F3F",
"O  c #6D433F",
"+  c #5F5846",
"@  c #5B584B",
"#  c #664B44",
"$  c #7C4947",
"%  c #696756",
"&  c #6A6857",
"*  c #676859",
"=  c #6C6C5B",
"-  c #716D5B",
";  c #6F705E",
":  c #77735C",
">  c #716E61",
",  c #757364",
"<  c #797767",
"1  c #7B7966",
"2  c #7A776A",
"3  c #77796A",
"4  c #7C7B6B",
"5  c #7C7E71",
"6  c #9F2324",
"7  c #913F3D",
"8  c #A23031",
"9  c #984141",
"0  c #9C4B49",
"q  c #805148",
"w  c #915D59",
"e  c #AB4F4F",
"r  c #A34D4A",
"t  c #AB5451",
"y  c #B25A59",
"u  c #82625C",
"i  c #A1615B",
"p  c #857E66",
"a  c #8F766B",
"s  c #817F6C",
"d  c #817D71",
"f  c #987569",
"g  c #B7726F",
"h  c #A77C76",
"j  c #AF7872",
"k  c #B07772",
"l  c #B87B72",
"z  c #B66865",
"x  c #C25E5D",
"c  c #C87A76",
"v  c #848066",
"b  c #84826D",
"n  c #8A856C",
"m  c #848374",
"M  c #898773",
"N  c #878977",
"B  c #8D8A75",
"V  c #85877A",
"C  c #87887B",
"Z  c #8C8B7B",
"A  c #928D74",
"S  c #928E7A",
"D  c #94927C",
"F  c #99967E",
"G  c #9D9A7D",
"H  c #939075",
"J  c #AC807B",
"K  c #B08174",
"L  c #BC8B7E",
"P  c #A19D7D",
"I  c #8B8D83",
"U  c #918D81",
"Y  c #8F9082",
"T  c #939383",
"R  c #999582",
"E  c #9C9B84",
"W  c #949688",
"Q  c #999789",
"!  c #96998F",
"~  c #9C9C8B",
"^  c #9C9E91",
"/  c #A88C82",
"(  c #BB8A83",
")  c #BB8480",
"_  c #A19D84",
"`  c #A19F8A",
"'  c #AD9C8C",
"]  c #A8968B",
"[  c #B59389",
"{  c #A29F93",
"}  c #B79690",
"|  c #BE9A93",
" . c #9FA18E",
".. c #9EA192",
"X. c #9FA298",
"o. c #A4A185",
"O. c #A4A38C",
"+. c #A9A68D",
"@. c #ACAB8D",
"#. c #ABA883",
"$. c #B8A18B",
"%. c #B3AC8E",
"&. c #B4B08D",
"*. c #A3A493",
"=. c #A9A692",
"-. c #A7A994",
";. c #ABAB94",
":. c #A3A699",
">. c #A8A699",
",. c #A6A99C",
"<. c #ACAD9B",
"1. c #B1AE94",
"2. c #B6A79D",
"3. c #BCA498",
"4. c #B2AD9B",
"5. c #B1A392",
"6. c #AFB095",
"7. c #AFB19D",
"8. c #B3B295",
"9. c #B9B596",
"0. c #BAB897",
"q. c #B4B49C",
"w. c #B9B69B",
"e. c #B7B99E",
"r. c #BBBA9D",
"t. c #ABADA1",
"y. c #AEB1A3",
"u. c #AFB2A8",
"i. c #B3B5A3",
"p. c #BAB6A2",
"a. c #B6B9A5",
"s. c #BCBBA4",
"d. c #B3B6A9",
"f. c #B9B7A8",
"g. c #B6BAAB",
"h. c #BBBDAC",
"j. c #BCBEB1",
"k. c #CE8482",
"l. c #D18583",
"z. c #C3918B",
"x. c #C3A194",
"c. c #CAA29B",
"v. c #C5A49A",
"b. c #C0BE9F",
"n. c #C1BEA4",
"m. c #C7B4AA",
"M. c #C1BEAA",
"N. c #CBB3A9",
"B. c #C7BBB0",
"V. c #C9BFB5",
"C. c #BEC1A7",
"Z. c #BEC1AD",
"A. c #BEC2B3",
"S. c #BEC4B8",
"D. c #C3C1A6",
"F. c #C2C2AC",
"G. c #C8C5AB",
"H. c #CAC9AE",
"J. c #C2C5B5",
"K. c #C9C7B3",
"L. c #C6C9B5",
"P. c #C9CAB5",
"I. c #C3C6B9",
"U. c #CFC3B8",
"Y. c #C6C9BB",
"T. c #CACCBD",
"R. c #CDD1B7",
"E. c #CDD1BE",
"W. c #D0D2BF",
"Q. c #C7CEC2",
"!. c #CBCEC1",
"~. c #D0CFC2",
"^. c #CDD1C2",
"/. c #D1D4C5",
"(. c #D4D9C6",
"). c #D9DCC7",
"_. c #D2D6C9",
"`. c #D5D9CA",
"'. c #DADDCC",
"]. c #DFE0CD",
"[. c #E3E7D6",
"{. c #ECF3E3",
/* pixels */
"T.E.^.A.I.J.h.J.T.T.T.^./.Y.T.~.!.T.!.Y.^./.Y.Y.!.~._._.T.Y.!._.~.~.T.Y.A.A.L.Y.E.L.I.A.J.J.J.F.h.I.F.F.J.F.h.Y.h.s.y.{ K.P.a.F.",
"T T D Z Q Q T Y W O. .*.T ! *.*...>.>.:.:.! *.>.:.^ ~ Q ~ ^ T U U C Y ~ ..*.~ E T Y T T Z D V N Z m N N Y N N I U S Y Z S T ~ U ",
"-.O.-.-.6.<.7.<.<.>.<.O.*.~ ` h.4.q.a.i.-.=.;.4.4.` ` 4.<.=.-. .R Q Q R E ~ E Q B R ` <.O.<.O.-.*.E O.=.O.-.=.4.f.1.-.q.;.~ ` ~ ",
"R 8.4.q.;.a.q.o.D o.R B M O.q.s.;.q.=.D B D B B B ` ` ` B B q.*.>.q.` O.q.;.-.-.E =.1.;.O.;.m 1 < s Z Z H ~ q.e.s.n.1.1.+.@._ ` ",
"i.K.O.E G E O.E O.*.D 7.p.s.;.=.F '  .p.p.K.F.a.M.h.=.R R f.=.b Y q.Q y.].[././.W.p.M T Q B O.C Q <.=.- + o 1 b s  .R D O.R F.L.",
"I.P.L.J.f.F.W.W.E.E.`.`.T.T.J.h.i.Y././.'.'./././.~.J.M.J.I.h.<.7.F.^.!.^.T./././.).i.i.i.'./.J.).(.'.J.` i.<.! 7.a.C.F.E.(.(./.",
"h.h.J.P.L.a.L.J.a.g.J.s.J.J.Y.J.T.Y.T.T.T.Y.R.W.T./.T.E.T.Z.E.T.T.^.T.V.I.Y.I.a.h.I.L.A.A.L.J.a.P.J.J.J.B.J.h.h.Z.F.L.L.h.J.F.J.",
"= < 4 : b 4 4 , , < 1 , - 4 4 , > 2 p 2 2 s 1 m < 2 d Z B m m Z N N 2 d V d 4 s Z m 3 5 m 3 4 4 < 3 < > < > = < % % , * 3 = : = ",
"D B b b A , 4 ~ T Q ~  .*.~ *.! *.>.T T ^ ^ >.~ >.{ >.U >.i.>.R -.y.:.^ >.:.*.t.t.....T ` T >.>.*. .X...-.! R Q  .T 4 @ 4 , B R ",
"r.+.H +.;.=.M b L.L.L.L.g.L.T.i.p.{ S.T.W.Y.` ] ' D S S U h.<.` O.` ~ S =.=.*.q.=.Q y.L.T.T.J.L.T.T.A.q.D D O.;.<.K. .+.4.;.+.q.",
"D.H.D.G.D.K.r.n E '.P.o.n n F A M : =.M.F R _ +.E =.8.n._ S ~ r.w.b.r.4.8.4.` ` ;.O.b m D T.).P.L.F.E B ;.h.e.E n B B L.D.D.D.s.",
"0.D.D.D.D.%.+.P n ;.P +.P G G G P p : : A e.n.s.n.e.1.s.r.1.9.%.q.n.s.p.F.s.n.D.n.s.o.A v b E D b v E D.D.O.+.&.r.+.w.D.s.C.0.r.",
"r.r.D.D.r.+.@.#.P R e.F.0.p.a.@.+.+.F S F e.p.w.p.8.e.n.n.w.r.p.n.n.n.p.e.9.9.9.r.8.+.9.8.O.+.D F  .e.D.0.: P &.b.r.D.D.b.0.b.C.",
"G.D.G.P.s.C.e.s.p.J.E.^.F.s.L.7.<.Y.E.M.+.w.e.s.s.r.s.s.n.9.9.0.b.b.9.w.s.e.n.q.8.;.e.Y.L.P.L.Z.H.P.H.e.8. .8.9.r.r.0.r.w.8.0.r.",
"0.r.D.C.C.J.(.^.C.a.T.T.M.+.A.J.E././.T.1.s.n.r.n.n.9.8.q.9.w.n.3.1.r.s.p.G.n.p.P.T./._.L.Z.E.a.Z.C.Z.e.s.s.P.s.C.R.D.b.r.@.P r.",
"&.0.r.D.r.P.^.^.D.6.A.L.h.1.A.Y.!./.Q.T.F.n.M.M.G.n.e.1.p.q.r.D.w.r.r.n.M.H.p.K./.^./.T.a.8.n.w.e.w.6.@.&.w.P.0.J.D.b.r.0.P @.r.",
"8.e.C.G.b.C.^.^./.P.T./.J.s.L._.J.d.^.^.E.F.s.D.4.M.n.1.a.s.9.0.0.q.w.n.H.U.n.4.^.L.L.L.7.8.r.e.b.8.6.&.8.p.L.C.L.D.r.r.8.0.@.r.",
"e.H.H.C.e.E.(.R.a.`.'.T.E./.L.L.J.d.(./.I.F.s.p.h.J.F.9.1.1.8.;.%.9.n.n.n.H.M.+.H.A.^.E.Y.L.C.&.8.C.C.a.;.A.T.L.L.L.e.0.&.0.o.C.",
"R.e.-.L.R./.^.T.E.`._.Y.L.Z.A.A.^.^.^.K.D.D.1.p./.Q.L.J.a.p.r.e.1.1.n.G.' f ] # A.^.S.Z.E.T.L.7.@.Z.Y.S.L.Y.J.F.Y.E.C.a.s.D.R.(.",
"S.S.S.L.^.!.T.T.`.^.Q.^.L.Y.P.T.T.!.!.J.D.D.;.Z.!.Y.J.h.e.e.e.8.9.4.9.b.S   ` X J.h.f e.C.A.Z.C.D.a.A.L.A.L.s.8.;.P.^.^.E.T.W.E.",
"T.E.T.R.E.J.T.T.^.^.^.^.Y.T.L.J.T.Z.I.T.F.a.F.!.T.L.L.a.9.q.e.9.;.h.' O Z.w 3.( f.2.X F.H.E.S.e.D.8.A.P.e.6.8.9.o.a.T.E.T./.T.L.",
"Q.Y.Y.Y.Y.Y.Y.^.^.^.^.^.^.T.A.h.q.-.B.~./.^./.!.Y.J.Y.j.p.e.8.9.` p.T.$ [ 2.u ] 2.5.$ G.Y.E.P.C.6.o.a.s.8.&.0.9.+.<.^.E.^.E.E.E.",
"T.Y.S.L.Y.Z.L.T.L.E.^.^.T.S.Y.Z.,.O.f.T.!.!.T.T.!.I.Q.L.B.9.q.5.+.d./.3.. h./ h.3.$.L C.T.Y.Y.Y.F.L.L.6.0.r.C.D.r.6.T.^.T.L.L.L.",
"S.T.Y.Y.T.A.L.a.q.^.^.Y.L.A.j.A.Z.g.J.Y.I.Y.Y.!.T.S.Y.L.J.4.b.n.<.I.Y.^.J ( v.r 9 9 K 8.6.e.C.b.e.E.L.w.r.r.D.0.8.&.h.Q.J.L.Y.E.",
"S.S.Y.Y./.K.s.G.8.Z.^.Y.I.S.A.S.S.T.E.Y.j.Y.t.I.T.I.I.J.I.s.n.M.q.I.T.I.I.0 6 8 l L L w.@.8.b.r.;.Z.D.0.r.b.C.b.r.w.=.Y.Y.Y.Y.L.",
"A.C.Y.Z.e.F.e.M.q.a.T.A.L.Y.L.J.S.L.Y.A.I.L.<.j.!.I.I.J.V.Y.M.4.*.I.U.!._.( e c c x.K 9.8.9.6.0.8.Z.Z.0.0.D.C.C.C.C.e.L.L.L.T.S.",
"Z.a.T.R.C.F.n.n.Z.S.S.S.!.!.J.S.Y.Y.S.L.h.F.s.p.Q.J.J.j.I.Y.Y.<.g.U.x t m.`.c.k.l.c.i } r.0.8.8.r.a.r.;.8.0.r.e.0.@.@.E.L.S.L.T.",
"Z.A.S.L.n.F.F.s.s.A.C.S.!.L.S.J.Q.^.T.Q.P.J.F.<.J.J.I.I.T.K.T./.T.!.N.k z k | ) y g ' %.r.8.&.8.r.8.@.8.r.s.r.b.o.C.P.^.Y.T.L.L.",
"Z.d.Z.a.C.F.F.e.g.A.A.A.T.^.S.I.Y.Y.I.Q.J.F.J.7.g.Y.I.T.Y.T.T.T.T.Y.Q.m.z.} } h ( v.A.q.r.8.8.w.r.r.0.8.w.8.0.@.7.].`.`.S.S.L.L.",
"Z.A.Z.H.D.F.F.q.h.A.Y.A.A.Y.Y.Y.Y.I.I.Y.f.J.g.Y.T.I.Y.T.Y.Y.I.T.T.I.I.Y.T.^._.V.L.L.L.S.Z.e.q.a.w.6.8.0.C.r.e.+.Z.`.^.^.L.A.A.L.",
"d.A.Z.C.s.F.F.s.A.S.T.A.Y.A.S.Q.j.j.Q.Y.f.T.T.Y.I.Y.Q.I.I.Y.J.T.Y.!.T.!.!.Y.!.!.Y.I.J.Y.^.E.Y.I.A.a.Z.i.q.7.e.6.Y.T.^.^.L.Y.L.L.",
"A.S.S.S.F.s.F.J.I.A.Y.Q.Y.A.S.Y.g.A.J.S.J.Y.Q.Y.Y.J.V.Y.Y.I.V.J.V.Y.Y.Y.V.I.!.T.I.A.L.S.I.I.Y.!.L.^.Y.L.A.a.e.Z.^.Y.^.^.Q.A.L.^.",
"S.Y.T.T.J.e.r.S.A.Y.S.Y.L.S.Y.L.j.T.I.I.Y.I.Y.Q.I.Q.Q.V.Y.I.I.I.j.I.I.Y.J.T./.T.J.S.I.A.J.A.I.I.I.L.T.J.H.C.T.Y.T.L.(./.Y.S.L.R.",
"A.S.T.^.J.8.6._.C.Y.T.T.S.S.S.S.Y.T.!.I.I.I.Q.Y.I.V.Q.I.Y.Y.U.Y.I.I.Y.I.J.T.J.J.A.A.J.J.J.J.I.I.L.I.E.g.6.-.Q.T.Q.^.(.(.Y.Z.A.Y.",
"S.S.g.Q.L.@.C.T.g.S.E.E.L.Z.S.Y.J.Y.Y.I.I.T.I.Y.Y.I.I.~.Q.I.!.I.J.J.V.I.I.I.J.I.A.Y.S.L.h.S.I.I.Y.a.-.Q.a.6.T.T.T.Y.(.(.E.R.A.L.",
"T.Y.L.P.J.i.L.S.Y.T.a.7.Y.S.Y.Y.Y.Y.Q.T.T.Q.T.Y.j.V.!.T.!.!.Y.Q.I.I.I.Y.J.I.T.Y.^.Z.L.S.J.L.Y.L.T.Z.a.^.C.7./.A.T.Z.6.Y.T.^.Y.T.",
"T.Y.Q.L.T.T.Y.S.Y.Y.7.-.Q.A.S.Y.I.I.^.!.T.^.!.Y.j.I.!.Y.J.I.T.I.j.Y.Y.I.I.!.'.T.S.A.Y.S.Y.^.Y.Y.T.S.E.Y.h.q._.L._.L.s.L.^.T.Y.E.",
"j.S.I.A.Z.L.Y.S.Y.S.6.^.T.S.Y.T.Q.Y.^.!.T.!.I.h.g.I.I.I.S.I.J.Y.j.A.S.I.J.I.^.!.S.T.E.^.T.L.S.E.T.A.S.S.A.^.Y.E.^.a.w.;.^.Y.J.Y.",
"I.Y.J.A.C.y.^.A.Y.Y.,./.Y.Y.A.Y.Q.Y.^.!.I.!.J.j.I.Q.I.I.Y.Y.I.Y.I.g.A.L.Y.L.I.I.Q._.L.Y.A.S.Y.S.^.T.Y.L.Q.T.J.J.R.Z.e.q.Z.Y.L.T.",
"^.T.h.A.Y.Y.L.A.Y.S.Z.Y.S.S.A.S.I.I.Y.Y.Q.!.I.I.T.T.Y.I.Y.Y.T.Y.A.j.S.!.I.L.T.!.T.T.Q.A.A.Y.Z.E E (.Q.Y.R.S.T.L.Y.6.E {.Q.Y.A.A.",
"t.E.L.J.T.T.Y.I.S.T.A.A.A.S.Y.L.Y.Y.Q.Y.Y.Q.Y.Q._./.T.I.Y.Q.Y.B.u.Z.Y.^.A.Y.T._.^.L.Q.S.Y.Y.A.o.D ^.(.i.M.I.T.Y./.8.D {.Y.S.I.J.",
"J.Y.T.I.L.^.!.L.Y.L.Y.A.A.L.Y.T.T.^./.I.Y.Y.!.!.Y.T.T.i.B.!.!.T.A.A.L.S.A.A.^.Y.^.S.L.S.A.Y.T.7.h.^.^.Z.e.I.!.!.^.=.O.[.Y.Y.A.T.",
"Y.Y.Y.L.T.T.L.I.Y.Y.I.T.S.Y.S.Y.!.T.Q.!.!.Q.!.T.J.Y.!.p.*.Y.!.!.Y.L.Y.j.j.Y.^.!.^.Q.S.S.S.A.Z.h.^.S.^.A.a.^.Y.!.!.<.T.`.L.Y.A.T.",
"J.L.!.I.L.!.S.I.J.Y.I.I.E.^.Y.Y.Q.Y.T.^.T.L.Y.I.A.J.J.S.o.d.^.!.A.J.S.g.j.T.h.!.^.^.Y.L.A.C.i.q.E.S.T.J.J.L.Y.T.T.E._.!.Y.Y.A.T.",
"t.L.T.T.T.L.Q.Y.T.T.T.J.A.T.S.Y.T.S.A.Y.I.D.g.Z.h.Z.q.J.;.f.!.Y.Y.Y.A.T.S.A.S.I.^.S.S.Y.Z.y.r.w.Z.^.T.T.J.L.Y.Q.T.~./.Q.S.J.I.L.",
"/.P.W.P.L.Y.Q.Y.!.!.T.L.F.!.Y.Y.Y.Y.I.^.F.p.s.a.q.a.a.h.t.Q.I.!.Y.Y.Y.Y.A.A.J.Q.T.T.S.A.a.s.Z.e.s.7.^.S.S.I.S.L.I.!.!.J.h.I.T.!.",
"T.Y.T.T.Y.Y.I.T.T.I.F.K.J.A.T.Q.Y.A.S.L.D.s.p.a.h.p.<.O.i._.I.L.Y.T.T.h.S.A.L.L.T.Y.Q.S.Z.q.a.e.;.7.E.S.S.J.y.i.T.I.^.I.V.j.J.I.",
"T.P.T.~.T.Y.I.T.T.Y.Y.h.h._.Q.^.S.A.A.S.L.J.Z.s.A.J.I.j.I.^.J.Y.Y.Q.Q.j.A.J.S.A.Y.Y.S.A.C.7.e.i.a.Y.^.L.I.I.h.J.J.S.^.S.g.h.J.T.",
"T.J.T.T.I.~.!.~.T.B.Y.p.J.I.Y.I.I.Y.I.V.Q.Q.Y.I.Y.L.Y.Y.Y.!.^.^.Y.^.Q.T.J.I.f.j.J.J.A.A.A.S.T.!.Y.S.Y.Y.S.J.I.Y.L.J.^.S.h.J.I.T.",
"J.L.L.E.!.J.T.Y.L.^.I.J.J.J.J.I.I.Q.Y.Y.I.I.Y.!.T.B.Y.I.Y.A.^.^.I.j.S.J.A.g.a.h.J.S.S.h.L.S.A.h.g.C.S.A.Z.A.J.h.I.L.Y.j.g.j.I.Y.",
"J.A.J.I.~.T.Y.T.I.^.L.J.B.J.I.!.T.^.Q.I.I.J.Q.Y.J.A.I.I.I.I.h.a.I.A.S.S.A.h.h.A.A.J.h.A.S.Y.Z.a.a.f.L.I.J.Z.J.T.Y.L.S.S.g.h.J.J.",
"j.j.h.J.Y.!.!.Y.I.L.I.J.j.J.I.I.I.V.Y.Y.J.I.J.I.I.S.S.L.L./.T.p.L.S.S.Y.J.j.S.J.S.A.g.A.A.Y.S.A.h.S.I.Y.Z.J.L.J.Y.Y.A.h.j.h.A.L.",
"I.I.h.J.J.I.I.Y.I.J.j.J.I.L.I.I.j.j.I.Y.I.S.V.j.j.I.S.S.L.Y.S.a._.Y.A.L.^.S.I.S.g.g.g.S.A.j.j.A.A.J.A.L.A.J.Z.g.h.J.J.A.S.h.a.p.",
"Y.T.J.J.A.J.J.J.J.I.I.j.g.j.I.j.I.I.Y.V.I.I.Q.V.j.I.S.V.I.Y._.!.S.I.L.!.Y.Y.j.Y.A.J.J.S.A.A.A.g.S.J.A.Y.Z.J.A.j.y.g.S.A.h.S.h.o.",
",.J.I.^.J.J.J.J.V.I.Y.V.j.S.I.I.!.V.I.Y.Q.!.Q.j.I.I.J.S.I.j.J.J.j.j.I.I.A.S.S.d.I.Y.j.g.I.Y.A.A.h.Y.S.Y.g.J.I.S.h.j.d.g.h.S.h.w.",
"d.J.I.h.d.h.S.S.j.S.J.J.J.j.S.L.T.I.T.Y.Q.Y.j.I.J.I.V.g.S.J.j.g.J.j.h.S.T.I.I.I.Y.Q.A.S.A.S.S.S.A.h.Y.L.g.A.A.j.i.j.g.d.j.J.J.R.",
"Y.h.A.j.j.h.A.I.I.Y.!.I.S.I.S.!.I.S.I.I.I.S.I.Q.I.S.j.I.j.Y.j.h.j.j.h.I.Y.I.J.I.J.S.L.Y.Y.Y.Y.I.A.y.A.Y.S.d.d.g.g.j.S.g.g.h.T.L.",
"I.L.T.L.j.S.Y.^.^.^.^.Q.L.S.I.Y.I.Q.Q.~.Q.S.j.I.g.j.j.I.J.j.V.j.d.d.j.S.S.S.I.I.j.Y.^.T.^.Q.I.I.Y.Y.Y.A.T.A.A.g.S.Y.!.!.!.^./._.",
"<.<...! ^ :.y.:.u.u.u.y.t.5 V d.u.t.t.d.t.^ ! { t.t.t.I I ! { Y ! ^ ^ :.Q ^ :.W m V i.y.d.i.t.t.:.y.y.^ X.X.*.^ ,.:.,.d.<.:.<.d.",
"<.<.<.y.p.t.7.<.y.i.Z.h.,.j.J.g.d.d.y.h.g.u.u.u.j.d.f.f.i.d.f.f.B.g.t.y.,.<.>.*.q.<.y.q.g.a.i.-.,.7.7.7.O. .i.p.<.<.a.a.i.i.<.<.",
"P.F.h.J.P.q.a.C.J.F.T.K.q.L.J.J.I.L.h.Y.P.J.F.K.J.J.K.K.K.T.K.J.K.K.K.J.T.F.K.J.J.J.L.R.J.H.P.W.R.P.P.W.R.F.F.P.P.F.D.P.J.P.F.Z.",
"h.F.F.C.h.a.h.J.Z.M.M.M.j.f.h.J.p.p.F.i.<.I.J.I.J.K.K.T.I.4.p.Y.J.i.s.P.E.K.K.K.F.J.K.P.K.L.P.J.J.A.P.J.J.P.P.L.L.F.h.J.F.F.D.L.",
"s.L.L.F.L.F.s.P.F.s.J.F.P.F.J.J.J.F.J.F.F.I.P.F.f.f.K.f.s.K.K.P.J.p.p.H.E.K.4.M.L.J.J.h.Z.F.Z.Z.J.J.J.F.Z.J.Z.P.L.J.L.L.P.J.P.L.",
"F.P.J.L.J.L.J.J.F.J.a.a.P.T.P.I.T.Y.J.I.P.T.I.M.n.n.K.n.M.K.K.F.M.F.M.M.K.I.U.J.J.F.Z.J.Z.F.s.a.F.s.J.a.F.a.i.Z.L.P.R.L.P.L.C.L."
};
