/* XPM */
static char * greystone_xpm[] = {
"128 128 15 1",
" 	c #9E9888",
".	c #3A3225",
"+	c #473F33",
"@	c #776958",
"#	c #564E41",
"$	c #8B8170",
"%	c #4D4436",
"&	c #BAB7AC",
"*	c #696253",
"=	c #827561",
"-	c #9D9688",
";	c #1D140B",
">	c #1F1208",
",	c #FFFFFF",
"'	c #000000",
"     .+               +@#$$######$$$$$##            %                  .#$$######$$$$$#%            ## %#    %%  &&&&&&&*==@@@  ",
"     .+               +#$$$$$$$$$$$$$$##            %                  .$$$$$$$$$$$$$$##            ##       %%  &&&&&&&*@      ",
"    -.+              -+#$$$$$$$$$$$$$$##            .                  .$$$$$$$$$$$$$$##            ##           &&&&&&&*@      ",
"    ..+              -+#$$$$$$$$$$$$$$##            .                  .$$$$$$$$$$$$$$##            ##           &&&&&&&*@      ",
"...-..+-         ## -++#$$$$$$$##$$#####         # %.      .     ... ...$$####$##$$#####         #  #+$   #      &&&&&&&*@    @@",
"...##############++++++##$++  @$    =@$$......===..+=########+++.....+++==@+$$$$$$$$@@$$.....+@@*++++@%@@@+%++*%%*************@*",
"$$$# *   ***** *#$$$$#$$$$#=            ==  ==    =#======== ++==   =#= = =+$@$        $====@@-----%@@@@@-++@%%%%%%@---+*@@%+@@%",
"$$$* *       * **$$$$$$$$$#=$@@        ======  =  =##        +.= ==  == ===@@=@       $@=====------%%@----*$*+%%%%%-----@@------",
"$$$***  *    ** *$$$$$$$$$$=...       @======     @.==  = =  +.  == =======@..@       @@=====------@%-------*++%%%------%@@@@@--",
"$$$**   *    ** *$$$$$$$$$$@...       @.@=.==     @#==       ==  =  =======@..@       @.@=+=@------@--------++*@@+*$@@**%@@%@@@@",
"$$$**   *    ** *$$$$$$$$$=@..@       @===...==  .@#= =         ==       ==@..=       @.$$...*---@@**$*+@---*+*%%+##   #%%%%@@%%",
"$$$######       ##$#$$#$##= =.@       +=$$$=@@...++#     =#=    #+======+.= =@        .$$$$$.++++*++*----%+-@*-@%+     #%%%%--@%",
"$$$*#####       $$$#$$$##$           =#$$$$$.+#$#$+#=   =#=     ==##== ==            =+$$$$$.+=$$$+*-----++---@@@@     #%%%%@--@",
"$$$***  **      #$$$$$$$==$          @#$$$$=+#$$$$+#= = =#=    == == ===             @.$$$$$.+$$$$#+@----*---@@%@*######++++++++",
"$$$#*    *     *#$$$$$+=$      =  =*#@+$$$$.+$$$$$+#=====#== =+.#====+=@      == ===@@.$$$$+.+$$$$$+@@@@%@---@%%@----$*$$$$$$$$$",
"$$$.#    *     #+$$$$$+@       =$*******$++.+$$$$$+#=== ==== #+#= ===+#=       =@+.#.##$$$$..=$$$$#+@--------@--------*$$$$$$$$$",
"....#  $ $#####$$$$$$$+       =@#.*****.+++.+$$$$$+.=   = ====   === ##=      =+$.#####.+++..=$$$$##@-@---@------@%---*$$$$$$$$$",
"++++=####$$$$$$$$$$$$$+@        $...........+$$##+$#== ============= +.+ =  @$$@$............=###$#+@@%---+-------+-@@$$$$$$$$$$",
"$$$$$+=++++###+++++++==.$$       .##.##.$$$$$$$$$$@=#=##===#####=+..+$$+$$$$$$$$$..++......$++##+##+%%%---++*@@@-++$$$$$$$$.$$$$",
"$$$$##$##$$++===+=@..      =@@===.@ @$#.$$$$$$$$$$...#=#===+++$@+@+$$$$$$$$$$$$$$+$$$$++=====+=$$==*%@@@@-+...=+++$$$$$$$$..$$$$",
"$$#####=$$$++$$@#+@        =@=  =  =.==$$$$$$$$$$$..##=#===@$$$$++$$$$$$$$$$$$$$$$$$+=++$$$$$$$$$$=%@@@@@-$=$$$$..$$$$$$$$$$$$$$",
"$######+$$$$+$$$...       @@$=    ==@#$$$$$$$$$$$$...#== = @%$$$$++$$$$$$$$$$$$$$$$+++=$$$$$$$$$$$+%%@@---+$$$$$..$$$$$$$$$$$$$$",
"$$##$$$$#$$$+###@@@@====  @@$@    =...$$$$$$$$$$$$..##.= = +%$%%+++$$$$$$$$$$$$$$$%+++=$$$$$$$$$$$+%%%@-@@+$$$$$..$$$$$$$$$$$$$$",
"$$##$$$$##$$+..@             ..=====...$$$$$$$$$$$.#= #= ==#%$$$$$$$$$$$$$$$$+%%%$$$++$$$$$$+$$$$$+%%%%@-@+$$..$..$$$$$$$$$$$$$$",
"$$##$$$$$$$$+===             .....===..$$$$$$+$$$$.=    ===.%$$$$$$$$$$$$$$$$+%$%$$$++=$$$$$=$$$$##%%%%%@%+=.......$$$$$$$$$$$$$",
"==###$$$$$$$+= =         === =.= ====..$$$$$$.$$$..       =.%$$$$$$%$$$$$$$$$%%$$$$$++==$$$$+=$##++++$*########...........+++...",
"  +######$$++@  = ==  ====== =..====...$$$$$$.$$$.+      ==++$$$$$$%$$$$$%%$$+%$$$$$+$+==$$$+++##+ #           ##*@*#####+$$=++=",
"   ++$$$$$+++$$$+................................$++@$ $@++$$ %$+++++%%%%%++++++++++++.######..++#             ##@=*@@@##+$#$$$$",
"   +$                    $+**@ $***....*@   $***.$+                      $+#$  $$.....$       $$####           ##       #+$#$$$$",
"   +                      +*        **           *+                       +$     #$$.            $#                     #+$#$$$$",
"   +                      +@         *           *%                       +$     $$ #            ##                    ##++#$$$$",
"   +                     $+@                     *%                       +$  $$$$$ $            $#                  ##.---=====",
"  .+                     $.@                    $*%                       +#$$$$                 ####--              #-         ",
"  .+$                    $*@ @@                 *%%%+                     +#$##                 $#####-              #          ",
"...+++$                  $.@ @                  *%%%+                    $+#$#$          $$$$$ $$.####               #          ",
"..=@=@$                  *..                    *+%+                     +..$ $          $$$$  $$.###               ##          ",
"=$$=$@$                  ...@                   *##$                     +..#$                 $$##                 ##          ",
"$$$.@$$                  *..@  *...       @@     #$#                     %..#$$###$            $$####               ##          ",
"$$$.=$$                 $*@.@   .@@            @@$$#                     %...* ==*#    $$$  $$ $#####               #.          ",
"$$$.%$$$#               $..@..@@.@ @        @@@@.$$#                    %+.##*  ==$ $ $$$$$$$$$$#####   ##         ##.          ",
"$$$.%$$+   ###       +$$+.* @@@@.@ @            *$$#%            %   %%%++#  $$$$   $$$ $$  $$$$.####   ##      ## ##.-         ",
"$$..%$%+#######+++++++++.            @@@@@@@@@@..$$#++++++++++++++++++....$      $  $..######....#-#################--..........",
"=..... ......++++$$$$+=+@             @@.@.*$### ++#####  #+.#$##$$$$$$$#$$  $$$ ###$$##.@=@---%----------$..$$..=..$$$%%%.;..%%",
"            ..$$$$$$$$$$@@       *.@@  @.@@                #.$$#$$$$$##$##$$$  $ ..#$$$#%==@---------------.$$$$$$$=%-----------",
"            +.###$$$$$$$@@       .@    ..@..                +##.######$$#.$$$ $$$##$$$$.%==%---------------.$$$$$$$=------------",
" +           .++#####$$=..@     ** @@.... @.                +.$$###$.#$$$.$    $##$#####%==%%----%%--------.$$$$$$$=------------",
" +           ..========+$$$ @***..$@@.......                +$$  $$#.$ $$ $$##$##.#$$...%%=@.----%..---$---.=$$=.$$=------------",
"             .=$$$$$$$..$$$$$$$$.... @@@...@                +$$$$$$$$$$#$ $$$$$$$#.+$+++#+#++--------------.$$$$$$$.------------",
"             .=$$$$$$$.$$$$$$$$$$$..@      *                +#$$#$$$$$$#$$$   $   .+-##-----$--------------.$$$$$$$%------------",
"             .=$$$$$$$.$$$$$$$$$$$.. @@.@ @*                +#$$#$$$  $#$$$$$$ $$$##-#--#------------------.$$$$$$$%------------",
"             .=$$$$$$$.$$$$$$$$$$$..@@@@@@@@       #        +#$$#$$$$ $$$$$$  $$ $#+##-##------------------..$$$$$$%--#-#####---",
"..............==$$$$$$=++$++$++++$.......@@.#     #####  ##++#$##$   $$#.###$$#####++###+##-+-----%-------%..$$$..$%###---######",
"+++++++++++++$$=.......++++...$..$## ####...+++++.##+++++....$##............##$#.--+-+--+++++..%..................=%#########%##",
"      ++       $+++++++..... &&&&&&&&&&&&#.==#%#         *      #.##....+++++            -+++...$$$$+######-  #####--###%%......",
"     ++               ++$--# &&&&&&&&&&&& #@@%%$                     ..+--  +             --##.$$$$$$                  -.-------",
"    +.=               #+$###&&&&&&&&&&&&& $      # #.                #.*                  -$$$#==$$=.#-                 .-------",
"    #.=               #+# $&&&&&&&&&&&&&&          .#                #.*                 --$       ##*#                -.-------",
"     .$   +           #+   &&&&&&&&&&&&&&##        #*     *          #>*                 +-         ###      *         -.-------",
"    ++$   $           #+@  &&&&&&&&&&&&&##*        #*      *.      * #>                #++$         ###                -.-------",
"#   +    $$++++++$++  ++# $&&&&&&&&&&&####        ***      *.*** ****#.         +++--++++#$#        ###                #.-------",
"#    ###    ++#**..#+..################.#   *    ****************.***.+##--     ++####### ##     #####-      *         #..$$.$--",
"   ########  .* *..******......*......*.****.    ***......* *...*..***  ##.....*..###########   #######***###########--#;;...###",
"+++++  ##### ..*..***.***..**. *****.***.*...    *.........*..........# ##.@@@@@..############ #######.#######.....####;;;...#..",
"     +++----##-####-$##..* *..*..**#.####   # &&&&& #.-   --#------- -.+#+........$#######$ #$$$#$##.##+$$++++####    ###@======",
"     ..#               #$$$$  @*     $*. &&&&&&&&&&&#.      -         -.+--##$##    #$### &&&&&&&&&&#$       $+  $       ==     ",
"      #-               #-*            **&&&&&&&&&&&&#.      -          #$==            ##&&&&&&&&&&&#$       ++  +      #=      ",
"      #-              ###*            @*&&&&&&&&&&&&#-      -         .$$$#            ##&&&&&&&&&&&#+       $$  +      #=      ",
"      #-              ###$            @*&&&&&&&&&&&&#-      -         .$$$=            ##&&&&&&&&&&&#+           +      =$      ",
"      #-              ###$            ** &&&&&&&&&& #-     --         .$$$=           ###&&&&&&&&&& #+           +      =$      ",
"     .##             #### # @@@@@@   ***#############.-----..-    --...$$$###  #     $$#############.@          ++      ==$$$$$$",
"......##################  #*$$*#$$  $#$=######$$$####.................#$$$#####==  $=$ =##$##$$$$$$##==++$+++++++++     #=@@$$$$",
"++++#######$$ ##+++$+++#$$#$$$$       $=#$$$$$$$$$$##$$#=$$.#===########$=$$$##       $=$$$$$$$$$$$=#--.#-#...+.###$$$###@==$$$$",
"$$$$$$    $$  ##$$$$$$$$$$$$$$+       $=$$$$$$$$$$$##$-#$  #. $ #$$$$$$#$$$$$##       $=$$=$$$$$$$$$--------.##.######...@@@$$$$",
"$$$$+         ##$$$$$$$$$$$$$$+       $#$$$$#$$$$$$# $--    $$$ #$$$$$#$$$$$$##       $##$#$$$$$$$$#--------.#-#####-#--#...%%%%",
"$$$$+         #$$$$$$$$$$$$$$$+       ##===##$$$$$$#= $$$$$$    #$$$$$$#$$$$$##       =#$$$###$$$$$=#--##---.#-####-##--#....%%%",
"$$$$+$         $$$$$$$$$$$$$$$+       #$----$#$$$$=#$    $#$$$  #$$$$$$#$$$$$##       #$$$$$$#=$$$$#----#..$#--##.#-----#...@%%%",
"$$$$+###$#      $$$#$$$+++$$$$$       #-----#####=##    $## $$  $###$$$#####$$=       #$$$$$$####$##-----.#----$#.#------...$-%%",
"$$$++$  ##      #$#$$+$           $  $#-----## $$$##$    ##$$  $$$$####$$     =$$$$$ $#$$$$$##----##---------#-.#-----###@.@----",
"$$$+#    #      ##  ##        #########-----##    $##$$$$##$$$$##$####=$ $$   $$$####$#$$$$$##-----##--------#..$------##$$--#%$",
"$$$+#    #$    ##   ###       #### ## #----### $$$$######.# $$$#$$$$##=     $$$#$.#####$$$$###----##---#-----#----------------#-",
"++++#    $#######    ##       ####### ##---##=  $$$.$$$.$$#$#$$$$$$$$.=     $$##$.$#$$=$$$$##$----#.#-----------------#---------",
"#####$    $$==== ######  #####$$$############$$$#$$####$$$ ##$$$$$###.# $$$$=====.#..########$$$#$$####---$-------#$#.#---------",
"----$#==%####%%%%###*-*$$        ..*...$$$##$===.#$$###$$$$####$$#..# $$$$$$$$   ..#..######..##.###..#---$-------#-------##$$--",
"---##%$$%+++@====.*$   $$$$$$$$$$.$$@.$------------#..#######$##$#.$     $$$$$ $#.$$$#.#==##$#######.@#---..###--.$-------..$---",
"--#==+==%$$#$====.. $$  $$@$$$  $$$$..$------------...#..##    $$.#       $$$   $$$$$..$          $#@@@####+++++##---------#----",
",-.##++++$$$$====@.@$     *$@@$$  $ $.$------------...#$$ $=$$$$=.#       $$$$$$ $$$###            #@@@%$$$$$$$$+.#-------------",
"  .##$$++$$$+@....**@@@@$$$-$*$$$$$$*..------------...#$   $.$$$###$$$$##$$$$$$$$$ $#.#  #        ##.@@%$$$$$$$$+.#-------------",
"  .#$$$$$$$$=***$  $$$$$$$$$$..$@@@@...------------....$$$ $.$$$$$$$$$$$$$$$$##$$$$$#.#           ##..@$$$$$$%$$+.#-------------",
"  .#$$$$$$$#+ $$$$$$$$$$$$$$$..$$$$$@;$-----------$.##=$$$ $. $$$$$$$$$$$$$$$#.$$$$$#.#           #....$$%+==+%$+..#--------##--",
"  .##$$#$$$+*  @$$$$$$$  $$@$*.*$$@@.;.-----+$$-$..+$ $$$$$#. $$$$$#$$$$$$$$ #. $#$$#.##     #####+..##+++++    +...........#...",
" -.++++++$$+*  @@$@@$$$$@@@@$*...............+$#+#=+=$$$$#..# $#$######$$#####.$$$$$.##############+.            ....#....++$+++",
"  ..++=====+*  -*...**................++++++++##+#=++  -#=+--- ##.#+.#####...####....#-  ----## +##+             ....#....+++###",
"    $  $            $$*$$-..$      $..+         -++-                   =$=.-     ####-           ##                     ++$-----",
"   -$                 $  $.+        ..           ++                    $$=.       #-#            -##                    ##+-----",
"   .                     *.+        +.           +#                    $$=.#      --#            -#                     +;+----$",
"   .$                 $**$..$$      $.           +.-                  +===.#                     -#                  ++         ",
"   .$                 $*$*=*@+                   +..                  +.=#.##                    -##                 +.         ",
"  -.*-                   **=#                   -...@                    +###                    ###++               +          ",
".....*                   -###                  #+...@                    +===                    #++++              ++          ",
",...##                   *..#                   +...=                    #..                     #===               +.          ",
"   ..#                   *..#                    ====                    #..#                    #===               +.          ",
"   ..#                   *..#                    @..=                    #..=                    #===               +.          ",
"   ...               $ $$*==@-                   ...                     #**#       #           ##===              +'*          ",
"   ...   $        $$$   $.= @+                  #...                    #+=-*#  # ###           ##.==  ##        # +'*          ",
"   ...*$$$$$$$$$$*$$***$..@ @++++++++ ##      ##+.==+   ##    #  +++++++++$-*+++++####      ######.=@  ##        #++#$          ",
" .....*......*...*==.....###$---#-#$..++++###++++@@@#######++++++++++++++=$---------#+######$##.#..@@+ +++####+++++$  #.........",
",.++       $++..=$$$$$$.=---------$$$..$=#-----##----------##$$$##$$$$$$$=-----------##$$$$$$$  $        $.+.......= $#.......>>",
"$$          $+$$$$$$$$$$=---------#$$=%$$#-##--------------##$$$$$$$$$$$$+#--------+$+#$$$$$+$             .$$$=$$$=====$$$$$.@=",
"$$          $+..$$$$$$$$.#--------#$$$$$$.%%.---------------##$##$$$#$$$$+#-------+.=+#$$#$$+.             ..$$$$$$.=$$$$$$$$===",
"$.          ++...==..$$.###-----##$=%%%%%%%%.-------#-------#$$$#$$#+$$$+=+------+$$+.+$$$$$#+             ..$$$$$$..$$$$$$$$.==",
",++         ++======$$=#$$#$-##-##$=..%%%%$$=-------#-------$$$$$$$$+$$$===------+.=$++++++$++             .$$$$$$$.$$$$$$$$$.==",
"            ++.==$$$$$.$$$$-------#$=$$%%..$$---------------#$$$#===$$$+==@-------$. #      ++             .$$$$$$=..$$$$$$$$.==",
"            ++=$$$$$$.#$$$$--------#%$$$$$$   --------------##$++#$$$$#+==@--------+#        +$            .$$$$======@@@@======",
"            $+=$$$$$$.#$$$$--------#.$$$$=   .--------------##$+$$$$$$++===--------+#  #     +$            ..$$$.===============",
"            $+=$$$$$$.$$$#$--------#.%%%%%   .--------------##$+$$$$$$===+=--------+## #     +#@@ $.      $..$$$.==========###==",
"#+++++++++++++=$$$$$$=$$$$######$#-$.%%%%%.  .#########$$$####$+$$$$$$=++=+#------$++#++++++++@@@@@......$...$$..==#========##==",
"#+$$$#######$$$=.....############## ..........##%%%%%#######$+++++++++.++=..#    ##    ####++...#.##..##$$%%..==%@@..###=#######",
"----$           ###$####**#               ##..%$---$#-----#----------#..==@               # +..$---$+   $%%       $$%%%...+#####",
"----$                 $#@@*                %$$%$----#                 #===                #$$++$----$                  %#----#--",
"----.                  #...                $-------%#                 #+==                #$$$$$-----                   #-------",
"---$.$                 #%%$                ---------#                 #.+.                #$$$$$$--+-                   +--+++++",
"----.#                 #$$$               #---------#                 ###--              ##$$$$$$+++     $             $+**=====",
"----.#$  #             #$$$               $---------$-----###-- -#-   ###-$              #+$$$$$$++$     $              %=      ",
"---$$##$$########$$$  $#%$$              #%-----%%%%--##-########%#########      #########+$$$$$$++$$%  %%  %           %       ",
"....$###$$$##########$$#%#%# ## ##########$-----$%##--#####-----#---##-%######   ##$$$#;;;+$$$$$$++$$$%+++$ .%         %**===   ",
",##$$$####$#$         ##%#@#####$$------##---------------#--------------#########-----#;;#$$$$$$$$$$$$$$$$$ $$$##$$$%%%%*  =====",
"---------*##           $%==@------------$$------------------------##----%#-------------$#$$$$$%$$$$$$$$$$$           $%*=     ==",
"---------**#     ******#%@#%----#-------$-----##----$$$%$$%--------################$##@$+$$$%$$$$$$$$$$$$@@@@@@@@@@@@##*===== =="};